M48
; DRILL file KiCad 10.0.5 date 2026-09-24T23:40:51
; FORMAT={-:-/ absolute / metric / decimal}
; #@! TF.CreationDate,2026-09-24T23:40:51-05:00
; #@! TF.GenerationSoftware,Kicad,Pcbnew,10.0.5
; #@! TF.FileFunction,Plated,1,2,PTH
FMAT,2
METRIC
; #@! TA.AperFunction,Plated,PTH,ViaDrill
T1C0.200
; #@! TA.AperFunction,Plated,PTH,ViaDrill
T2C0.300
; #@! TA.AperFunction,Plated,PTH,ComponentDrill
T3C0.500
; #@! TA.AperFunction,Plated,PTH,ComponentDrill
T4C0.800
; #@! TA.AperFunction,Plated,PTH,ComponentDrill
T5C1.000
; #@! TA.AperFunction,Plated,PTH,ComponentDrill
T6C1.200
; #@! TA.AperFunction,Plated,PTH,ComponentDrill
T7C2.000
%
G90
G05
T1
X126.127Y-79.891
X134.935Y-80.162
X139.335Y-111.07
X139.46Y-125.34
X139.46Y-119.6
X140.11Y-119.6
X140.11Y-125.34
X140.76Y-119.6
X142.585Y-111.07
X142.71Y-125.34
X143.37Y-80.224
X143.885Y-116.811
X144.535Y-111.07
X144.535Y-116.811
X145.185Y-116.811
X145.185Y-111.07
T2
X126.8Y-138.932
X126.8Y-149.6
X127.577Y-100.376
X128.847Y-89.716
X130.285Y-105.6
X130.61Y-138.932
X130.61Y-149.6
X131.387Y-89.716
X131.387Y-100.376
X136.077Y-100.376
X137.347Y-89.716
X139.887Y-89.716
X139.887Y-100.376
X142.6Y-118.2
X144.577Y-100.376
X145.76Y-105.6
X145.847Y-89.716
X148.387Y-89.716
X148.387Y-100.376
X152.674Y-100.362
X153.944Y-89.702
X156.484Y-89.702
X156.484Y-100.362
T3
X136.155Y-153.108
X136.155Y-154.375
X136.9Y-152.083
X136.9Y-155.4
X138.115Y-151.692
X138.115Y-155.792
X139.445Y-151.692
X139.445Y-155.792
X140.775Y-151.692
X140.775Y-155.792
X142.105Y-151.692
X142.105Y-155.792
X143.31Y-152.083
X143.31Y-155.4
X144.055Y-153.108
X144.055Y-154.375
X146.155Y-153.108
X146.155Y-154.375
X146.9Y-152.083
X146.9Y-155.4
X148.115Y-151.692
X148.115Y-155.792
X149.445Y-151.692
X149.445Y-155.792
X150.775Y-151.692
X150.775Y-155.792
X152.105Y-151.692
X152.105Y-155.792
X153.31Y-152.083
X153.31Y-155.4
X154.055Y-153.108
X154.055Y-154.375
T4
X143.195Y-132.342
X145.105Y-132.342
X147.015Y-132.342
T5
X126.8Y-157.6
X130.4Y-157.6
X154.6Y-60.0
X156.4Y-112.8
X156.4Y-115.34
X156.4Y-117.88
X156.4Y-120.42
X156.4Y-122.96
X156.4Y-125.5
X156.4Y-128.04
X156.4Y-130.58
X158.2Y-60.0
T6
X129.102Y-45.596
X129.102Y-60.836
X137.855Y-45.596
X137.855Y-60.836
X146.51Y-45.6
X146.51Y-60.84
T7
G00X142.105Y-153.742
M15
G01X138.105Y-153.742
M16
G05
G00X152.105Y-153.742
M15
G01X148.105Y-153.742
M16
G05
M30
