%TF.GenerationSoftware,KiCad,Pcbnew,10.0.5*%
%TF.CreationDate,2026-09-24T23:41:05-05:00*%
%TF.ProjectId,master_sense_buses,6d617374-6572-45f7-9365-6e73655f6275,rev?*%
%TF.SameCoordinates,Original*%
%TF.FileFunction,Copper,L1,Top*%
%TF.FilePolarity,Positive*%
%FSLAX46Y46*%
G04 Gerber Fmt 4.6, Leading zero omitted, Abs format (unit mm)*
G04 Created by KiCad (PCBNEW 10.0.5) date 2026-09-24 23:41:05*
%MOMM*%
%LPD*%
G01*
G04 APERTURE LIST*
G04 Aperture macros list*
%AMRoundRect*
0 Rectangle with rounded corners*
0 $1 Rounding radius*
0 $2 $3 $4 $5 $6 $7 $8 $9 X,Y pos of 4 corners*
0 Add a 4 corners polygon primitive as box body*
4,1,4,$2,$3,$4,$5,$6,$7,$8,$9,$2,$3,0*
0 Add four circle primitives for the rounded corners*
1,1,$1+$1,$2,$3*
1,1,$1+$1,$4,$5*
1,1,$1+$1,$6,$7*
1,1,$1+$1,$8,$9*
0 Add four rect primitives between the rounded corners*
20,1,$1+$1,$2,$3,$4,$5,0*
20,1,$1+$1,$4,$5,$6,$7,0*
20,1,$1+$1,$6,$7,$8,$9,0*
20,1,$1+$1,$8,$9,$2,$3,0*%
%AMFreePoly0*
4,1,245,2.000127,3.004998,2.157127,3.000998,2.157381,3.000985,2.314381,2.988985,2.314671,2.988955,2.469671,2.967955,2.469920,2.967915,2.624920,2.938915,2.625152,2.938865,2.777152,2.902865,2.777428,2.902792,2.928428,2.857792,2.928657,2.857717,3.076657,2.805717,3.076912,2.805620,3.221912,2.745620,3.222160,2.745510,3.364160,2.677510,3.364388,2.677393,3.502388,2.602393,
3.502610,2.602265,3.636610,2.520265,3.636839,2.520116,3.765839,2.431116,3.766045,2.430965,3.891045,2.334965,3.891254,2.334796,4.010254,2.232796,4.010439,2.232630,4.124439,2.124630,4.124630,2.124439,4.232630,2.010439,4.232796,2.010254,4.334796,1.891254,4.334965,1.891045,4.430965,1.766045,4.431116,1.765839,4.520116,1.636839,4.520265,1.636610,4.602265,1.502610,
4.602393,1.502388,4.677393,1.364388,4.677510,1.364160,4.745510,1.222160,4.745620,1.221912,4.805620,1.076912,4.805717,1.076657,4.857717,0.928657,4.857792,0.928428,4.902792,0.777428,4.902865,0.777152,4.938865,0.625152,4.938915,0.624920,4.967915,0.469920,4.967955,0.469671,4.988955,0.314671,4.988985,0.314381,5.000985,0.157381,5.000998,0.157127,5.004998,0.000127,
5.004998,-0.000127,5.000998,-0.157127,5.000985,-0.157381,4.988985,-0.314381,4.988955,-0.314671,4.967955,-0.469671,4.967915,-0.469920,4.938915,-0.624920,4.938865,-0.625152,4.902865,-0.777152,4.902792,-0.777428,4.857792,-0.928428,4.857717,-0.928657,4.805717,-1.076657,4.805620,-1.076912,4.745620,-1.221912,4.745510,-1.222160,4.677510,-1.364160,4.677393,-1.364388,4.602393,-1.502388,
4.602265,-1.502610,4.520265,-1.636610,4.520116,-1.636839,4.431116,-1.765839,4.430965,-1.766045,4.334965,-1.891045,4.334796,-1.891254,4.232796,-2.010254,4.232630,-2.010439,4.124630,-2.124439,4.124439,-2.124630,4.010439,-2.232630,4.010254,-2.232796,3.891254,-2.334796,3.891045,-2.334965,3.766045,-2.430965,3.765839,-2.431116,3.636839,-2.520116,3.636610,-2.520265,3.502610,-2.602265,
3.502388,-2.602393,3.364388,-2.677393,3.364160,-2.677510,3.222160,-2.745510,3.221912,-2.745620,3.076912,-2.805620,3.076657,-2.805717,2.928657,-2.857717,2.928428,-2.857792,2.777428,-2.902792,2.777152,-2.902865,2.625152,-2.938865,2.624920,-2.938915,2.469920,-2.967915,2.469671,-2.967955,2.314671,-2.988955,2.314381,-2.988985,2.157381,-3.000985,2.157127,-3.000998,2.000127,-3.004998,
2.000000,-3.005000,-2.000000,-3.005000,-2.115087,-3.002999,-2.115204,-3.002996,-2.213204,-2.998996,-2.213457,-2.998979,-2.311457,-2.989979,-2.311558,-2.989969,-2.409558,-2.978969,-2.409756,-2.978942,-2.507756,-2.963942,-2.507912,-2.963916,-2.604912,-2.945916,-2.605068,-2.945885,-2.701068,-2.924885,-2.701225,-2.924848,-2.796225,-2.900848,-2.796367,-2.900810,-2.891367,-2.873810,-2.891566,-2.873748,
-2.985566,-2.842748,-2.985733,-2.842690,-3.077733,-2.808690,-3.077822,-2.808656,-3.169822,-2.772656,-3.170031,-2.772569,-3.260031,-2.732569,-3.260175,-2.732502,-3.349175,-2.689502,-3.349297,-2.689441,-3.436297,-2.644441,-3.436475,-2.644344,-3.522475,-2.595344,-3.522595,-2.595274,-3.606595,-2.544274,-3.606727,-2.544191,-3.689727,-2.490191,-3.689901,-2.490072,-3.769901,-2.433072,-3.769992,-2.433006,
-3.848992,-2.374006,-3.849136,-2.373894,-3.926136,-2.311894,-3.926271,-2.311782,-4.000271,-2.247782,-4.000406,-2.247660,-4.072406,-2.180660,-4.072510,-2.180561,-4.143510,-2.110561,-4.143636,-2.110432,-4.210636,-2.039432,-4.210731,-2.039328,-4.276731,-1.965328,-4.276849,-1.965191,-4.339849,-1.889191,-4.339963,-1.889049,-4.399963,-1.811049,-4.400048,-1.810935,-4.458048,-1.730935,-4.458141,-1.730802,
-4.504141,-1.662802,-4.505000,-1.660000,-4.505000,1.660000,-4.504141,1.662802,-4.458141,1.730802,-4.458048,1.730935,-4.400048,1.810935,-4.399963,1.811049,-4.339963,1.889049,-4.339849,1.889191,-4.276849,1.965191,-4.276731,1.965328,-4.210731,2.039328,-4.210636,2.039432,-4.143636,2.110432,-4.143510,2.110561,-4.072510,2.180561,-4.072406,2.180660,-4.000406,2.247660,-4.000271,2.247782,
-3.926271,2.311782,-3.926136,2.311894,-3.849136,2.373894,-3.848992,2.374006,-3.769992,2.433006,-3.769901,2.433072,-3.689901,2.490072,-3.689727,2.490191,-3.606727,2.544191,-3.606595,2.544274,-3.522595,2.595274,-3.522475,2.595344,-3.436475,2.644344,-3.436297,2.644441,-3.349297,2.689441,-3.349175,2.689502,-3.260175,2.732502,-3.260031,2.732569,-3.170031,2.772569,-3.169822,2.772656,
-3.077822,2.808656,-3.077733,2.808690,-2.985733,2.842690,-2.985566,2.842748,-2.891566,2.873748,-2.891367,2.873810,-2.796367,2.900810,-2.796225,2.900848,-2.701225,2.924848,-2.701068,2.924885,-2.605068,2.945885,-2.604912,2.945916,-2.507912,2.963916,-2.507756,2.963942,-2.409756,2.978942,-2.409558,2.978969,-2.311558,2.989969,-2.311457,2.989979,-2.213457,2.998979,-2.213204,2.998996,
-2.115204,3.002996,-2.115087,3.002999,-2.000000,3.005000,2.000000,3.005000,2.000127,3.004998,2.000127,3.004998,$1*%
%AMFreePoly1*
4,1,246,2.000087,3.004999,2.115087,3.002999,2.115204,3.002996,2.213204,2.998996,2.213457,2.998979,2.311457,2.989979,2.311558,2.989969,2.409558,2.978969,2.409756,2.978942,2.507756,2.963942,2.507912,2.963916,2.604912,2.945916,2.605068,2.945885,2.701068,2.924885,2.701225,2.924848,2.796225,2.900848,2.796367,2.900810,2.891367,2.873810,2.891566,2.873748,2.985566,2.842748,
2.985733,2.842690,3.077733,2.808690,3.077822,2.808656,3.169822,2.772656,3.170031,2.772569,3.260031,2.732569,3.260175,2.732502,3.349175,2.689502,3.349297,2.689441,3.436297,2.644441,3.436475,2.644344,3.522475,2.595344,3.522595,2.595274,3.606595,2.544274,3.606727,2.544191,3.689727,2.490191,3.689901,2.490072,3.769901,2.433072,3.769992,2.433006,3.848992,2.374006,
3.849136,2.373894,3.926136,2.311894,3.926271,2.311782,4.000271,2.247782,4.000406,2.247660,4.072406,2.180660,4.072510,2.180561,4.143510,2.110561,4.143636,2.110432,4.210636,2.039432,4.210731,2.039328,4.276731,1.965328,4.276849,1.965191,4.339849,1.889191,4.339963,1.889049,4.399963,1.811049,4.400048,1.810935,4.458048,1.730935,4.458141,1.730802,4.504141,1.662802,
4.505000,1.660000,4.505000,-1.660000,4.504141,-1.662802,4.458141,-1.730802,4.458048,-1.730935,4.400048,-1.810935,4.399963,-1.811049,4.339963,-1.889049,4.339849,-1.889191,4.276849,-1.965191,4.276731,-1.965328,4.210731,-2.039328,4.210636,-2.039432,4.143636,-2.110432,4.143510,-2.110561,4.072510,-2.180561,4.072406,-2.180660,4.000406,-2.247660,4.000271,-2.247782,3.926271,-2.311782,
3.926136,-2.311894,3.849136,-2.373894,3.848992,-2.374006,3.769992,-2.433006,3.769901,-2.433072,3.689901,-2.490072,3.689727,-2.490191,3.606727,-2.544191,3.606595,-2.544274,3.522595,-2.595274,3.522475,-2.595344,3.436475,-2.644344,3.436297,-2.644441,3.349297,-2.689441,3.349175,-2.689502,3.260175,-2.732502,3.260031,-2.732569,3.170031,-2.772569,3.169822,-2.772656,3.077822,-2.808656,
3.077733,-2.808690,2.985733,-2.842690,2.985566,-2.842748,2.891566,-2.873748,2.891367,-2.873810,2.796367,-2.900810,2.796225,-2.900848,2.701225,-2.924848,2.701068,-2.924885,2.605068,-2.945885,2.604912,-2.945916,2.507912,-2.963916,2.507756,-2.963942,2.409756,-2.978942,2.409558,-2.978969,2.311558,-2.989969,2.311457,-2.989979,2.213457,-2.998979,2.213204,-2.998996,2.115204,-3.002996,
2.115087,-3.002999,2.000000,-3.005000,-2.000000,-3.005000,-2.000127,-3.004998,-2.157127,-3.000998,-2.157381,-3.000985,-2.314381,-2.988985,-2.314671,-2.988955,-2.469671,-2.967955,-2.469920,-2.967915,-2.624920,-2.938915,-2.625152,-2.938865,-2.777152,-2.902865,-2.777428,-2.902792,-2.928428,-2.857792,-2.928657,-2.857717,-3.076657,-2.805717,-3.076912,-2.805620,-3.221912,-2.745620,-3.222160,-2.745510,
-3.364160,-2.677510,-3.364388,-2.677393,-3.502388,-2.602393,-3.502610,-2.602265,-3.636610,-2.520265,-3.636839,-2.520116,-3.765839,-2.431116,-3.766045,-2.430965,-3.891045,-2.334965,-3.891254,-2.334796,-4.010254,-2.232796,-4.010439,-2.232630,-4.124439,-2.124630,-4.124630,-2.124439,-4.232630,-2.010439,-4.232796,-2.010254,-4.334796,-1.891254,-4.334965,-1.891045,-4.430965,-1.766045,-4.431116,-1.765839,
-4.520116,-1.636839,-4.520265,-1.636610,-4.602265,-1.502610,-4.602393,-1.502388,-4.677393,-1.364388,-4.677510,-1.364160,-4.745510,-1.222160,-4.745620,-1.221912,-4.805620,-1.076912,-4.805717,-1.076657,-4.857717,-0.928657,-4.857792,-0.928428,-4.902792,-0.777428,-4.902865,-0.777152,-4.938865,-0.625152,-4.938915,-0.624920,-4.967915,-0.469920,-4.967955,-0.469671,-4.988955,-0.314671,-4.988985,-0.314381,
-5.000985,-0.157381,-5.000998,-0.157127,-5.004998,-0.000127,-5.004998,0.000127,-5.000998,0.157127,-5.000985,0.157381,-4.988985,0.314381,-4.988955,0.314671,-4.967955,0.469671,-4.967915,0.469920,-4.938915,0.624920,-4.938865,0.625152,-4.902865,0.777152,-4.902792,0.777428,-4.857792,0.928428,-4.857717,0.928657,-4.805717,1.076657,-4.805620,1.076912,-4.745620,1.221912,-4.745510,1.222160,
-4.677510,1.364160,-4.677393,1.364388,-4.602393,1.502388,-4.602265,1.502610,-4.520265,1.636610,-4.520116,1.636839,-4.431116,1.765839,-4.430965,1.766045,-4.334965,1.891045,-4.334796,1.891254,-4.232796,2.010254,-4.232630,2.010439,-4.124630,2.124439,-4.124439,2.124630,-4.010439,2.232630,-4.010254,2.232796,-3.891254,2.334796,-3.891045,2.334965,-3.766045,2.430965,-3.765839,2.431116,
-3.636839,2.520116,-3.636610,2.520265,-3.502610,2.602265,-3.502388,2.602393,-3.364388,2.677393,-3.364160,2.677510,-3.222160,2.745510,-3.221912,2.745620,-3.076912,2.805620,-3.076657,2.805717,-2.928657,2.857717,-2.928428,2.857792,-2.777428,2.902792,-2.777152,2.902865,-2.625152,2.938865,-2.624920,2.938915,-2.469920,2.967915,-2.469671,2.967955,-2.314671,2.988955,-2.314381,2.988985,
-2.157381,3.000985,-2.157127,3.000998,-2.000127,3.004998,-2.000000,3.005000,2.000000,3.005000,2.000087,3.004999,2.000087,3.004999,$1*%
G04 Aperture macros list end*
%TA.AperFunction,ComponentPad*%
%ADD10R,1.700000X1.700000*%
%TD*%
%TA.AperFunction,SMDPad,CuDef*%
%ADD11RoundRect,0.250000X0.625000X-0.312500X0.625000X0.312500X-0.625000X0.312500X-0.625000X-0.312500X0*%
%TD*%
%TA.AperFunction,SMDPad,CuDef*%
%ADD12RoundRect,0.250000X-0.450000X0.262500X-0.450000X-0.262500X0.450000X-0.262500X0.450000X0.262500X0*%
%TD*%
%TA.AperFunction,SMDPad,CuDef*%
%ADD13RoundRect,0.075000X-0.225000X0.825000X-0.225000X-0.825000X0.225000X-0.825000X0.225000X0.825000X0*%
%TD*%
%TA.AperFunction,ComponentPad*%
%ADD14R,1.500000X1.500000*%
%TD*%
%TA.AperFunction,ComponentPad*%
%ADD15C,1.500000*%
%TD*%
%TA.AperFunction,ComponentPad*%
%ADD16FreePoly0,180.000000*%
%TD*%
%TA.AperFunction,ComponentPad*%
%ADD17C,0.800000*%
%TD*%
%TA.AperFunction,ComponentPad*%
%ADD18FreePoly1,180.000000*%
%TD*%
%TA.AperFunction,SMDPad,CuDef*%
%ADD19RoundRect,0.100000X-0.130000X-0.100000X0.130000X-0.100000X0.130000X0.100000X-0.130000X0.100000X0*%
%TD*%
%TA.AperFunction,SMDPad,CuDef*%
%ADD20RoundRect,0.200000X-0.200000X-0.275000X0.200000X-0.275000X0.200000X0.275000X-0.200000X0.275000X0*%
%TD*%
%TA.AperFunction,SMDPad,CuDef*%
%ADD21RoundRect,0.225000X0.225000X0.250000X-0.225000X0.250000X-0.225000X-0.250000X0.225000X-0.250000X0*%
%TD*%
%TA.AperFunction,SMDPad,CuDef*%
%ADD22R,1.800000X1.100000*%
%TD*%
%TA.AperFunction,SMDPad,CuDef*%
%ADD23RoundRect,0.200000X0.275000X-0.200000X0.275000X0.200000X-0.275000X0.200000X-0.275000X-0.200000X0*%
%TD*%
%TA.AperFunction,SMDPad,CuDef*%
%ADD24R,0.508000X1.397000*%
%TD*%
%TA.AperFunction,SMDPad,CuDef*%
%ADD25RoundRect,0.250000X0.312500X0.625000X-0.312500X0.625000X-0.312500X-0.625000X0.312500X-0.625000X0*%
%TD*%
%TA.AperFunction,SMDPad,CuDef*%
%ADD26RoundRect,0.225000X-0.225000X-0.250000X0.225000X-0.250000X0.225000X0.250000X-0.225000X0.250000X0*%
%TD*%
%TA.AperFunction,SMDPad,CuDef*%
%ADD27RoundRect,0.200000X-0.275000X0.200000X-0.275000X-0.200000X0.275000X-0.200000X0.275000X0.200000X0*%
%TD*%
%TA.AperFunction,ComponentPad*%
%ADD28C,2.400000*%
%TD*%
%TA.AperFunction,SMDPad,CuDef*%
%ADD29R,0.304800X1.168400*%
%TD*%
%TA.AperFunction,SMDPad,CuDef*%
%ADD30RoundRect,0.250000X-0.312500X-0.625000X0.312500X-0.625000X0.312500X0.625000X-0.312500X0.625000X0*%
%TD*%
%TA.AperFunction,SMDPad,CuDef*%
%ADD31RoundRect,0.250000X-0.625000X0.312500X-0.625000X-0.312500X0.625000X-0.312500X0.625000X0.312500X0*%
%TD*%
%TA.AperFunction,ComponentPad*%
%ADD32C,1.700000*%
%TD*%
%TA.AperFunction,ViaPad*%
%ADD33C,0.300000*%
%TD*%
%TA.AperFunction,ViaPad*%
%ADD34C,0.600000*%
%TD*%
%TA.AperFunction,ViaPad*%
%ADD35C,0.400000*%
%TD*%
%TA.AperFunction,Conductor*%
%ADD36C,0.250000*%
%TD*%
%TA.AperFunction,Conductor*%
%ADD37C,0.200000*%
%TD*%
G04 APERTURE END LIST*
D10*
%TO.P,REF\u002A\u002A,1*%
%TO.N,GNDREF*%
X158200000Y-60000000D03*
%TD*%
%TO.P,REF Phase,1*%
%TO.N,VAC*%
X154600000Y-60000000D03*
%TD*%
D11*
%TO.P,R20,1*%
%TO.N,Net-(R20-Pad1)*%
X146510000Y-77706985D03*
%TO.P,R20,2*%
%TO.N,Net-(R19-Pad1)*%
X146510000Y-74781985D03*
%TD*%
%TO.P,R19,1*%
%TO.N,Net-(R19-Pad1)*%
X146510000Y-72800000D03*
%TO.P,R19,2*%
%TO.N,Net-(R18-Pad1)*%
X146510000Y-69875000D03*
%TD*%
D12*
%TO.P,R33,1*%
%TO.N,Net-(R30-Pad2)*%
X155310000Y-84975000D03*
%TO.P,R33,2*%
%TO.N,Net-(U7-VIN)*%
X155310000Y-86800000D03*
%TD*%
D10*
%TO.P,REF\u002A\u002A,1*%
%TO.N,unconnected-(R40-Pad2)*%
X130400000Y-157600000D03*
%TD*%
%TO.P,REF\u002A\u002A,1*%
%TO.N,unconnected-(R40-Pad1)*%
X126800000Y-157600000D03*
%TD*%
D13*
%TO.P,U5,1,VDD1_1*%
%TO.N,+3.3V*%
X139887229Y-89715521D03*
%TO.P,U5,2,VIN_2*%
%TO.N,Net-(U5-VIN)*%
X138617229Y-89715521D03*
%TO.P,U5,3,SHTDN_3*%
%TO.N,Net-(U4-GND1)*%
X137347229Y-89715521D03*
%TO.P,U5,4,GND1_4*%
X136077229Y-89715521D03*
%TO.P,U5,5,GND2_5*%
%TO.N,GND*%
X136077229Y-100375521D03*
%TO.P,U5,6,VOUTN_6*%
%TO.N,Net-(U5-VOUTN)*%
X137347229Y-100375521D03*
%TO.P,U5,7,VOUTP_7*%
%TO.N,Net-(U5-VOUTP)*%
X138617229Y-100375521D03*
%TO.P,U5,8,VDD2_8*%
%TO.N,+3.3V*%
X139887229Y-100375521D03*
%TD*%
D14*
%TO.P,U3,1,VCC_1*%
%TO.N,+5V*%
X147015100Y-132341600D03*
D15*
%TO.P,U3,2,GND_2*%
%TO.N,GND*%
X145105100Y-132341600D03*
%TO.P,U3,3,VIOUT_3*%
%TO.N,Net-(U3-VIOUT)*%
X143195100Y-132341600D03*
D16*
%TO.P,U3,4,IP+_4*%
%TO.N,+VDC*%
X140105100Y-153741600D03*
D17*
%TO.P,U3,4_1*%
%TO.N,N/C*%
X142105100Y-151691600D03*
%TO.P,U3,4_2*%
X140775100Y-151691600D03*
%TO.P,U3,4_3*%
X139445100Y-151691600D03*
%TO.P,U3,4_4*%
X138115100Y-151691600D03*
%TO.P,U3,4_5*%
X136900200Y-152083100D03*
%TO.P,U3,4_6*%
X136155500Y-153108100D03*
%TO.P,U3,4_7*%
X136155500Y-154375000D03*
%TO.P,U3,4_8*%
X136900200Y-155400000D03*
%TO.P,U3,4_9*%
X138115100Y-155791600D03*
%TO.P,U3,4_10*%
X139445100Y-155791600D03*
%TO.P,U3,4_11*%
X140775100Y-155791600D03*
%TO.P,U3,4_12*%
X142105100Y-155791600D03*
%TO.P,U3,4_13*%
X143310000Y-155400000D03*
%TO.P,U3,4_14*%
X144054700Y-154375000D03*
%TO.P,U3,4_15*%
X144054700Y-153108100D03*
%TO.P,U3,4_16*%
X143310000Y-152083100D03*
D18*
%TO.P,U3,5,IP-_5*%
%TO.N,This just goes to load positive*%
X150105100Y-153741600D03*
D17*
%TO.P,U3,5_1*%
%TO.N,N/C*%
X152105100Y-151691600D03*
%TO.P,U3,5_2*%
X150775100Y-151691600D03*
%TO.P,U3,5_3*%
X149445100Y-151691600D03*
%TO.P,U3,5_4*%
X148115100Y-151691600D03*
%TO.P,U3,5_5*%
X146900200Y-152083100D03*
%TO.P,U3,5_6*%
X146155500Y-153108100D03*
%TO.P,U3,5_7*%
X146155500Y-154375000D03*
%TO.P,U3,5_8*%
X146900200Y-155400000D03*
%TO.P,U3,5_9*%
X148115100Y-155791600D03*
%TO.P,U3,5_10*%
X149445100Y-155791600D03*
%TO.P,U3,5_11*%
X150775100Y-155791600D03*
%TO.P,U3,5_12*%
X152105100Y-155791600D03*
%TO.P,U3,5_13*%
X153310000Y-155400000D03*
%TO.P,U3,5_14*%
X154054700Y-154375000D03*
%TO.P,U3,5_15*%
X154054700Y-153108100D03*
%TO.P,U3,5_16*%
X153310000Y-152083100D03*
%TD*%
D19*
%TO.P,C11,2*%
%TO.N,+5V*%
X146520000Y-131000000D03*
%TO.P,C11,1*%
%TO.N,GND*%
X145880000Y-131000000D03*
%TD*%
D20*
%TO.P,R14,1*%
%TO.N,Net-(U2-AIN1N)*%
X141725100Y-128891600D03*
%TO.P,R14,2*%
%TO.N,Net-(U3-VIOUT)*%
X143375100Y-128891600D03*
%TD*%
D21*
%TO.P,C14,1*%
%TO.N,Net-(U2-AIN1N)*%
X140150100Y-128891600D03*
%TO.P,C14,2*%
%TO.N,GND*%
X138600100Y-128891600D03*
%TD*%
D22*
%TO.P,R40,1,1_1*%
%TO.N,unconnected-(R40-Pad1)*%
X127110000Y-155000000D03*
%TO.P,R40,2,2_2*%
%TO.N,unconnected-(R40-Pad2)*%
X130110000Y-155000000D03*
%TO.P,R40,3,3_3*%
%TO.N,Net-(U8-INN)*%
X130110000Y-153600000D03*
%TO.P,R40,4,4_4*%
%TO.N,Net-(U8-INP)*%
X127110000Y-153600000D03*
%TD*%
D23*
%TO.P,R4,2*%
%TO.N,Net-(U2-AIN0P)*%
X128010000Y-135475000D03*
%TO.P,R4,1*%
%TO.N,Net-(U8-OUTP)*%
X128010000Y-137125000D03*
%TD*%
%TO.P,R5,2*%
%TO.N,Net-(U2-AIN0N)*%
X129610000Y-135475000D03*
%TO.P,R5,1*%
%TO.N,Net-(U8-OUTN)*%
X129610000Y-137125000D03*
%TD*%
D24*
%TO.P,U8,8,VDD2_8*%
%TO.N,+3.3V*%
X126800000Y-138932000D03*
%TO.P,U8,7,OUTP_7*%
%TO.N,Net-(U8-OUTP)*%
X128070000Y-138932000D03*
%TO.P,U8,6,OUTN_6*%
%TO.N,Net-(U8-OUTN)*%
X129340000Y-138932000D03*
%TO.P,U8,5,GND2_5*%
%TO.N,GND*%
X130610000Y-138932000D03*
%TO.P,U8,4,GND1_4*%
%TO.N,-VDC*%
X130610000Y-149600000D03*
%TO.P,U8,3,INN_3*%
%TO.N,Net-(U8-INN)*%
X129340000Y-149600000D03*
%TO.P,U8,2,INP_2*%
%TO.N,Net-(U8-INP)*%
X128070000Y-149600000D03*
%TO.P,U8,1,VDD1_1*%
%TO.N,+3.3V*%
X126800000Y-149600000D03*
%TD*%
D21*
%TO.P,C10,2*%
%TO.N,Net-(U2-AIN0P)*%
X128060000Y-133900000D03*
%TO.P,C10,1*%
%TO.N,Net-(U2-AIN0N)*%
X129610000Y-133900000D03*
%TD*%
D25*
%TO.P,R39,1*%
%TO.N,Net-(R20-Pad1)*%
X146294594Y-80224479D03*
%TO.P,R39,2*%
%TO.N,0.6 VDC RAIL*%
X143369594Y-80224479D03*
%TD*%
%TO.P,R37,2*%
%TO.N,0.6 VDC RAIL*%
X134935382Y-80161985D03*
%TO.P,R37,1*%
%TO.N,Net-(R26-Pad1)*%
X137860382Y-80161985D03*
%TD*%
D26*
%TO.P,C6,2*%
%TO.N,Net-(U1-AIN3P)*%
X130285000Y-105600000D03*
%TO.P,C6,1*%
%TO.N,Net-(U1-AIN3N)*%
X128735000Y-105600000D03*
%TD*%
%TO.P,C7,2*%
%TO.N,Net-(U1-AIN2P)*%
X138910000Y-105600000D03*
%TO.P,C7,1*%
%TO.N,Net-(U1-AIN2N)*%
X137360000Y-105600000D03*
%TD*%
%TO.P,C9,2*%
%TO.N,Net-(U1-AIN0P)*%
X155310000Y-105600000D03*
%TO.P,C9,1*%
%TO.N,Net-(U1-AIN0N)*%
X153760000Y-105600000D03*
%TD*%
%TO.P,C8,2*%
%TO.N,Net-(U1-AIN1P)*%
X147310000Y-105600000D03*
%TO.P,C8,1*%
%TO.N,Net-(U1-AIN1N)*%
X145760000Y-105600000D03*
%TD*%
D27*
%TO.P,R6,2*%
%TO.N,Net-(U1-AIN0N)*%
X153710000Y-104000000D03*
%TO.P,R6,1*%
%TO.N,Net-(U7-VOUTN)*%
X153710000Y-102350000D03*
%TD*%
%TO.P,R7,2*%
%TO.N,Net-(U1-AIN0P)*%
X155310000Y-104000000D03*
%TO.P,R7,1*%
%TO.N,Net-(U7-VOUTP)*%
X155310000Y-102350000D03*
%TD*%
%TO.P,R8,2*%
%TO.N,Net-(U1-AIN1N)*%
X145710000Y-104025000D03*
%TO.P,R8,1*%
%TO.N,Net-(U6-VOUTN)*%
X145710000Y-102375000D03*
%TD*%
%TO.P,R9,2*%
%TO.N,Net-(U1-AIN1P)*%
X147310000Y-104000000D03*
%TO.P,R9,1*%
%TO.N,Net-(U6-VOUTP)*%
X147310000Y-102350000D03*
%TD*%
%TO.P,R10,1*%
%TO.N,Net-(U5-VOUTN)*%
X137335000Y-102375000D03*
%TO.P,R10,2*%
%TO.N,Net-(U1-AIN2N)*%
X137335000Y-104025000D03*
%TD*%
D28*
%TO.P,R15,1*%
%TO.N,Net-(U4-GND1)*%
X129102119Y-45595682D03*
%TO.P,R15,2*%
%TO.N,\u03D5C*%
X129102119Y-60835682D03*
%TD*%
%TO.P,R17,1*%
%TO.N,\u03D5B*%
X137854627Y-60835682D03*
%TO.P,R17,2*%
%TO.N,Net-(U4-GND1)*%
X137854627Y-45595682D03*
%TD*%
D12*
%TO.P,R28,2*%
%TO.N,Net-(U5-VIN)*%
X138648410Y-86784649D03*
%TO.P,R28,1*%
%TO.N,Net-(R26-Pad1)*%
X138648410Y-84959649D03*
%TD*%
%TO.P,R27,2*%
%TO.N,Net-(U6-VIN)*%
X146910000Y-86825000D03*
%TO.P,R27,1*%
%TO.N,Net-(R20-Pad1)*%
X146910000Y-85000000D03*
%TD*%
D13*
%TO.P,U4,8,VDD2_8*%
%TO.N,+3.3V*%
X131387229Y-100375521D03*
%TO.P,U4,7,VOUTP_7*%
%TO.N,Net-(U4-VOUTP)*%
X130117229Y-100375521D03*
%TO.P,U4,6,VOUTN_6*%
%TO.N,Net-(U4-VOUTN)*%
X128847229Y-100375521D03*
%TO.P,U4,5,GND2_5*%
%TO.N,GND*%
X127577229Y-100375521D03*
%TO.P,U4,4,GND1_4*%
%TO.N,Net-(U4-GND1)*%
X127577229Y-89715521D03*
%TO.P,U4,3,SHTDN_3*%
X128847229Y-89715521D03*
%TO.P,U4,2,VIN_2*%
%TO.N,Net-(U4-VIN)*%
X130117229Y-89715521D03*
%TO.P,U4,1,VDD1_1*%
%TO.N,+3.3V*%
X131387229Y-89715521D03*
%TD*%
D12*
%TO.P,R29,2*%
%TO.N,Net-(U4-VIN)*%
X130110000Y-86712500D03*
%TO.P,R29,1*%
%TO.N,Net-(R23-Pad1)*%
X130110000Y-84887500D03*
%TD*%
D13*
%TO.P,U7,8,VDD2_8*%
%TO.N,+3.3V*%
X156484323Y-100362316D03*
%TO.P,U7,7,VOUTP_7*%
%TO.N,Net-(U7-VOUTP)*%
X155214323Y-100362316D03*
%TO.P,U7,6,VOUTN_6*%
%TO.N,Net-(U7-VOUTN)*%
X153944323Y-100362316D03*
%TO.P,U7,5,GND2_5*%
%TO.N,GND*%
X152674323Y-100362316D03*
%TO.P,U7,4,GND1_4*%
%TO.N,GNDREF*%
X152674323Y-89702316D03*
%TO.P,U7,3,SHTDN_3*%
X153944323Y-89702316D03*
%TO.P,U7,2,VIN_2*%
%TO.N,Net-(U7-VIN)*%
X155214323Y-89702316D03*
%TO.P,U7,1,VDD1_1*%
%TO.N,+3.3V*%
X156484323Y-89702316D03*
%TD*%
%TO.P,U6,8,VDD2_8*%
%TO.N,+3.3V*%
X148387229Y-100375521D03*
%TO.P,U6,7,VOUTP_7*%
%TO.N,Net-(U6-VOUTP)*%
X147117229Y-100375521D03*
%TO.P,U6,6,VOUTN_6*%
%TO.N,Net-(U6-VOUTN)*%
X145847229Y-100375521D03*
%TO.P,U6,5,GND2_5*%
%TO.N,GND*%
X144577229Y-100375521D03*
%TO.P,U6,4,GND1_4*%
%TO.N,Net-(U4-GND1)*%
X144577229Y-89715521D03*
%TO.P,U6,3,SHTDN_3*%
X145847229Y-89715521D03*
%TO.P,U6,2,VIN_2*%
%TO.N,Net-(U6-VIN)*%
X147117229Y-89715521D03*
%TO.P,U6,1,VDD1_1*%
%TO.N,+3.3V*%
X148387229Y-89715521D03*
%TD*%
D29*
%TO.P,U2,1,AVDD_1*%
%TO.N,+3.3V*%
X139460000Y-125340400D03*
%TO.P,U2,2,AGND_2*%
%TO.N,GND*%
X140110001Y-125340400D03*
%TO.P,U2,3,AIN0P_3*%
%TO.N,Net-(U2-AIN0P)*%
X140759999Y-125340400D03*
%TO.P,U2,4,AIN0N_4*%
%TO.N,Net-(U2-AIN0N)*%
X141410001Y-125340400D03*
%TO.P,U2,5,AIN1N_5*%
%TO.N,Net-(U2-AIN1N)*%
X142059999Y-125340400D03*
%TO.P,U2,6,AIN1P_6*%
%TO.N,GND*%
X142709998Y-125340400D03*
%TO.P,U2,7,AIN2P_7*%
%TO.N,unconnected-(U2-AIN2P-Pad7)*%
X143359999Y-125340400D03*
%TO.P,U2,8,AIN2N_8*%
%TO.N,unconnected-(U2-AIN2N-Pad8)*%
X144009998Y-125340400D03*
%TO.P,U2,9,AIN3N_9*%
%TO.N,unconnected-(U2-AIN3N-Pad9)*%
X144659999Y-125340400D03*
%TO.P,U2,10,AIN3P_10*%
%TO.N,unconnected-(U2-AIN3P-Pad10)*%
X145309998Y-125340400D03*
%TO.P,U2,11,\u002ASYNC/\u002ARESET_11*%
%TO.N,Net-(U1-\u002ASYNC{slash}\u002ARESET)*%
X145310000Y-119600000D03*
%TO.P,U2,12,\u002ACS_12*%
%TO.N,unconnected-(U2-\u002ACS-Pad12)*%
X144660002Y-119600000D03*
%TO.P,U2,13,\u002ADRDY_13*%
%TO.N,unconnected-(U2-\u002ADRDY-Pad13)*%
X144010001Y-119600000D03*
%TO.P,U2,14,SCLK_14*%
%TO.N,Net-(U1-SCLK)*%
X143360002Y-119600000D03*
%TO.P,U2,15,DOUT_15*%
%TO.N,Net-(U1-DOUT)*%
X142710001Y-119600000D03*
%TO.P,U2,16,DIN_16*%
%TO.N,Net-(U1-DIN)*%
X142060002Y-119600000D03*
%TO.P,U2,17,CLKIN_17*%
%TO.N,Net-(U1-CLKIN)*%
X141410001Y-119600000D03*
%TO.P,U2,18,CAP_18*%
%TO.N,Net-(U2-CAP)*%
X140760002Y-119600000D03*
%TO.P,U2,19,DGND_19*%
%TO.N,GND*%
X140110001Y-119600000D03*
%TO.P,U2,20,DVDD_20*%
%TO.N,+3.3V*%
X139460002Y-119600000D03*
%TD*%
%TO.P,U1,20,DVDD_20*%
%TO.N,+3.3V*%
X145184998Y-116810600D03*
%TO.P,U1,19,DGND_19*%
%TO.N,GND*%
X144534999Y-116810600D03*
%TO.P,U1,18,CAP_18*%
%TO.N,Net-(U1-CAP)*%
X143884998Y-116810600D03*
%TO.P,U1,17,CLKIN_17*%
%TO.N,Net-(U1-CLKIN)*%
X143234999Y-116810600D03*
%TO.P,U1,16,DIN_16*%
%TO.N,Net-(U1-DIN)*%
X142584998Y-116810600D03*
%TO.P,U1,15,DOUT_15*%
%TO.N,Net-(U1-DOUT)*%
X141934999Y-116810600D03*
%TO.P,U1,14,SCLK_14*%
%TO.N,Net-(U1-SCLK)*%
X141284998Y-116810600D03*
%TO.P,U1,13,\u002ADRDY_13*%
%TO.N,unconnected-(U1-\u002ADRDY-Pad13)*%
X140634999Y-116810600D03*
%TO.P,U1,12,\u002ACS_12*%
%TO.N,unconnected-(U1-\u002ACS-Pad12)*%
X139984998Y-116810600D03*
%TO.P,U1,11,\u002ASYNC/\u002ARESET_11*%
%TO.N,Net-(U1-\u002ASYNC{slash}\u002ARESET)*%
X139335000Y-116810600D03*
%TO.P,U1,10,AIN3P_10*%
%TO.N,Net-(U1-AIN3P)*%
X139335002Y-111070200D03*
%TO.P,U1,9,AIN3N_9*%
%TO.N,Net-(U1-AIN3N)*%
X139985001Y-111070200D03*
%TO.P,U1,8,AIN2N_8*%
%TO.N,Net-(U1-AIN2N)*%
X140635002Y-111070200D03*
%TO.P,U1,7,AIN2P_7*%
%TO.N,Net-(U1-AIN2P)*%
X141285001Y-111070200D03*
%TO.P,U1,6,AIN1P_6*%
%TO.N,Net-(U1-AIN1P)*%
X141935002Y-111070200D03*
%TO.P,U1,5,AIN1N_5*%
%TO.N,Net-(U1-AIN1N)*%
X142585001Y-111070200D03*
%TO.P,U1,4,AIN0N_4*%
%TO.N,Net-(U1-AIN0N)*%
X143234999Y-111070200D03*
%TO.P,U1,3,AIN0P_3*%
%TO.N,Net-(U1-AIN0P)*%
X143885001Y-111070200D03*
%TO.P,U1,2,AGND_2*%
%TO.N,GND*%
X144534999Y-111070200D03*
%TO.P,U1,1,AVDD_1*%
%TO.N,+3.3V*%
X145185000Y-111070200D03*
%TD*%
D30*
%TO.P,R41,1*%
%TO.N,Net-(R30-Pad2)*%
X154785000Y-79961985D03*
%TO.P,R41,2*%
%TO.N,unconnected-(R41-Pad2)*%
X157710000Y-79961985D03*
%TD*%
%TO.P,R38,1*%
%TO.N,Net-(R30-Pad2)*%
X154785000Y-76961985D03*
%TO.P,R38,2*%
%TO.N,unconnected-(R38-Pad2)*%
X157710000Y-76961985D03*
%TD*%
D25*
%TO.P,R36,1*%
%TO.N,Net-(R23-Pad1)*%
X129052294Y-79890832D03*
%TO.P,R36,2*%
%TO.N,0.6 VDC RAIL*%
X126127294Y-79890832D03*
%TD*%
D31*
%TO.P,R32,1*%
%TO.N,VAC*%
X154647500Y-62000000D03*
%TO.P,R32,2*%
%TO.N,Net-(R31-Pad1)*%
X154647500Y-64925000D03*
%TD*%
%TO.P,R31,1*%
%TO.N,Net-(R31-Pad1)*%
X154647500Y-66937500D03*
%TO.P,R31,2*%
%TO.N,Net-(R30-Pad1)*%
X154647500Y-69862500D03*
%TD*%
%TO.P,R30,1*%
%TO.N,Net-(R30-Pad1)*%
X154647500Y-71836985D03*
%TO.P,R30,2*%
%TO.N,Net-(R30-Pad2)*%
X154647500Y-74761985D03*
%TD*%
D11*
%TO.P,R26,2*%
%TO.N,Net-(R25-Pad1)*%
X137871867Y-75036990D03*
%TO.P,R26,1*%
%TO.N,Net-(R26-Pad1)*%
X137871867Y-77961990D03*
%TD*%
%TO.P,R25,2*%
%TO.N,Net-(R24-Pad1)*%
X137871867Y-69937500D03*
%TO.P,R25,1*%
%TO.N,Net-(R25-Pad1)*%
X137871867Y-72862500D03*
%TD*%
%TO.P,R24,1*%
%TO.N,Net-(R24-Pad1)*%
X137871867Y-67925000D03*
%TO.P,R24,2*%
%TO.N,\u03D5B*%
X137871867Y-65000000D03*
%TD*%
%TO.P,R23,1*%
%TO.N,Net-(R23-Pad1)*%
X129089794Y-77753332D03*
%TO.P,R23,2*%
%TO.N,Net-(R22-Pad1)*%
X129089794Y-74828332D03*
%TD*%
%TO.P,R22,1*%
%TO.N,Net-(R22-Pad1)*%
X129089794Y-72862500D03*
%TO.P,R22,2*%
%TO.N,Net-(R21-Pad1)*%
X129089794Y-69937500D03*
%TD*%
%TO.P,R21,1*%
%TO.N,Net-(R21-Pad1)*%
X129089794Y-68003848D03*
%TO.P,R21,2*%
%TO.N,\u03D5C*%
X129089794Y-65078848D03*
%TD*%
%TO.P,R18,2*%
%TO.N,\u03D5A*%
X146510000Y-65032501D03*
%TO.P,R18,1*%
%TO.N,Net-(R18-Pad1)*%
X146510000Y-67957501D03*
%TD*%
D28*
%TO.P,R16,2*%
%TO.N,Net-(U4-GND1)*%
X146510000Y-45600000D03*
%TO.P,R16,1*%
%TO.N,\u03D5A*%
X146510000Y-60840000D03*
%TD*%
D23*
%TO.P,R13,2*%
%TO.N,Net-(U1-AIN3P)*%
X130310000Y-102375000D03*
%TO.P,R13,1*%
%TO.N,Net-(U4-VOUTP)*%
X130310000Y-104025000D03*
%TD*%
%TO.P,R12,2*%
%TO.N,Net-(U1-AIN3N)*%
X128710000Y-102375000D03*
%TO.P,R12,1*%
%TO.N,Net-(U4-VOUTN)*%
X128710000Y-104025000D03*
%TD*%
%TO.P,R11,2*%
%TO.N,Net-(U1-AIN2P)*%
X138935000Y-102375000D03*
%TO.P,R11,1*%
%TO.N,Net-(U5-VOUTP)*%
X138935000Y-104025000D03*
%TD*%
D10*
%TO.P,REF\u002A\u002A,1*%
%TO.N,N/C*%
X156400000Y-112800000D03*
D32*
%TO.P,REF\u002A\u002A,2*%
X156400000Y-115340000D03*
%TO.P,REF\u002A\u002A,3*%
X156400000Y-117880000D03*
%TO.P,REF\u002A\u002A,4*%
X156400000Y-120420000D03*
%TO.P,REF\u002A\u002A,5*%
X156400000Y-122960000D03*
%TO.P,REF\u002A\u002A,6*%
%TO.N,+3.3V*%
X156400000Y-125500000D03*
%TO.P,REF\u002A\u002A,7*%
%TO.N,GND*%
X156400000Y-128040000D03*
%TO.P,REF\u002A\u002A,8*%
%TO.N,+5V*%
X156400000Y-130580000D03*
%TD*%
D33*
%TO.N,0.6 VDC RAIL*%
X126127294Y-79890832D03*
X143369594Y-80224479D03*
X134935382Y-80161985D03*
%TO.N,+3.3V*%
X145185000Y-111070200D03*
%TO.N,GND*%
X144534999Y-111070200D03*
X142709998Y-125340400D03*
X140110001Y-125340400D03*
%TO.N,+3.3V*%
X139460000Y-125340400D03*
D34*
X126800000Y-138932000D03*
%TO.N,GND*%
X130610000Y-138932000D03*
%TO.N,-VDC*%
X130610000Y-149600000D03*
%TO.N,+3.3V*%
X126800000Y-149600000D03*
%TO.N,GND*%
X127577229Y-100375521D03*
%TO.N,+3.3V*%
X131387229Y-100375521D03*
%TO.N,GND*%
X136077229Y-100375521D03*
%TO.N,+3.3V*%
X139887229Y-100375521D03*
%TO.N,GND*%
X144577229Y-100375521D03*
%TO.N,+3.3V*%
X148387229Y-100375521D03*
%TO.N,GND*%
X152674323Y-100362316D03*
%TO.N,+3.3V*%
X156484323Y-100362316D03*
D33*
%TO.N,Net-(U1-AIN3P)*%
X139335002Y-111070200D03*
%TO.N,Net-(U1-AIN1N)*%
X142585001Y-111070200D03*
D35*
X145760000Y-105600000D03*
%TO.N,Net-(U1-AIN3P)*%
X130285000Y-105600000D03*
D34*
%TO.N,Net-(U1-CLKIN)*%
X142600000Y-118200000D03*
D33*
%TO.N,+3.3V*%
X139460002Y-119600000D03*
%TO.N,GND*%
X140110001Y-119600000D03*
%TO.N,Net-(U1-CAP)*%
X143884998Y-116810600D03*
%TO.N,GND*%
X144534999Y-116810600D03*
%TO.N,+3.3V*%
X145184998Y-116810600D03*
D34*
%TO.N,Net-(U4-GND1)*%
X128847229Y-89715521D03*
%TO.N,+3.3V*%
X131387229Y-89715521D03*
%TO.N,Net-(U4-GND1)*%
X137347229Y-89715521D03*
%TO.N,+3.3V*%
X139887229Y-89715521D03*
%TO.N,Net-(U4-GND1)*%
X145847229Y-89715521D03*
%TO.N,+3.3V*%
X148387229Y-89715521D03*
%TO.N,GNDREF*%
X153944323Y-89702316D03*
%TO.N,+3.3V*%
X156484323Y-89702316D03*
D33*
%TO.N,Net-(U2-CAP)*%
X140760002Y-119600000D03*
%TD*%
%TO.N,Net-(U7-VIN)*%
D36*
X155214323Y-89702316D02*
X155214323Y-86895677D01*
X155214323Y-86895677D02*
X155310000Y-86800000D01*
%TO.N,Net-(U4-GND1)*%
X136077229Y-89715521D02*
X134852229Y-90940521D01*
X134852229Y-90940521D02*
X129172230Y-90940521D01*
X129172230Y-90940521D02*
X128847229Y-90615520D01*
X128847229Y-90615520D02*
X128847229Y-89715521D01*
X145847229Y-89715521D02*
X144622229Y-90940521D01*
X144622229Y-90940521D02*
X137672230Y-90940521D01*
X137672230Y-90940521D02*
X137347229Y-90615520D01*
X137347229Y-90615520D02*
X137347229Y-89715521D01*
X129102119Y-45595682D02*
X137854627Y-45595682D01*
X146510000Y-45600000D02*
X137858945Y-45600000D01*
X137858945Y-45600000D02*
X137854627Y-45595682D01*
%TO.N,\u03D5C*%
X129089794Y-65078848D02*
X129089794Y-60820206D01*
X129089794Y-60820206D02*
X129110000Y-60800000D01*
%TO.N,Net-(R21-Pad1)*%
X129089794Y-69937500D02*
X129089794Y-68003848D01*
%TO.N,Net-(R22-Pad1)*%
X129089794Y-74828332D02*
X129089794Y-72862500D01*
%TO.N,Net-(R23-Pad1)*%
X129089794Y-77753332D02*
X129089794Y-79853332D01*
X129089794Y-79853332D02*
X129052294Y-79890832D01*
%TO.N,Net-(R24-Pad1)*%
X137871867Y-69937500D02*
X137871867Y-67925000D01*
%TO.N,Net-(R25-Pad1)*%
X137871867Y-75036990D02*
X137871867Y-72862500D01*
%TO.N,Net-(R26-Pad1)*%
X137860382Y-80161985D02*
X137860382Y-77973475D01*
X137860382Y-77973475D02*
X137871867Y-77961990D01*
%TO.N,\u03D5B*%
X137871867Y-65000000D02*
X137871867Y-60819999D01*
%TO.N,\u03D5A*%
X146510000Y-65032501D02*
X146510000Y-60840000D01*
%TO.N,Net-(R20-Pad1)*%
X146510000Y-77706985D02*
X146510000Y-80009073D01*
X146510000Y-80009073D02*
X146294594Y-80224479D01*
%TO.N,Net-(R19-Pad1)*%
X146510000Y-72800000D02*
X146510000Y-74781985D01*
%TO.N,Net-(R18-Pad1)*%
X146510000Y-67957501D02*
X146510000Y-69875000D01*
%TO.N,Net-(R30-Pad2)*%
X154647500Y-74761985D02*
X154647500Y-76824485D01*
X154647500Y-76824485D02*
X154785000Y-76961985D01*
%TO.N,Net-(R30-Pad1)*%
X154647500Y-69862500D02*
X154647500Y-71836985D01*
%TO.N,Net-(R31-Pad1)*%
X154647500Y-64925000D02*
X154647500Y-66937500D01*
%TO.N,VAC*%
X154647500Y-62000000D02*
X154647500Y-60047500D01*
X154647500Y-60047500D02*
X154600000Y-60000000D01*
%TO.N,Net-(R30-Pad2)*%
D37*
X154785000Y-79961985D02*
X154785000Y-76961985D01*
X155310000Y-84975000D02*
X155310000Y-80486985D01*
X155310000Y-80486985D02*
X154785000Y-79961985D01*
%TO.N,Net-(R23-Pad1)*%
X130110000Y-84887500D02*
X130110000Y-80948538D01*
X130110000Y-80948538D02*
X129052294Y-79890832D01*
%TO.N,Net-(U4-VIN)*%
X130117229Y-89715521D02*
X130117229Y-86719729D01*
X130117229Y-86719729D02*
X130110000Y-86712500D01*
%TO.N,Net-(R20-Pad1)*%
X146910000Y-85000000D02*
X146910000Y-80839885D01*
X146910000Y-80839885D02*
X146294594Y-80224479D01*
%TO.N,Net-(U6-VIN)*%
X147117229Y-89715521D02*
X147117229Y-87032229D01*
X147117229Y-87032229D02*
X146910000Y-86825000D01*
%TO.N,Net-(R26-Pad1)*%
X138648410Y-84959649D02*
X138648410Y-80950013D01*
X138648410Y-80950013D02*
X137860382Y-80161985D01*
%TO.N,Net-(U5-VIN)*%
X138617229Y-89715521D02*
X138617229Y-86815830D01*
X138617229Y-86815830D02*
X138648410Y-86784649D01*
%TO.N,+5V*%
X146520000Y-131000000D02*
X146520000Y-131846500D01*
X146520000Y-131846500D02*
X147015100Y-132341600D01*
%TO.N,Net-(U3-VIOUT)*%
X143375100Y-128891600D02*
X143375100Y-132161600D01*
X143375100Y-132161600D02*
X143195100Y-132341600D01*
%TO.N,Net-(U2-AIN1N)*%
X141725100Y-128891600D02*
X142059999Y-128556701D01*
X142059999Y-128556701D02*
X142059999Y-125340400D01*
X140150100Y-128891600D02*
X141725100Y-128891600D01*
%TO.N,Net-(U2-AIN0P)*%
X128060000Y-133900000D02*
X137503800Y-124456200D01*
X137503800Y-124456200D02*
X140659999Y-124456200D01*
X140659999Y-124456200D02*
X140759999Y-124556200D01*
X140759999Y-124556200D02*
X140759999Y-125340400D01*
%TO.N,Net-(U2-AIN0N)*%
X129610000Y-133900000D02*
X137285400Y-126224600D01*
X137285400Y-126224600D02*
X141310001Y-126224600D01*
X141310001Y-126224600D02*
X141410001Y-126124600D01*
X141410001Y-126124600D02*
X141410001Y-125340400D01*
X129610000Y-135475000D02*
X129610000Y-133900000D01*
%TO.N,Net-(U2-AIN0P)*%
X128010000Y-135475000D02*
X128010000Y-133950000D01*
X128010000Y-133950000D02*
X128060000Y-133900000D01*
%TO.N,Net-(U8-OUTP)*%
X128070000Y-138932000D02*
X128070000Y-137185000D01*
X128070000Y-137185000D02*
X128010000Y-137125000D01*
%TO.N,Net-(U8-OUTN)*%
X129340000Y-138932000D02*
X129340000Y-137395000D01*
X129340000Y-137395000D02*
X129610000Y-137125000D01*
%TO.N,unconnected-(R40-Pad1)*%
X126800000Y-157600000D02*
X126800000Y-155310000D01*
X126800000Y-155310000D02*
X127110000Y-155000000D01*
%TO.N,unconnected-(R40-Pad2)*%
X130400000Y-157600000D02*
X130400000Y-155290000D01*
X130400000Y-155290000D02*
X130110000Y-155000000D01*
%TO.N,Net-(U8-INP)*%
X128070000Y-149600000D02*
X128070000Y-152640000D01*
X128070000Y-152640000D02*
X127110000Y-153600000D01*
%TO.N,Net-(U8-INN)*%
X129340000Y-149600000D02*
X129340000Y-152830000D01*
X129340000Y-152830000D02*
X130110000Y-153600000D01*
%TO.N,Net-(U1-AIN3N)*%
X129837843Y-106702843D02*
X137897157Y-106702843D01*
X137897157Y-106702843D02*
X139985001Y-108790687D01*
X128735000Y-105600000D02*
X129837843Y-106702843D01*
X139985001Y-108790687D02*
X139985001Y-111070200D01*
%TO.N,Net-(U1-AIN1P)*%
X147310000Y-105600000D02*
X146535000Y-106375000D01*
X146535000Y-106375000D02*
X145846002Y-106375000D01*
X145846002Y-106375000D02*
X141935002Y-110286000D01*
X141935002Y-110286000D02*
X141935002Y-111070200D01*
%TO.N,Net-(U1-AIN0P)*%
X155310000Y-105600000D02*
X155310000Y-106255685D01*
X155310000Y-106255685D02*
X153165685Y-108400000D01*
X153165685Y-108400000D02*
X145771001Y-108400000D01*
X145771001Y-108400000D02*
X143885001Y-110286000D01*
X143885001Y-110286000D02*
X143885001Y-111070200D01*
%TO.N,Net-(U1-AIN0N)*%
X153760000Y-107240000D02*
X153000000Y-108000000D01*
X153760000Y-105600000D02*
X153760000Y-107240000D01*
X153000000Y-108000000D02*
X145520999Y-108000000D01*
X145520999Y-108000000D02*
X143234999Y-110286000D01*
X143234999Y-110286000D02*
X143234999Y-111070200D01*
%TO.N,Net-(U1-AIN2P)*%
X138910000Y-105600000D02*
X141285001Y-107975001D01*
X141285001Y-107975001D02*
X141285001Y-111070200D01*
%TO.N,Net-(U1-AIN2N)*%
X137360000Y-105600000D02*
X140635002Y-108875002D01*
X140635002Y-108875002D02*
X140635002Y-111070200D01*
%TO.N,Net-(U1-CLKIN)*%
X142600000Y-118200000D02*
X141500000Y-118200000D01*
X141500000Y-118200000D02*
X141410001Y-118289999D01*
X141410001Y-118289999D02*
X141410001Y-119600000D01*
X142600000Y-118200000D02*
X143234999Y-117565001D01*
X143234999Y-117565001D02*
X143234999Y-116810600D01*
%TO.N,Net-(U4-GND1)*%
X128847229Y-89715521D02*
X127577229Y-89715521D01*
X137347229Y-89715521D02*
X136077229Y-89715521D01*
%TO.N,GNDREF*%
X152674323Y-89702316D02*
X153944323Y-89702316D01*
%TD*%
M02*
