%TF.GenerationSoftware,KiCad,Pcbnew,10.0.5*%
%TF.CreationDate,2026-09-24T23:41:05-05:00*%
%TF.ProjectId,master_sense_buses,6d617374-6572-45f7-9365-6e73655f6275,rev?*%
%TF.SameCoordinates,Original*%
%TF.FileFunction,Soldermask,Bot*%
%TF.FilePolarity,Negative*%
%FSLAX46Y46*%
G04 Gerber Fmt 4.6, Leading zero omitted, Abs format (unit mm)*
G04 Created by KiCad (PCBNEW 10.0.5) date 2026-09-24 23:41:05*
%MOMM*%
%LPD*%
G01*
G04 APERTURE LIST*
G04 Aperture macros list*
%AMRoundRect*
0 Rectangle with rounded corners*
0 $1 Rounding radius*
0 $2 $3 $4 $5 $6 $7 $8 $9 X,Y pos of 4 corners*
0 Add a 4 corners polygon primitive as box body*
4,1,4,$2,$3,$4,$5,$6,$7,$8,$9,$2,$3,0*
0 Add four circle primitives for the rounded corners*
1,1,$1+$1,$2,$3*
1,1,$1+$1,$4,$5*
1,1,$1+$1,$6,$7*
1,1,$1+$1,$8,$9*
0 Add four rect primitives between the rounded corners*
20,1,$1+$1,$2,$3,$4,$5,0*
20,1,$1+$1,$4,$5,$6,$7,0*
20,1,$1+$1,$6,$7,$8,$9,0*
20,1,$1+$1,$8,$9,$2,$3,0*%
G04 Aperture macros list end*
%ADD10C,0.010000*%
%ADD11R,1.700000X1.700000*%
%ADD12RoundRect,0.102000X0.750000X0.750000X-0.750000X0.750000X-0.750000X-0.750000X0.750000X-0.750000X0*%
%ADD13C,1.704000*%
%ADD14C,1.004000*%
%ADD15RoundRect,0.100000X0.130000X0.100000X-0.130000X0.100000X-0.130000X-0.100000X0.130000X-0.100000X0*%
%ADD16RoundRect,0.100000X-0.130000X-0.100000X0.130000X-0.100000X0.130000X0.100000X-0.130000X0.100000X0*%
%ADD17RoundRect,0.100000X0.100000X-0.130000X0.100000X0.130000X-0.100000X0.130000X-0.100000X-0.130000X0*%
%ADD18RoundRect,0.200000X-0.275000X0.200000X-0.275000X-0.200000X0.275000X-0.200000X0.275000X0.200000X0*%
%ADD19RoundRect,0.102000X-0.900000X1.000000X-0.900000X-1.000000X0.900000X-1.000000X0.900000X1.000000X0*%
%ADD20RoundRect,0.150000X0.150000X-0.825000X0.150000X0.825000X-0.150000X0.825000X-0.150000X-0.825000X0*%
%ADD21C,2.400000*%
%ADD22C,1.700000*%
G04 APERTURE END LIST*
D10*
%TO.C,U3*%
X148105100Y-156841600D02*
X152105100Y-156841600D01*
X152267100Y-156837600D01*
X152429100Y-156824600D01*
X152590100Y-156803600D01*
X152750100Y-156773600D01*
X152907100Y-156735600D01*
X153063100Y-156689600D01*
X153216100Y-156635600D01*
X153366100Y-156573600D01*
X153512100Y-156503600D01*
X153655100Y-156426600D01*
X153793100Y-156341600D01*
X153927100Y-156249600D01*
X154056100Y-156150600D01*
X154179100Y-156045600D01*
X154297100Y-155933600D01*
X154409100Y-155815600D01*
X154514100Y-155692600D01*
X154613100Y-155563600D01*
X154705100Y-155429600D01*
X154790100Y-155291600D01*
X154867100Y-155148600D01*
X154937100Y-155002600D01*
X154999100Y-154852600D01*
X155053100Y-154699600D01*
X155099100Y-154543600D01*
X155137100Y-154386600D01*
X155167100Y-154226600D01*
X155188100Y-154065600D01*
X155201100Y-153903600D01*
X155205100Y-153741600D01*
X155201100Y-153579600D01*
X155188100Y-153417600D01*
X155167100Y-153256600D01*
X155137100Y-153096600D01*
X155099100Y-152939600D01*
X155053100Y-152783600D01*
X154999100Y-152630600D01*
X154937100Y-152480600D01*
X154867100Y-152334600D01*
X154790100Y-152191600D01*
X154705100Y-152053600D01*
X154613100Y-151919600D01*
X154514100Y-151790600D01*
X154409100Y-151667600D01*
X154297100Y-151549600D01*
X154179100Y-151437600D01*
X154056100Y-151332600D01*
X153927100Y-151233600D01*
X153793100Y-151141600D01*
X153655100Y-151056600D01*
X153512100Y-150979600D01*
X153366100Y-150909600D01*
X153216100Y-150847600D01*
X153063100Y-150793600D01*
X152907100Y-150747600D01*
X152750100Y-150709600D01*
X152590100Y-150679600D01*
X152429100Y-150658600D01*
X152267100Y-150645600D01*
X152105100Y-150641600D01*
X148105100Y-150641600D01*
X148003100Y-150643600D01*
X147901100Y-150648600D01*
X147798100Y-150656600D01*
X147696100Y-150668600D01*
X147594100Y-150684600D01*
X147493100Y-150702600D01*
X147393100Y-150724600D01*
X147293100Y-150749600D01*
X147194100Y-150778600D01*
X147097100Y-150810600D01*
X147000100Y-150845600D01*
X146905100Y-150883600D01*
X146810100Y-150925600D01*
X146718100Y-150969600D01*
X146627100Y-151017600D01*
X146537100Y-151067600D01*
X146449100Y-151121600D01*
X146363100Y-151177600D01*
X146279100Y-151236600D01*
X146197100Y-151298600D01*
X146117100Y-151363600D01*
X146039100Y-151430600D01*
X145964100Y-151500600D01*
X145891100Y-151572600D01*
X145820100Y-151647600D01*
X145752100Y-151724600D01*
X145686100Y-151803600D01*
X145623100Y-151884600D01*
X145563100Y-151968600D01*
X145505100Y-152054600D01*
X145505100Y-155428600D01*
X145563100Y-155514600D01*
X145623100Y-155598600D01*
X145686100Y-155679600D01*
X145752100Y-155758600D01*
X145820100Y-155835600D01*
X145891100Y-155910600D01*
X145964100Y-155982600D01*
X146039100Y-156052600D01*
X146117100Y-156119600D01*
X146197100Y-156184600D01*
X146279100Y-156246600D01*
X146363100Y-156305600D01*
X146449100Y-156361600D01*
X146537100Y-156415600D01*
X146627100Y-156465600D01*
X146718100Y-156513600D01*
X146810100Y-156557600D01*
X146905100Y-156599600D01*
X147000100Y-156637600D01*
X147097100Y-156672600D01*
X147194100Y-156704600D01*
X147293100Y-156733600D01*
X147393100Y-156758600D01*
X147493100Y-156780600D01*
X147594100Y-156798600D01*
X147696100Y-156814600D01*
X147798100Y-156826600D01*
X147901100Y-156834600D01*
X148003100Y-156839600D01*
X148105100Y-156841600D01*
G36*
X152267100Y-150645600D02*
G01*
X152429100Y-150658600D01*
X152590100Y-150679600D01*
X152750100Y-150709600D01*
X152907100Y-150747600D01*
X153063100Y-150793600D01*
X153216100Y-150847600D01*
X153366100Y-150909600D01*
X153512100Y-150979600D01*
X153655100Y-151056600D01*
X153793100Y-151141600D01*
X153927100Y-151233600D01*
X154056100Y-151332600D01*
X154179100Y-151437600D01*
X154297100Y-151549600D01*
X154409100Y-151667600D01*
X154514100Y-151790600D01*
X154613100Y-151919600D01*
X154705100Y-152053600D01*
X154790100Y-152191600D01*
X154867100Y-152334600D01*
X154937100Y-152480600D01*
X154999100Y-152630600D01*
X155053100Y-152783600D01*
X155099100Y-152939600D01*
X155137100Y-153096600D01*
X155167100Y-153256600D01*
X155188100Y-153417600D01*
X155201100Y-153579600D01*
X155205100Y-153741600D01*
X155201100Y-153903600D01*
X155188100Y-154065600D01*
X155167100Y-154226600D01*
X155137100Y-154386600D01*
X155099100Y-154543600D01*
X155053100Y-154699600D01*
X154999100Y-154852600D01*
X154937100Y-155002600D01*
X154867100Y-155148600D01*
X154790100Y-155291600D01*
X154705100Y-155429600D01*
X154613100Y-155563600D01*
X154514100Y-155692600D01*
X154409100Y-155815600D01*
X154297100Y-155933600D01*
X154179100Y-156045600D01*
X154056100Y-156150600D01*
X153927100Y-156249600D01*
X153793100Y-156341600D01*
X153655100Y-156426600D01*
X153512100Y-156503600D01*
X153366100Y-156573600D01*
X153216100Y-156635600D01*
X153063100Y-156689600D01*
X152907100Y-156735600D01*
X152750100Y-156773600D01*
X152590100Y-156803600D01*
X152429100Y-156824600D01*
X152267100Y-156837600D01*
X152105100Y-156841600D01*
X148105100Y-156841600D01*
X148003100Y-156839600D01*
X147901100Y-156834600D01*
X147798100Y-156826600D01*
X147696100Y-156814600D01*
X147594100Y-156798600D01*
X147493100Y-156780600D01*
X147393100Y-156758600D01*
X147293100Y-156733600D01*
X147194100Y-156704600D01*
X147097100Y-156672600D01*
X147000100Y-156637600D01*
X146905100Y-156599600D01*
X146810100Y-156557600D01*
X146718100Y-156513600D01*
X146627100Y-156465600D01*
X146537100Y-156415600D01*
X146449100Y-156361600D01*
X146363100Y-156305600D01*
X146279100Y-156246600D01*
X146197100Y-156184600D01*
X146117100Y-156119600D01*
X146039100Y-156052600D01*
X145964100Y-155982600D01*
X145891100Y-155910600D01*
X145820100Y-155835600D01*
X145752100Y-155758600D01*
X145686100Y-155679600D01*
X145623100Y-155598600D01*
X145563100Y-155514600D01*
X145505100Y-155428600D01*
X145505100Y-152054600D01*
X145563100Y-151968600D01*
X145623100Y-151884600D01*
X145686100Y-151803600D01*
X145752100Y-151724600D01*
X145820100Y-151647600D01*
X145891100Y-151572600D01*
X145964100Y-151500600D01*
X146039100Y-151430600D01*
X146117100Y-151363600D01*
X146197100Y-151298600D01*
X146279100Y-151236600D01*
X146363100Y-151177600D01*
X146449100Y-151121600D01*
X146537100Y-151067600D01*
X146627100Y-151017600D01*
X146718100Y-150969600D01*
X146810100Y-150925600D01*
X146905100Y-150883600D01*
X147000100Y-150845600D01*
X147097100Y-150810600D01*
X147194100Y-150778600D01*
X147293100Y-150749600D01*
X147393100Y-150724600D01*
X147493100Y-150702600D01*
X147594100Y-150684600D01*
X147696100Y-150668600D01*
X147798100Y-150656600D01*
X147901100Y-150648600D01*
X148003100Y-150643600D01*
X148105100Y-150641600D01*
X152105100Y-150641600D01*
X152267100Y-150645600D01*
G37*
X142105100Y-150641600D02*
X138105100Y-150641600D01*
X137943100Y-150645600D01*
X137781100Y-150658600D01*
X137620100Y-150679600D01*
X137460100Y-150709600D01*
X137303100Y-150747600D01*
X137147100Y-150793600D01*
X136994100Y-150847600D01*
X136844100Y-150909600D01*
X136698100Y-150979600D01*
X136555100Y-151056600D01*
X136417100Y-151141600D01*
X136283100Y-151233600D01*
X136154100Y-151332600D01*
X136031100Y-151437600D01*
X135913100Y-151549600D01*
X135801100Y-151667600D01*
X135696100Y-151790600D01*
X135597100Y-151919600D01*
X135505100Y-152053600D01*
X135420100Y-152191600D01*
X135343100Y-152334600D01*
X135273100Y-152480600D01*
X135211100Y-152630600D01*
X135157100Y-152783600D01*
X135111100Y-152939600D01*
X135073100Y-153096600D01*
X135043100Y-153256600D01*
X135022100Y-153417600D01*
X135009100Y-153579600D01*
X135005100Y-153741600D01*
X135009100Y-153903600D01*
X135022100Y-154065600D01*
X135043100Y-154226600D01*
X135073100Y-154386600D01*
X135111100Y-154543600D01*
X135157100Y-154699600D01*
X135211100Y-154852600D01*
X135273100Y-155002600D01*
X135343100Y-155148600D01*
X135420100Y-155291600D01*
X135505100Y-155429600D01*
X135597100Y-155563600D01*
X135696100Y-155692600D01*
X135801100Y-155815600D01*
X135913100Y-155933600D01*
X136031100Y-156045600D01*
X136154100Y-156150600D01*
X136283100Y-156249600D01*
X136417100Y-156341600D01*
X136555100Y-156426600D01*
X136698100Y-156503600D01*
X136844100Y-156573600D01*
X136994100Y-156635600D01*
X137147100Y-156689600D01*
X137303100Y-156735600D01*
X137460100Y-156773600D01*
X137620100Y-156803600D01*
X137781100Y-156824600D01*
X137943100Y-156837600D01*
X138105100Y-156841600D01*
X142105100Y-156841600D01*
X142207100Y-156839600D01*
X142309100Y-156834600D01*
X142412100Y-156826600D01*
X142514100Y-156814600D01*
X142616100Y-156798600D01*
X142717100Y-156780600D01*
X142817100Y-156758600D01*
X142917100Y-156733600D01*
X143016100Y-156704600D01*
X143113100Y-156672600D01*
X143210100Y-156637600D01*
X143305100Y-156599600D01*
X143400100Y-156557600D01*
X143492100Y-156513600D01*
X143583100Y-156465600D01*
X143673100Y-156415600D01*
X143761100Y-156361600D01*
X143847100Y-156305600D01*
X143931100Y-156246600D01*
X144013100Y-156184600D01*
X144093100Y-156119600D01*
X144171100Y-156052600D01*
X144246100Y-155982600D01*
X144319100Y-155910600D01*
X144390100Y-155835600D01*
X144458100Y-155758600D01*
X144524100Y-155679600D01*
X144587100Y-155598600D01*
X144647100Y-155514600D01*
X144705100Y-155428600D01*
X144705100Y-152054600D01*
X144647100Y-151968600D01*
X144587100Y-151884600D01*
X144524100Y-151803600D01*
X144458100Y-151724600D01*
X144390100Y-151647600D01*
X144319100Y-151572600D01*
X144246100Y-151500600D01*
X144171100Y-151430600D01*
X144093100Y-151363600D01*
X144013100Y-151298600D01*
X143931100Y-151236600D01*
X143847100Y-151177600D01*
X143761100Y-151121600D01*
X143673100Y-151067600D01*
X143583100Y-151017600D01*
X143492100Y-150969600D01*
X143400100Y-150925600D01*
X143305100Y-150883600D01*
X143210100Y-150845600D01*
X143113100Y-150810600D01*
X143016100Y-150778600D01*
X142917100Y-150749600D01*
X142817100Y-150724600D01*
X142717100Y-150702600D01*
X142616100Y-150684600D01*
X142514100Y-150668600D01*
X142412100Y-150656600D01*
X142309100Y-150648600D01*
X142207100Y-150643600D01*
X142105100Y-150641600D01*
G36*
X142207100Y-150643600D02*
G01*
X142309100Y-150648600D01*
X142412100Y-150656600D01*
X142514100Y-150668600D01*
X142616100Y-150684600D01*
X142717100Y-150702600D01*
X142817100Y-150724600D01*
X142917100Y-150749600D01*
X143016100Y-150778600D01*
X143113100Y-150810600D01*
X143210100Y-150845600D01*
X143305100Y-150883600D01*
X143400100Y-150925600D01*
X143492100Y-150969600D01*
X143583100Y-151017600D01*
X143673100Y-151067600D01*
X143761100Y-151121600D01*
X143847100Y-151177600D01*
X143931100Y-151236600D01*
X144013100Y-151298600D01*
X144093100Y-151363600D01*
X144171100Y-151430600D01*
X144246100Y-151500600D01*
X144319100Y-151572600D01*
X144390100Y-151647600D01*
X144458100Y-151724600D01*
X144524100Y-151803600D01*
X144587100Y-151884600D01*
X144647100Y-151968600D01*
X144705100Y-152054600D01*
X144705100Y-155428600D01*
X144647100Y-155514600D01*
X144587100Y-155598600D01*
X144524100Y-155679600D01*
X144458100Y-155758600D01*
X144390100Y-155835600D01*
X144319100Y-155910600D01*
X144246100Y-155982600D01*
X144171100Y-156052600D01*
X144093100Y-156119600D01*
X144013100Y-156184600D01*
X143931100Y-156246600D01*
X143847100Y-156305600D01*
X143761100Y-156361600D01*
X143673100Y-156415600D01*
X143583100Y-156465600D01*
X143492100Y-156513600D01*
X143400100Y-156557600D01*
X143305100Y-156599600D01*
X143210100Y-156637600D01*
X143113100Y-156672600D01*
X143016100Y-156704600D01*
X142917100Y-156733600D01*
X142817100Y-156758600D01*
X142717100Y-156780600D01*
X142616100Y-156798600D01*
X142514100Y-156814600D01*
X142412100Y-156826600D01*
X142309100Y-156834600D01*
X142207100Y-156839600D01*
X142105100Y-156841600D01*
X138105100Y-156841600D01*
X137943100Y-156837600D01*
X137781100Y-156824600D01*
X137620100Y-156803600D01*
X137460100Y-156773600D01*
X137303100Y-156735600D01*
X137147100Y-156689600D01*
X136994100Y-156635600D01*
X136844100Y-156573600D01*
X136698100Y-156503600D01*
X136555100Y-156426600D01*
X136417100Y-156341600D01*
X136283100Y-156249600D01*
X136154100Y-156150600D01*
X136031100Y-156045600D01*
X135913100Y-155933600D01*
X135801100Y-155815600D01*
X135696100Y-155692600D01*
X135597100Y-155563600D01*
X135505100Y-155429600D01*
X135420100Y-155291600D01*
X135343100Y-155148600D01*
X135273100Y-155002600D01*
X135211100Y-154852600D01*
X135157100Y-154699600D01*
X135111100Y-154543600D01*
X135073100Y-154386600D01*
X135043100Y-154226600D01*
X135022100Y-154065600D01*
X135009100Y-153903600D01*
X135005100Y-153741600D01*
X135009100Y-153579600D01*
X135022100Y-153417600D01*
X135043100Y-153256600D01*
X135073100Y-153096600D01*
X135111100Y-152939600D01*
X135157100Y-152783600D01*
X135211100Y-152630600D01*
X135273100Y-152480600D01*
X135343100Y-152334600D01*
X135420100Y-152191600D01*
X135505100Y-152053600D01*
X135597100Y-151919600D01*
X135696100Y-151790600D01*
X135801100Y-151667600D01*
X135913100Y-151549600D01*
X136031100Y-151437600D01*
X136154100Y-151332600D01*
X136283100Y-151233600D01*
X136417100Y-151141600D01*
X136555100Y-151056600D01*
X136698100Y-150979600D01*
X136844100Y-150909600D01*
X136994100Y-150847600D01*
X137147100Y-150793600D01*
X137303100Y-150747600D01*
X137460100Y-150709600D01*
X137620100Y-150679600D01*
X137781100Y-150658600D01*
X137943100Y-150645600D01*
X138105100Y-150641600D01*
X142105100Y-150641600D01*
X142207100Y-150643600D01*
G37*
%TD*%
D11*
%TO.C,REF\u002A\u002A*%
X158200000Y-60000000D03*
%TD*%
%TO.C,REF Phase*%
X154600000Y-60000000D03*
%TD*%
%TO.C,REF\u002A\u002A*%
X130400000Y-157600000D03*
%TD*%
%TO.C,REF\u002A\u002A*%
X126800000Y-157600000D03*
%TD*%
D12*
%TO.C,U3*%
X147015100Y-132341600D03*
D13*
X145105100Y-132341600D03*
X143195100Y-132341600D03*
D14*
X142105100Y-151691600D03*
X140775100Y-151691600D03*
X139445100Y-151691600D03*
X138115100Y-151691600D03*
X136900200Y-152083100D03*
X136155500Y-153108100D03*
X136155500Y-154375000D03*
X136900200Y-155400000D03*
X138115100Y-155791600D03*
X139445100Y-155791600D03*
X140775100Y-155791600D03*
X142105100Y-155791600D03*
X143310000Y-155400000D03*
X144054700Y-154375000D03*
X144054700Y-153108100D03*
X143310000Y-152083100D03*
X152105100Y-151691600D03*
X150775100Y-151691600D03*
X149445100Y-151691600D03*
X148115100Y-151691600D03*
X146900200Y-152083100D03*
X146155500Y-153108100D03*
X146155500Y-154375000D03*
X146900200Y-155400000D03*
X148115100Y-155791600D03*
X149445100Y-155791600D03*
X150775100Y-155791600D03*
X152105100Y-155791600D03*
X153310000Y-155400000D03*
X154054700Y-154375000D03*
X154054700Y-153108100D03*
X153310000Y-152083100D03*
%TD*%
D15*
%TO.C,R35*%
X135290000Y-90800000D03*
X135930000Y-90800000D03*
%TD*%
%TO.C,C25*%
X135930000Y-90000000D03*
X135290000Y-90000000D03*
%TD*%
%TO.C,C24*%
X129797334Y-89722184D03*
X130437334Y-89722184D03*
%TD*%
%TO.C,C23*%
X138267767Y-89712732D03*
X138907767Y-89712732D03*
%TD*%
%TO.C,C22*%
X146797608Y-89692748D03*
X147437608Y-89692748D03*
%TD*%
%TO.C,C21*%
X155529500Y-89712732D03*
X154889500Y-89712732D03*
%TD*%
D16*
%TO.C,C20*%
X128329886Y-149595920D03*
X128969886Y-149595920D03*
%TD*%
%TO.C,C19*%
X128342938Y-138962304D03*
X128982938Y-138962304D03*
%TD*%
D15*
%TO.C,C18*%
X154885000Y-100400000D03*
X154245000Y-100400000D03*
%TD*%
%TO.C,C17*%
X146774769Y-100431344D03*
X146134769Y-100431344D03*
%TD*%
%TO.C,C16*%
X137672134Y-100400000D03*
X138312134Y-100400000D03*
%TD*%
%TO.C,C15*%
X129830000Y-100400000D03*
X129190000Y-100400000D03*
%TD*%
D16*
%TO.C,C13*%
X140100237Y-125319623D03*
X139460237Y-125319623D03*
%TD*%
D15*
%TO.C,C12*%
X144515344Y-111068283D03*
X145155344Y-111068283D03*
%TD*%
%TO.C,C5*%
X143903261Y-115565599D03*
X144543261Y-115565599D03*
%TD*%
%TO.C,C4*%
X140095165Y-120785543D03*
X140735165Y-120785543D03*
%TD*%
D16*
%TO.C,C3*%
X145175000Y-116400000D03*
X144535000Y-116400000D03*
%TD*%
D15*
%TO.C,C2*%
X139464926Y-120000000D03*
X140104926Y-120000000D03*
%TD*%
D17*
%TO.C,C1*%
X135400000Y-119520000D03*
X135400000Y-118880000D03*
%TD*%
D18*
%TO.C,R3*%
X134860000Y-114962500D03*
X134860000Y-116612500D03*
%TD*%
D19*
%TO.C,Y1*%
X137520000Y-118200000D03*
X142600000Y-118200000D03*
X142600000Y-114000000D03*
X137520000Y-114000000D03*
%TD*%
D18*
%TO.C,R34*%
X135980000Y-93625000D03*
X135980000Y-91975000D03*
%TD*%
D20*
%TO.C,U9*%
X138720000Y-83050000D03*
X137450000Y-83050000D03*
X136180000Y-83050000D03*
X134910000Y-83050000D03*
X134910000Y-88000000D03*
X136180000Y-88000000D03*
X137450000Y-88000000D03*
X138720000Y-88000000D03*
%TD*%
D21*
%TO.C,R15*%
X129102119Y-45595682D03*
X129102119Y-60835682D03*
%TD*%
%TO.C,R17*%
X137854627Y-60835682D03*
X137854627Y-45595682D03*
%TD*%
%TO.C,R16*%
X146510000Y-45600000D03*
X146510000Y-60840000D03*
%TD*%
D11*
%TO.C,REF\u002A\u002A*%
X156400000Y-112800000D03*
D22*
X156400000Y-115340000D03*
X156400000Y-117880000D03*
X156400000Y-120420000D03*
X156400000Y-122960000D03*
X156400000Y-125500000D03*
X156400000Y-128040000D03*
X156400000Y-130580000D03*
%TD*%
M02*
