%TF.GenerationSoftware,KiCad,Pcbnew,10.0.5*%
%TF.CreationDate,2026-09-24T23:41:05-05:00*%
%TF.ProjectId,master_sense_buses,6d617374-6572-45f7-9365-6e73655f6275,rev?*%
%TF.SameCoordinates,Original*%
%TF.FileFunction,Copper,L2,Bot*%
%TF.FilePolarity,Positive*%
%FSLAX46Y46*%
G04 Gerber Fmt 4.6, Leading zero omitted, Abs format (unit mm)*
G04 Created by KiCad (PCBNEW 10.0.5) date 2026-09-24 23:41:05*
%MOMM*%
%LPD*%
G01*
G04 APERTURE LIST*
G04 Aperture macros list*
%AMRoundRect*
0 Rectangle with rounded corners*
0 $1 Rounding radius*
0 $2 $3 $4 $5 $6 $7 $8 $9 X,Y pos of 4 corners*
0 Add a 4 corners polygon primitive as box body*
4,1,4,$2,$3,$4,$5,$6,$7,$8,$9,$2,$3,0*
0 Add four circle primitives for the rounded corners*
1,1,$1+$1,$2,$3*
1,1,$1+$1,$4,$5*
1,1,$1+$1,$6,$7*
1,1,$1+$1,$8,$9*
0 Add four rect primitives between the rounded corners*
20,1,$1+$1,$2,$3,$4,$5,0*
20,1,$1+$1,$4,$5,$6,$7,0*
20,1,$1+$1,$6,$7,$8,$9,0*
20,1,$1+$1,$8,$9,$2,$3,0*%
%AMFreePoly0*
4,1,245,2.000127,3.004998,2.157127,3.000998,2.157381,3.000985,2.314381,2.988985,2.314671,2.988955,2.469671,2.967955,2.469920,2.967915,2.624920,2.938915,2.625152,2.938865,2.777152,2.902865,2.777428,2.902792,2.928428,2.857792,2.928657,2.857717,3.076657,2.805717,3.076912,2.805620,3.221912,2.745620,3.222160,2.745510,3.364160,2.677510,3.364388,2.677393,3.502388,2.602393,
3.502610,2.602265,3.636610,2.520265,3.636839,2.520116,3.765839,2.431116,3.766045,2.430965,3.891045,2.334965,3.891254,2.334796,4.010254,2.232796,4.010439,2.232630,4.124439,2.124630,4.124630,2.124439,4.232630,2.010439,4.232796,2.010254,4.334796,1.891254,4.334965,1.891045,4.430965,1.766045,4.431116,1.765839,4.520116,1.636839,4.520265,1.636610,4.602265,1.502610,
4.602393,1.502388,4.677393,1.364388,4.677510,1.364160,4.745510,1.222160,4.745620,1.221912,4.805620,1.076912,4.805717,1.076657,4.857717,0.928657,4.857792,0.928428,4.902792,0.777428,4.902865,0.777152,4.938865,0.625152,4.938915,0.624920,4.967915,0.469920,4.967955,0.469671,4.988955,0.314671,4.988985,0.314381,5.000985,0.157381,5.000998,0.157127,5.004998,0.000127,
5.004998,-0.000127,5.000998,-0.157127,5.000985,-0.157381,4.988985,-0.314381,4.988955,-0.314671,4.967955,-0.469671,4.967915,-0.469920,4.938915,-0.624920,4.938865,-0.625152,4.902865,-0.777152,4.902792,-0.777428,4.857792,-0.928428,4.857717,-0.928657,4.805717,-1.076657,4.805620,-1.076912,4.745620,-1.221912,4.745510,-1.222160,4.677510,-1.364160,4.677393,-1.364388,4.602393,-1.502388,
4.602265,-1.502610,4.520265,-1.636610,4.520116,-1.636839,4.431116,-1.765839,4.430965,-1.766045,4.334965,-1.891045,4.334796,-1.891254,4.232796,-2.010254,4.232630,-2.010439,4.124630,-2.124439,4.124439,-2.124630,4.010439,-2.232630,4.010254,-2.232796,3.891254,-2.334796,3.891045,-2.334965,3.766045,-2.430965,3.765839,-2.431116,3.636839,-2.520116,3.636610,-2.520265,3.502610,-2.602265,
3.502388,-2.602393,3.364388,-2.677393,3.364160,-2.677510,3.222160,-2.745510,3.221912,-2.745620,3.076912,-2.805620,3.076657,-2.805717,2.928657,-2.857717,2.928428,-2.857792,2.777428,-2.902792,2.777152,-2.902865,2.625152,-2.938865,2.624920,-2.938915,2.469920,-2.967915,2.469671,-2.967955,2.314671,-2.988955,2.314381,-2.988985,2.157381,-3.000985,2.157127,-3.000998,2.000127,-3.004998,
2.000000,-3.005000,-2.000000,-3.005000,-2.115087,-3.002999,-2.115204,-3.002996,-2.213204,-2.998996,-2.213457,-2.998979,-2.311457,-2.989979,-2.311558,-2.989969,-2.409558,-2.978969,-2.409756,-2.978942,-2.507756,-2.963942,-2.507912,-2.963916,-2.604912,-2.945916,-2.605068,-2.945885,-2.701068,-2.924885,-2.701225,-2.924848,-2.796225,-2.900848,-2.796367,-2.900810,-2.891367,-2.873810,-2.891566,-2.873748,
-2.985566,-2.842748,-2.985733,-2.842690,-3.077733,-2.808690,-3.077822,-2.808656,-3.169822,-2.772656,-3.170031,-2.772569,-3.260031,-2.732569,-3.260175,-2.732502,-3.349175,-2.689502,-3.349297,-2.689441,-3.436297,-2.644441,-3.436475,-2.644344,-3.522475,-2.595344,-3.522595,-2.595274,-3.606595,-2.544274,-3.606727,-2.544191,-3.689727,-2.490191,-3.689901,-2.490072,-3.769901,-2.433072,-3.769992,-2.433006,
-3.848992,-2.374006,-3.849136,-2.373894,-3.926136,-2.311894,-3.926271,-2.311782,-4.000271,-2.247782,-4.000406,-2.247660,-4.072406,-2.180660,-4.072510,-2.180561,-4.143510,-2.110561,-4.143636,-2.110432,-4.210636,-2.039432,-4.210731,-2.039328,-4.276731,-1.965328,-4.276849,-1.965191,-4.339849,-1.889191,-4.339963,-1.889049,-4.399963,-1.811049,-4.400048,-1.810935,-4.458048,-1.730935,-4.458141,-1.730802,
-4.504141,-1.662802,-4.505000,-1.660000,-4.505000,1.660000,-4.504141,1.662802,-4.458141,1.730802,-4.458048,1.730935,-4.400048,1.810935,-4.399963,1.811049,-4.339963,1.889049,-4.339849,1.889191,-4.276849,1.965191,-4.276731,1.965328,-4.210731,2.039328,-4.210636,2.039432,-4.143636,2.110432,-4.143510,2.110561,-4.072510,2.180561,-4.072406,2.180660,-4.000406,2.247660,-4.000271,2.247782,
-3.926271,2.311782,-3.926136,2.311894,-3.849136,2.373894,-3.848992,2.374006,-3.769992,2.433006,-3.769901,2.433072,-3.689901,2.490072,-3.689727,2.490191,-3.606727,2.544191,-3.606595,2.544274,-3.522595,2.595274,-3.522475,2.595344,-3.436475,2.644344,-3.436297,2.644441,-3.349297,2.689441,-3.349175,2.689502,-3.260175,2.732502,-3.260031,2.732569,-3.170031,2.772569,-3.169822,2.772656,
-3.077822,2.808656,-3.077733,2.808690,-2.985733,2.842690,-2.985566,2.842748,-2.891566,2.873748,-2.891367,2.873810,-2.796367,2.900810,-2.796225,2.900848,-2.701225,2.924848,-2.701068,2.924885,-2.605068,2.945885,-2.604912,2.945916,-2.507912,2.963916,-2.507756,2.963942,-2.409756,2.978942,-2.409558,2.978969,-2.311558,2.989969,-2.311457,2.989979,-2.213457,2.998979,-2.213204,2.998996,
-2.115204,3.002996,-2.115087,3.002999,-2.000000,3.005000,2.000000,3.005000,2.000127,3.004998,2.000127,3.004998,$1*%
%AMFreePoly1*
4,1,246,2.000087,3.004999,2.115087,3.002999,2.115204,3.002996,2.213204,2.998996,2.213457,2.998979,2.311457,2.989979,2.311558,2.989969,2.409558,2.978969,2.409756,2.978942,2.507756,2.963942,2.507912,2.963916,2.604912,2.945916,2.605068,2.945885,2.701068,2.924885,2.701225,2.924848,2.796225,2.900848,2.796367,2.900810,2.891367,2.873810,2.891566,2.873748,2.985566,2.842748,
2.985733,2.842690,3.077733,2.808690,3.077822,2.808656,3.169822,2.772656,3.170031,2.772569,3.260031,2.732569,3.260175,2.732502,3.349175,2.689502,3.349297,2.689441,3.436297,2.644441,3.436475,2.644344,3.522475,2.595344,3.522595,2.595274,3.606595,2.544274,3.606727,2.544191,3.689727,2.490191,3.689901,2.490072,3.769901,2.433072,3.769992,2.433006,3.848992,2.374006,
3.849136,2.373894,3.926136,2.311894,3.926271,2.311782,4.000271,2.247782,4.000406,2.247660,4.072406,2.180660,4.072510,2.180561,4.143510,2.110561,4.143636,2.110432,4.210636,2.039432,4.210731,2.039328,4.276731,1.965328,4.276849,1.965191,4.339849,1.889191,4.339963,1.889049,4.399963,1.811049,4.400048,1.810935,4.458048,1.730935,4.458141,1.730802,4.504141,1.662802,
4.505000,1.660000,4.505000,-1.660000,4.504141,-1.662802,4.458141,-1.730802,4.458048,-1.730935,4.400048,-1.810935,4.399963,-1.811049,4.339963,-1.889049,4.339849,-1.889191,4.276849,-1.965191,4.276731,-1.965328,4.210731,-2.039328,4.210636,-2.039432,4.143636,-2.110432,4.143510,-2.110561,4.072510,-2.180561,4.072406,-2.180660,4.000406,-2.247660,4.000271,-2.247782,3.926271,-2.311782,
3.926136,-2.311894,3.849136,-2.373894,3.848992,-2.374006,3.769992,-2.433006,3.769901,-2.433072,3.689901,-2.490072,3.689727,-2.490191,3.606727,-2.544191,3.606595,-2.544274,3.522595,-2.595274,3.522475,-2.595344,3.436475,-2.644344,3.436297,-2.644441,3.349297,-2.689441,3.349175,-2.689502,3.260175,-2.732502,3.260031,-2.732569,3.170031,-2.772569,3.169822,-2.772656,3.077822,-2.808656,
3.077733,-2.808690,2.985733,-2.842690,2.985566,-2.842748,2.891566,-2.873748,2.891367,-2.873810,2.796367,-2.900810,2.796225,-2.900848,2.701225,-2.924848,2.701068,-2.924885,2.605068,-2.945885,2.604912,-2.945916,2.507912,-2.963916,2.507756,-2.963942,2.409756,-2.978942,2.409558,-2.978969,2.311558,-2.989969,2.311457,-2.989979,2.213457,-2.998979,2.213204,-2.998996,2.115204,-3.002996,
2.115087,-3.002999,2.000000,-3.005000,-2.000000,-3.005000,-2.000127,-3.004998,-2.157127,-3.000998,-2.157381,-3.000985,-2.314381,-2.988985,-2.314671,-2.988955,-2.469671,-2.967955,-2.469920,-2.967915,-2.624920,-2.938915,-2.625152,-2.938865,-2.777152,-2.902865,-2.777428,-2.902792,-2.928428,-2.857792,-2.928657,-2.857717,-3.076657,-2.805717,-3.076912,-2.805620,-3.221912,-2.745620,-3.222160,-2.745510,
-3.364160,-2.677510,-3.364388,-2.677393,-3.502388,-2.602393,-3.502610,-2.602265,-3.636610,-2.520265,-3.636839,-2.520116,-3.765839,-2.431116,-3.766045,-2.430965,-3.891045,-2.334965,-3.891254,-2.334796,-4.010254,-2.232796,-4.010439,-2.232630,-4.124439,-2.124630,-4.124630,-2.124439,-4.232630,-2.010439,-4.232796,-2.010254,-4.334796,-1.891254,-4.334965,-1.891045,-4.430965,-1.766045,-4.431116,-1.765839,
-4.520116,-1.636839,-4.520265,-1.636610,-4.602265,-1.502610,-4.602393,-1.502388,-4.677393,-1.364388,-4.677510,-1.364160,-4.745510,-1.222160,-4.745620,-1.221912,-4.805620,-1.076912,-4.805717,-1.076657,-4.857717,-0.928657,-4.857792,-0.928428,-4.902792,-0.777428,-4.902865,-0.777152,-4.938865,-0.625152,-4.938915,-0.624920,-4.967915,-0.469920,-4.967955,-0.469671,-4.988955,-0.314671,-4.988985,-0.314381,
-5.000985,-0.157381,-5.000998,-0.157127,-5.004998,-0.000127,-5.004998,0.000127,-5.000998,0.157127,-5.000985,0.157381,-4.988985,0.314381,-4.988955,0.314671,-4.967955,0.469671,-4.967915,0.469920,-4.938915,0.624920,-4.938865,0.625152,-4.902865,0.777152,-4.902792,0.777428,-4.857792,0.928428,-4.857717,0.928657,-4.805717,1.076657,-4.805620,1.076912,-4.745620,1.221912,-4.745510,1.222160,
-4.677510,1.364160,-4.677393,1.364388,-4.602393,1.502388,-4.602265,1.502610,-4.520265,1.636610,-4.520116,1.636839,-4.431116,1.765839,-4.430965,1.766045,-4.334965,1.891045,-4.334796,1.891254,-4.232796,2.010254,-4.232630,2.010439,-4.124630,2.124439,-4.124439,2.124630,-4.010439,2.232630,-4.010254,2.232796,-3.891254,2.334796,-3.891045,2.334965,-3.766045,2.430965,-3.765839,2.431116,
-3.636839,2.520116,-3.636610,2.520265,-3.502610,2.602265,-3.502388,2.602393,-3.364388,2.677393,-3.364160,2.677510,-3.222160,2.745510,-3.221912,2.745620,-3.076912,2.805620,-3.076657,2.805717,-2.928657,2.857717,-2.928428,2.857792,-2.777428,2.902792,-2.777152,2.902865,-2.625152,2.938865,-2.624920,2.938915,-2.469920,2.967915,-2.469671,2.967955,-2.314671,2.988955,-2.314381,2.988985,
-2.157381,3.000985,-2.157127,3.000998,-2.000127,3.004998,-2.000000,3.005000,2.000000,3.005000,2.000087,3.004999,2.000087,3.004999,$1*%
G04 Aperture macros list end*
%TA.AperFunction,ComponentPad*%
%ADD10R,1.700000X1.700000*%
%TD*%
%TA.AperFunction,ComponentPad*%
%ADD11R,1.500000X1.500000*%
%TD*%
%TA.AperFunction,ComponentPad*%
%ADD12C,1.500000*%
%TD*%
%TA.AperFunction,ComponentPad*%
%ADD13FreePoly0,180.000000*%
%TD*%
%TA.AperFunction,ComponentPad*%
%ADD14C,0.800000*%
%TD*%
%TA.AperFunction,ComponentPad*%
%ADD15FreePoly1,180.000000*%
%TD*%
%TA.AperFunction,SMDPad,CuDef*%
%ADD16RoundRect,0.100000X0.130000X0.100000X-0.130000X0.100000X-0.130000X-0.100000X0.130000X-0.100000X0*%
%TD*%
%TA.AperFunction,SMDPad,CuDef*%
%ADD17RoundRect,0.100000X-0.130000X-0.100000X0.130000X-0.100000X0.130000X0.100000X-0.130000X0.100000X0*%
%TD*%
%TA.AperFunction,SMDPad,CuDef*%
%ADD18RoundRect,0.100000X0.100000X-0.130000X0.100000X0.130000X-0.100000X0.130000X-0.100000X-0.130000X0*%
%TD*%
%TA.AperFunction,SMDPad,CuDef*%
%ADD19RoundRect,0.200000X-0.275000X0.200000X-0.275000X-0.200000X0.275000X-0.200000X0.275000X0.200000X0*%
%TD*%
%TA.AperFunction,SMDPad,CuDef*%
%ADD20R,1.800000X2.000000*%
%TD*%
%TA.AperFunction,SMDPad,CuDef*%
%ADD21RoundRect,0.150000X0.150000X-0.825000X0.150000X0.825000X-0.150000X0.825000X-0.150000X-0.825000X0*%
%TD*%
%TA.AperFunction,ComponentPad*%
%ADD22C,2.400000*%
%TD*%
%TA.AperFunction,ComponentPad*%
%ADD23C,1.700000*%
%TD*%
%TA.AperFunction,ViaPad*%
%ADD24C,0.300000*%
%TD*%
%TA.AperFunction,ViaPad*%
%ADD25C,0.600000*%
%TD*%
%TA.AperFunction,ViaPad*%
%ADD26C,0.400000*%
%TD*%
%TA.AperFunction,Conductor*%
%ADD27C,0.250000*%
%TD*%
%TA.AperFunction,Conductor*%
%ADD28C,0.200000*%
%TD*%
G04 APERTURE END LIST*
D10*
%TO.P,REF\u002A\u002A,1*%
%TO.N,GNDREF*%
X158200000Y-60000000D03*
%TD*%
%TO.P,REF Phase,1*%
%TO.N,VAC*%
X154600000Y-60000000D03*
%TD*%
%TO.P,REF\u002A\u002A,1*%
%TO.N,unconnected-(R40-Pad2)*%
X130400000Y-157600000D03*
%TD*%
%TO.P,REF\u002A\u002A,1*%
%TO.N,unconnected-(R40-Pad1)*%
X126800000Y-157600000D03*
%TD*%
D11*
%TO.P,U3,1,VCC_1*%
%TO.N,+5V*%
X147015100Y-132341600D03*
D12*
%TO.P,U3,2,GND_2*%
%TO.N,GND*%
X145105100Y-132341600D03*
%TO.P,U3,3,VIOUT_3*%
%TO.N,Net-(U3-VIOUT)*%
X143195100Y-132341600D03*
D13*
%TO.P,U3,4,IP+_4*%
%TO.N,+VDC*%
X140105100Y-153741600D03*
D14*
%TO.P,U3,4_1*%
%TO.N,N/C*%
X142105100Y-151691600D03*
%TO.P,U3,4_2*%
X140775100Y-151691600D03*
%TO.P,U3,4_3*%
X139445100Y-151691600D03*
%TO.P,U3,4_4*%
X138115100Y-151691600D03*
%TO.P,U3,4_5*%
X136900200Y-152083100D03*
%TO.P,U3,4_6*%
X136155500Y-153108100D03*
%TO.P,U3,4_7*%
X136155500Y-154375000D03*
%TO.P,U3,4_8*%
X136900200Y-155400000D03*
%TO.P,U3,4_9*%
X138115100Y-155791600D03*
%TO.P,U3,4_10*%
X139445100Y-155791600D03*
%TO.P,U3,4_11*%
X140775100Y-155791600D03*
%TO.P,U3,4_12*%
X142105100Y-155791600D03*
%TO.P,U3,4_13*%
X143310000Y-155400000D03*
%TO.P,U3,4_14*%
X144054700Y-154375000D03*
%TO.P,U3,4_15*%
X144054700Y-153108100D03*
%TO.P,U3,4_16*%
X143310000Y-152083100D03*
D15*
%TO.P,U3,5,IP-_5*%
%TO.N,This just goes to load positive*%
X150105100Y-153741600D03*
D14*
%TO.P,U3,5_1*%
%TO.N,N/C*%
X152105100Y-151691600D03*
%TO.P,U3,5_2*%
X150775100Y-151691600D03*
%TO.P,U3,5_3*%
X149445100Y-151691600D03*
%TO.P,U3,5_4*%
X148115100Y-151691600D03*
%TO.P,U3,5_5*%
X146900200Y-152083100D03*
%TO.P,U3,5_6*%
X146155500Y-153108100D03*
%TO.P,U3,5_7*%
X146155500Y-154375000D03*
%TO.P,U3,5_8*%
X146900200Y-155400000D03*
%TO.P,U3,5_9*%
X148115100Y-155791600D03*
%TO.P,U3,5_10*%
X149445100Y-155791600D03*
%TO.P,U3,5_11*%
X150775100Y-155791600D03*
%TO.P,U3,5_12*%
X152105100Y-155791600D03*
%TO.P,U3,5_13*%
X153310000Y-155400000D03*
%TO.P,U3,5_14*%
X154054700Y-154375000D03*
%TO.P,U3,5_15*%
X154054700Y-153108100D03*
%TO.P,U3,5_16*%
X153310000Y-152083100D03*
%TD*%
D16*
%TO.P,R35,2*%
%TO.N,GND*%
X135290000Y-90800000D03*
%TO.P,R35,1*%
%TO.N,Net-(U9-+)*%
X135930000Y-90800000D03*
%TD*%
%TO.P,C25,1*%
%TO.N,Net-(U9-+)*%
X135930000Y-90000000D03*
%TO.P,C25,2*%
%TO.N,GND*%
X135290000Y-90000000D03*
%TD*%
%TO.P,C24,2*%
%TO.N,Net-(U4-GND1)*%
X129797334Y-89722184D03*
%TO.P,C24,1*%
%TO.N,+3.3V*%
X130437334Y-89722184D03*
%TD*%
%TO.P,C23,2*%
%TO.N,Net-(U4-GND1)*%
X138267767Y-89712732D03*
%TO.P,C23,1*%
%TO.N,+3.3V*%
X138907767Y-89712732D03*
%TD*%
%TO.P,C22,2*%
%TO.N,Net-(U4-GND1)*%
X146797608Y-89692748D03*
%TO.P,C22,1*%
%TO.N,+3.3V*%
X147437608Y-89692748D03*
%TD*%
%TO.P,C21,1*%
%TO.N,+3.3V*%
X155529500Y-89712732D03*
%TO.P,C21,2*%
%TO.N,GNDREF*%
X154889500Y-89712732D03*
%TD*%
D17*
%TO.P,C20,1*%
%TO.N,+3.3V*%
X128329886Y-149595920D03*
%TO.P,C20,2*%
%TO.N,-VDC*%
X128969886Y-149595920D03*
%TD*%
%TO.P,C19,1*%
%TO.N,+3.3V*%
X128342938Y-138962304D03*
%TO.P,C19,2*%
%TO.N,GND*%
X128982938Y-138962304D03*
%TD*%
D16*
%TO.P,C18,1*%
%TO.N,+3.3V*%
X154885000Y-100400000D03*
%TO.P,C18,2*%
%TO.N,GND*%
X154245000Y-100400000D03*
%TD*%
%TO.P,C17,1*%
%TO.N,+3.3V*%
X146774769Y-100431344D03*
%TO.P,C17,2*%
%TO.N,GND*%
X146134769Y-100431344D03*
%TD*%
%TO.P,C16,2*%
%TO.N,GND*%
X137672134Y-100400000D03*
%TO.P,C16,1*%
%TO.N,+3.3V*%
X138312134Y-100400000D03*
%TD*%
%TO.P,C15,1*%
%TO.N,+3.3V*%
X129830000Y-100400000D03*
%TO.P,C15,2*%
%TO.N,GND*%
X129190000Y-100400000D03*
%TD*%
D17*
%TO.P,C13,2*%
%TO.N,GND*%
X140100237Y-125319623D03*
%TO.P,C13,1*%
%TO.N,+3.3V*%
X139460237Y-125319623D03*
%TD*%
D16*
%TO.P,C12,2*%
%TO.N,GND*%
X144515344Y-111068283D03*
%TO.P,C12,1*%
%TO.N,+3.3V*%
X145155344Y-111068283D03*
%TD*%
%TO.P,C5,2*%
%TO.N,Net-(U1-CAP)*%
X143903261Y-115565599D03*
%TO.P,C5,1*%
%TO.N,GND*%
X144543261Y-115565599D03*
%TD*%
%TO.P,C4,2*%
%TO.N,GND*%
X140095165Y-120785543D03*
%TO.P,C4,1*%
%TO.N,Net-(U2-CAP)*%
X140735165Y-120785543D03*
%TD*%
D17*
%TO.P,C3,2*%
%TO.N,+3.3V*%
X145175000Y-116400000D03*
%TO.P,C3,1*%
%TO.N,GND*%
X144535000Y-116400000D03*
%TD*%
D16*
%TO.P,C2,2*%
%TO.N,+3.3V*%
X139464926Y-120000000D03*
%TO.P,C2,1*%
%TO.N,GND*%
X140104926Y-120000000D03*
%TD*%
D18*
%TO.P,C1,1*%
%TO.N,GND*%
X135400000Y-119520000D03*
%TO.P,C1,2*%
%TO.N,+3.3V*%
X135400000Y-118880000D03*
%TD*%
D19*
%TO.P,R3,1*%
%TO.N,Net-(Y1-EOH)*%
X134860000Y-114962500D03*
%TO.P,R3,2*%
%TO.N,+3.3V*%
X134860000Y-116612500D03*
%TD*%
D20*
%TO.P,Y1,4,VCC_4*%
%TO.N,+3.3V*%
X137520000Y-118200000D03*
%TO.P,Y1,3,OUTPUT_3*%
%TO.N,Net-(U1-CLKIN)*%
X142600000Y-118200000D03*
%TO.P,Y1,2,GND_2*%
%TO.N,GND*%
X142600000Y-114000000D03*
%TO.P,Y1,1,EOH_1*%
%TO.N,Net-(Y1-EOH)*%
X137520000Y-114000000D03*
%TD*%
D19*
%TO.P,R34,2*%
%TO.N,+3.3V*%
X135980000Y-93625000D03*
%TO.P,R34,1*%
%TO.N,Net-(U9-+)*%
X135980000Y-91975000D03*
%TD*%
D21*
%TO.P,U9,8,NC_8*%
%TO.N,unconnected-(U9-NC-Pad8)*%
X138720000Y-83050000D03*
%TO.P,U9,7,V+_7*%
%TO.N,+3.3V*%
X137450000Y-83050000D03*
%TO.P,U9,6*%
%TO.N,0.6 VDC RAIL*%
X136180000Y-83050000D03*
%TO.P,U9,5,NC_5*%
%TO.N,unconnected-(U9-NC-Pad5)*%
X134910000Y-83050000D03*
%TO.P,U9,4,V-_4*%
%TO.N,GND*%
X134910000Y-88000000D03*
%TO.P,U9,3,+_3*%
%TO.N,Net-(U9-+)*%
X136180000Y-88000000D03*
%TO.P,U9,2,-_2*%
%TO.N,0.6 VDC RAIL*%
X137450000Y-88000000D03*
%TO.P,U9,1,NC_1*%
%TO.N,unconnected-(U9-NC-Pad1)*%
X138720000Y-88000000D03*
%TD*%
D22*
%TO.P,R15,1*%
%TO.N,Net-(U4-GND1)*%
X129102119Y-45595682D03*
%TO.P,R15,2*%
%TO.N,\u03D5C*%
X129102119Y-60835682D03*
%TD*%
%TO.P,R17,1*%
%TO.N,\u03D5B*%
X137854627Y-60835682D03*
%TO.P,R17,2*%
%TO.N,Net-(U4-GND1)*%
X137854627Y-45595682D03*
%TD*%
%TO.P,R16,2*%
%TO.N,Net-(U4-GND1)*%
X146510000Y-45600000D03*
%TO.P,R16,1*%
%TO.N,\u03D5A*%
X146510000Y-60840000D03*
%TD*%
D10*
%TO.P,REF\u002A\u002A,1*%
%TO.N,N/C*%
X156400000Y-112800000D03*
D23*
%TO.P,REF\u002A\u002A,2*%
X156400000Y-115340000D03*
%TO.P,REF\u002A\u002A,3*%
X156400000Y-117880000D03*
%TO.P,REF\u002A\u002A,4*%
X156400000Y-120420000D03*
%TO.P,REF\u002A\u002A,5*%
X156400000Y-122960000D03*
%TO.P,REF\u002A\u002A,6*%
%TO.N,+3.3V*%
X156400000Y-125500000D03*
%TO.P,REF\u002A\u002A,7*%
%TO.N,GND*%
X156400000Y-128040000D03*
%TO.P,REF\u002A\u002A,8*%
%TO.N,+5V*%
X156400000Y-130580000D03*
%TD*%
D24*
%TO.N,0.6 VDC RAIL*%
X126127294Y-79890832D03*
X143369594Y-80224479D03*
X134935382Y-80161985D03*
%TO.N,+3.3V*%
X145185000Y-111070200D03*
%TO.N,GND*%
X144534999Y-111070200D03*
X142709998Y-125340400D03*
X140110001Y-125340400D03*
%TO.N,+3.3V*%
X139460000Y-125340400D03*
D25*
X126800000Y-138932000D03*
%TO.N,GND*%
X130610000Y-138932000D03*
%TO.N,-VDC*%
X130610000Y-149600000D03*
%TO.N,+3.3V*%
X126800000Y-149600000D03*
%TO.N,GND*%
X127577229Y-100375521D03*
%TO.N,+3.3V*%
X131387229Y-100375521D03*
%TO.N,GND*%
X136077229Y-100375521D03*
%TO.N,+3.3V*%
X139887229Y-100375521D03*
%TO.N,GND*%
X144577229Y-100375521D03*
%TO.N,+3.3V*%
X148387229Y-100375521D03*
%TO.N,GND*%
X152674323Y-100362316D03*
%TO.N,+3.3V*%
X156484323Y-100362316D03*
D24*
%TO.N,Net-(U1-AIN3P)*%
X139335002Y-111070200D03*
%TO.N,Net-(U1-AIN1N)*%
X142585001Y-111070200D03*
D26*
X145760000Y-105600000D03*
%TO.N,Net-(U1-AIN3P)*%
X130285000Y-105600000D03*
D25*
%TO.N,Net-(U1-CLKIN)*%
X142600000Y-118200000D03*
D24*
%TO.N,+3.3V*%
X139460002Y-119600000D03*
%TO.N,GND*%
X140110001Y-119600000D03*
%TO.N,Net-(U1-CAP)*%
X143884998Y-116810600D03*
%TO.N,GND*%
X144534999Y-116810600D03*
%TO.N,+3.3V*%
X145184998Y-116810600D03*
D25*
%TO.N,Net-(U4-GND1)*%
X128847229Y-89715521D03*
%TO.N,+3.3V*%
X131387229Y-89715521D03*
%TO.N,Net-(U4-GND1)*%
X137347229Y-89715521D03*
%TO.N,+3.3V*%
X139887229Y-89715521D03*
%TO.N,Net-(U4-GND1)*%
X145847229Y-89715521D03*
%TO.N,+3.3V*%
X148387229Y-89715521D03*
%TO.N,GNDREF*%
X153944323Y-89702316D03*
%TO.N,+3.3V*%
X156484323Y-89702316D03*
D24*
%TO.N,Net-(U2-CAP)*%
X140760002Y-119600000D03*
%TD*%
%TO.N,GND*%
D27*
X142709998Y-125340400D02*
X142709998Y-125090002D01*
X142709998Y-125090002D02*
X142800000Y-125000000D01*
X140100237Y-124699763D02*
X140200000Y-124600000D01*
X140100237Y-125319623D02*
X140100237Y-124699763D01*
X144534999Y-116810600D02*
X144535000Y-116400000D01*
X144535000Y-116400000D02*
X144535000Y-115573860D01*
X144535000Y-115573860D02*
X144543261Y-115565599D01*
X140104926Y-120000000D02*
X140104926Y-120775782D01*
X140104926Y-120775782D02*
X140095165Y-120785543D01*
X140095165Y-121495165D02*
X140200000Y-121600000D01*
X140095165Y-120785543D02*
X140095165Y-121495165D01*
X144534999Y-110534999D02*
X144400000Y-110400000D01*
X144534999Y-111070200D02*
X144534999Y-110534999D01*
X154245000Y-100400000D02*
X154245000Y-99845000D01*
X154200000Y-99800000D02*
X154245000Y-99845000D01*
%TO.N,GNDREF*%
X158200000Y-60000000D02*
X158200000Y-88870523D01*
X158200000Y-88870523D02*
X156743207Y-90327316D01*
X155304085Y-90327316D02*
X154889500Y-89912731D01*
X156743207Y-90327316D02*
X155304085Y-90327316D01*
X154889500Y-89912731D02*
X154889500Y-89712732D01*
%TO.N,+3.3V*%
X135980000Y-93625000D02*
X135296708Y-93625000D01*
X135296708Y-93625000D02*
X131387229Y-89715521D01*
%TO.N,Net-(U9-+)*%
X135930000Y-90800000D02*
X135930000Y-91925000D01*
X135930000Y-91925000D02*
X135980000Y-91975000D01*
X135930000Y-90000000D02*
X135930000Y-90800000D01*
X136180000Y-88000000D02*
X136180000Y-89750000D01*
X136180000Y-89750000D02*
X135930000Y-90000000D01*
%TO.N,+3.3V*%
X148387229Y-89715521D02*
X147702750Y-90400000D01*
X140571708Y-90400000D02*
X139887229Y-89715521D01*
X147702750Y-90400000D02*
X140571708Y-90400000D01*
%TO.N,0.6 VDC RAIL*%
D28*
X137450000Y-88000000D02*
X137450000Y-87025001D01*
X137450000Y-87025001D02*
X136180000Y-85755001D01*
X136180000Y-85755001D02*
X136180000Y-83050000D01*
X134935382Y-80161985D02*
X134838015Y-80161985D01*
X134838015Y-80161985D02*
X134566862Y-79890832D01*
X134566862Y-79890832D02*
X126127294Y-79890832D01*
X134935382Y-80161985D02*
X135038015Y-80161985D01*
X135038015Y-80161985D02*
X135100509Y-80224479D01*
X135100509Y-80224479D02*
X143369594Y-80224479D01*
X136180000Y-83050000D02*
X136180000Y-81406603D01*
X136180000Y-81406603D02*
X134935382Y-80161985D01*
%TO.N,+3.3V*%
X139460000Y-125340400D02*
X128342938Y-136457462D01*
X128342938Y-136457462D02*
X128342938Y-138962304D01*
X138907767Y-89712732D02*
X138907767Y-89871188D01*
X148387229Y-89715521D02*
X149000434Y-89102316D01*
X149000434Y-89102316D02*
X155302316Y-89102316D01*
X155302316Y-89102316D02*
X155529500Y-89329500D01*
X155529500Y-89329500D02*
X155529500Y-89712732D01*
X147437608Y-89534292D02*
X147437608Y-89692748D01*
X138907767Y-89712732D02*
X139320000Y-89300499D01*
X139320000Y-89300499D02*
X139320000Y-86984448D01*
X139320000Y-86984448D02*
X137450000Y-85114448D01*
X137450000Y-85114448D02*
X137450000Y-83050000D01*
X135980000Y-93625000D02*
X138907767Y-90697233D01*
X138907767Y-90697233D02*
X138907767Y-89712732D01*
X138312134Y-100400000D02*
X138312134Y-95957134D01*
X138312134Y-95957134D02*
X135980000Y-93625000D01*
X138312134Y-100400000D02*
X138312134Y-100200001D01*
X138312134Y-100200001D02*
X137887654Y-99775521D01*
X137887654Y-99775521D02*
X131987229Y-99775521D01*
X131987229Y-99775521D02*
X131387229Y-100375521D01*
X146774769Y-100431344D02*
X146774769Y-100231345D01*
X146318945Y-99775521D02*
X140487229Y-99775521D01*
X146774769Y-100231345D02*
X146318945Y-99775521D01*
X140487229Y-99775521D02*
X139887229Y-100375521D01*
X148387229Y-100375521D02*
X148974024Y-100962316D01*
X154522683Y-100962316D02*
X154885000Y-100599999D01*
X148974024Y-100962316D02*
X154522683Y-100962316D01*
X154885000Y-100599999D02*
X154885000Y-100400000D01*
X145185000Y-111070200D02*
X148387229Y-107867971D01*
X148387229Y-107867971D02*
X148387229Y-100375521D01*
X139460002Y-119600000D02*
X140060002Y-119000000D01*
X140060002Y-119000000D02*
X140900000Y-119000000D01*
X140900000Y-119000000D02*
X141400000Y-119500000D01*
X141400000Y-119500000D02*
X143800000Y-119500000D01*
X143800000Y-119500000D02*
X145175000Y-118125000D01*
X145175000Y-118125000D02*
X145175000Y-116400000D01*
X137520000Y-118200000D02*
X137520000Y-116580000D01*
X137520000Y-116580000D02*
X142531717Y-111568283D01*
X145155344Y-111268282D02*
X145155344Y-111068283D01*
X142531717Y-111568283D02*
X144855343Y-111568283D01*
X144855343Y-111568283D02*
X145155344Y-111268282D01*
%TO.N,Net-(Y1-EOH)*%
X134860000Y-114962500D02*
X136557500Y-114962500D01*
X136557500Y-114962500D02*
X137520000Y-114000000D01*
%TO.N,+3.3V*%
X135400000Y-118880000D02*
X135400000Y-118600000D01*
X135400000Y-118600000D02*
X134860000Y-118060000D01*
X134860000Y-118060000D02*
X134860000Y-116612500D01*
X135400000Y-118880000D02*
X136840000Y-118880000D01*
X136840000Y-118880000D02*
X137520000Y-118200000D01*
X139460002Y-119600000D02*
X138920000Y-119600000D01*
X138920000Y-119600000D02*
X137520000Y-118200000D01*
X139460237Y-125319623D02*
X139460237Y-120004689D01*
X139460237Y-120004689D02*
X139464926Y-120000000D01*
X156400000Y-125500000D02*
X156080377Y-125819623D01*
X156080377Y-125819623D02*
X139760238Y-125819623D01*
X139760238Y-125819623D02*
X139460000Y-125519385D01*
X139460000Y-125519385D02*
X139460000Y-125340400D01*
X128342938Y-138962304D02*
X126830304Y-138962304D01*
X126830304Y-138962304D02*
X126800000Y-138932000D01*
%TO.N,GND*%
X129013242Y-138932000D02*
X128982938Y-138962304D01*
%TO.N,+3.3V*%
X128329886Y-149595920D02*
X126804080Y-149595920D01*
X126804080Y-149595920D02*
X126800000Y-149600000D01*
%TO.N,-VDC*%
X130610000Y-149600000D02*
X128973966Y-149600000D01*
X128973966Y-149600000D02*
X128969886Y-149595920D01*
%TO.N,+5V*%
X147015100Y-132341600D02*
X154638400Y-132341600D01*
X154638400Y-132341600D02*
X156400000Y-130580000D01*
%TO.N,GND*%
X127601708Y-100400000D02*
X127577229Y-100375521D01*
%TO.N,+3.3V*%
X131387229Y-100375521D02*
X129854479Y-100375521D01*
X129854479Y-100375521D02*
X129830000Y-100400000D01*
%TO.N,GND*%
X136101708Y-100400000D02*
X136077229Y-100375521D01*
%TO.N,+3.3V*%
X139887229Y-100375521D02*
X138336613Y-100375521D01*
X138336613Y-100375521D02*
X138312134Y-100400000D01*
%TO.N,GND*%
X144633052Y-100431344D02*
X144577229Y-100375521D01*
%TO.N,+3.3V*%
X148387229Y-100375521D02*
X146830592Y-100375521D01*
X146830592Y-100375521D02*
X146774769Y-100431344D01*
%TO.N,GND*%
X152712007Y-100400000D02*
X152674323Y-100362316D01*
%TO.N,+3.3V*%
X156484323Y-100362316D02*
X154922684Y-100362316D01*
X154922684Y-100362316D02*
X154885000Y-100400000D01*
%TO.N,Net-(U1-AIN3P)*%
X139335002Y-111070200D02*
X139335002Y-109135002D01*
X139335002Y-109135002D02*
X135800000Y-105600000D01*
X135800000Y-105600000D02*
X130285000Y-105600000D01*
%TO.N,Net-(U1-AIN1N)*%
X145760000Y-105600000D02*
X145760000Y-107240000D01*
X142585001Y-110414999D02*
X142585001Y-111070200D01*
X145760000Y-107240000D02*
X142585001Y-110414999D01*
%TO.N,GND*%
X140104926Y-120000000D02*
X140104926Y-119605075D01*
X140104926Y-119605075D02*
X140110001Y-119600000D01*
%TO.N,+3.3V*%
X139464926Y-120000000D02*
X139464926Y-119604924D01*
X139464926Y-119604924D02*
X139460002Y-119600000D01*
%TO.N,Net-(U1-CAP)*%
X143903261Y-115565599D02*
X143903261Y-116792337D01*
X143903261Y-116792337D02*
X143884998Y-116810600D01*
%TO.N,+3.3V*%
X145175000Y-116400000D02*
X145175000Y-116800602D01*
X145175000Y-116800602D02*
X145184998Y-116810600D01*
X147437608Y-89692748D02*
X148364456Y-89692748D01*
X148364456Y-89692748D02*
X148387229Y-89715521D01*
%TO.N,Net-(U4-GND1)*%
X145847229Y-89715521D02*
X146774835Y-89715521D01*
X146774835Y-89715521D02*
X146797608Y-89692748D01*
%TO.N,+3.3V*%
X138907767Y-89712732D02*
X139884440Y-89712732D01*
X139884440Y-89712732D02*
X139887229Y-89715521D01*
%TO.N,Net-(U4-GND1)*%
X137347229Y-89715521D02*
X138264978Y-89715521D01*
X138264978Y-89715521D02*
X138267767Y-89712732D01*
X129797334Y-89722184D02*
X128853892Y-89722184D01*
X128853892Y-89722184D02*
X128847229Y-89715521D01*
%TO.N,+3.3V*%
X131387229Y-89715521D02*
X130443997Y-89715521D01*
X130443997Y-89715521D02*
X130437334Y-89722184D01*
%TO.N,GNDREF*%
X154889500Y-89712732D02*
X153954739Y-89712732D01*
X153954739Y-89712732D02*
X153944323Y-89702316D01*
%TO.N,+3.3V*%
X156484323Y-89702316D02*
X155539916Y-89702316D01*
X155539916Y-89702316D02*
X155529500Y-89712732D01*
%TO.N,Net-(U2-CAP)*%
X140735165Y-119624837D02*
X140760002Y-119600000D01*
X140735165Y-120785543D02*
X140735165Y-119624837D01*
%TO.N,Net-(U4-GND1)*%
D27*
X146797608Y-65997608D02*
X146797608Y-89692748D01*
X137854627Y-57054627D02*
X146797608Y-65997608D01*
X137854627Y-45595682D02*
X137854627Y-57054627D01*
%TD*%
%TA.AperFunction,Conductor*%
%TO.N,GND*%
G36*
X161242539Y-41720185D02*
G01*
X161288294Y-41772989D01*
X161299500Y-41824500D01*
X161299500Y-158975500D01*
X161279815Y-159042539D01*
X161227011Y-159088294D01*
X161175500Y-159099500D01*
X131590103Y-159099500D01*
X131523064Y-159079815D01*
X131477309Y-159027011D01*
X131467365Y-158957853D01*
X131496390Y-158894297D01*
X131515792Y-158876234D01*
X131575240Y-158831730D01*
X131607546Y-158807546D01*
X131693796Y-158692331D01*
X131744091Y-158557483D01*
X131750500Y-158497873D01*
X131750499Y-156702128D01*
X131744091Y-156642517D01*
X131724665Y-156590434D01*
X131693797Y-156507671D01*
X131693793Y-156507664D01*
X131607547Y-156392455D01*
X131607544Y-156392452D01*
X131492335Y-156306206D01*
X131492328Y-156306202D01*
X131357482Y-156255908D01*
X131357483Y-156255908D01*
X131297883Y-156249501D01*
X131297881Y-156249500D01*
X131297873Y-156249500D01*
X131297864Y-156249500D01*
X129502129Y-156249500D01*
X129502123Y-156249501D01*
X129442516Y-156255908D01*
X129307671Y-156306202D01*
X129307664Y-156306206D01*
X129192455Y-156392452D01*
X129192452Y-156392455D01*
X129106206Y-156507664D01*
X129106202Y-156507671D01*
X129055908Y-156642517D01*
X129050837Y-156689689D01*
X129049501Y-156702123D01*
X129049500Y-156702135D01*
X129049500Y-158497870D01*
X129049501Y-158497876D01*
X129055908Y-158557483D01*
X129106202Y-158692328D01*
X129106206Y-158692335D01*
X129192452Y-158807544D01*
X129192455Y-158807547D01*
X129284208Y-158876234D01*
X129326079Y-158932168D01*
X129331063Y-159001859D01*
X129297577Y-159063182D01*
X129236254Y-159096666D01*
X129209897Y-159099500D01*
X127990103Y-159099500D01*
X127923064Y-159079815D01*
X127877309Y-159027011D01*
X127867365Y-158957853D01*
X127896390Y-158894297D01*
X127915792Y-158876234D01*
X127975240Y-158831730D01*
X128007546Y-158807546D01*
X128093796Y-158692331D01*
X128144091Y-158557483D01*
X128150500Y-158497873D01*
X128150499Y-156702128D01*
X128144091Y-156642517D01*
X128124665Y-156590434D01*
X128093797Y-156507671D01*
X128093793Y-156507664D01*
X128007547Y-156392455D01*
X128007544Y-156392452D01*
X127892335Y-156306206D01*
X127892328Y-156306202D01*
X127757482Y-156255908D01*
X127757483Y-156255908D01*
X127697883Y-156249501D01*
X127697881Y-156249500D01*
X127697873Y-156249500D01*
X127697864Y-156249500D01*
X125902129Y-156249500D01*
X125902123Y-156249501D01*
X125842516Y-156255908D01*
X125707671Y-156306202D01*
X125707664Y-156306206D01*
X125592455Y-156392452D01*
X125592452Y-156392455D01*
X125506206Y-156507664D01*
X125506202Y-156507671D01*
X125455908Y-156642517D01*
X125450837Y-156689689D01*
X125449501Y-156702123D01*
X125449500Y-156702135D01*
X125449500Y-158497870D01*
X125449501Y-158497876D01*
X125455908Y-158557483D01*
X125506202Y-158692328D01*
X125506206Y-158692335D01*
X125592452Y-158807544D01*
X125592455Y-158807547D01*
X125684208Y-158876234D01*
X125726079Y-158932168D01*
X125731063Y-159001859D01*
X125697577Y-159063182D01*
X125636254Y-159096666D01*
X125609897Y-159099500D01*
X122424500Y-159099500D01*
X122357461Y-159079815D01*
X122311706Y-159027011D01*
X122300500Y-158975500D01*
X122300500Y-153741347D01*
X134589603Y-153741347D01*
X134589603Y-153741852D01*
X134589766Y-153754714D01*
X134592063Y-153844865D01*
X134593767Y-153911730D01*
X134594266Y-153924744D01*
X134594292Y-153925251D01*
X134595099Y-153937887D01*
X134595102Y-153937925D01*
X134607096Y-154094854D01*
X134608486Y-154110043D01*
X134608540Y-154110548D01*
X134609932Y-154122037D01*
X134610268Y-154124810D01*
X134631268Y-154279810D01*
X134633050Y-154291824D01*
X134633142Y-154292442D01*
X134633216Y-154292902D01*
X134635395Y-154305415D01*
X134664383Y-154460357D01*
X134666604Y-154471533D01*
X134666681Y-154471899D01*
X134669478Y-154484409D01*
X134705480Y-154636421D01*
X134709167Y-154651015D01*
X134709173Y-154651036D01*
X134709321Y-154651587D01*
X134713072Y-154664827D01*
X134713084Y-154664869D01*
X134758054Y-154815771D01*
X134761405Y-154826572D01*
X134761575Y-154827101D01*
X134765737Y-154839456D01*
X134817753Y-154987504D01*
X134822608Y-155000726D01*
X134822620Y-155000757D01*
X134822815Y-155001266D01*
X134827769Y-155013703D01*
X134887769Y-155158703D01*
X134893275Y-155171505D01*
X134893496Y-155172000D01*
X134896095Y-155177619D01*
X134899154Y-155184234D01*
X134967174Y-155326274D01*
X134972949Y-155337944D01*
X134973177Y-155338390D01*
X134979144Y-155349712D01*
X135054159Y-155487741D01*
X135060177Y-155498501D01*
X135060381Y-155498855D01*
X135067387Y-155510660D01*
X135149400Y-155644681D01*
X135157033Y-155656768D01*
X135157293Y-155657167D01*
X135164808Y-155668375D01*
X135253781Y-155797335D01*
X135261229Y-155807842D01*
X135261488Y-155808198D01*
X135261510Y-155808228D01*
X135261525Y-155808248D01*
X135269259Y-155818590D01*
X135365259Y-155943590D01*
X135373469Y-155953994D01*
X135373807Y-155954411D01*
X135382703Y-155965083D01*
X135440511Y-156032526D01*
X135484713Y-156084095D01*
X135493218Y-156093766D01*
X135493574Y-156094160D01*
X135501876Y-156103137D01*
X135609841Y-156217101D01*
X135609864Y-156217125D01*
X135609871Y-156217132D01*
X135619398Y-156226919D01*
X135619781Y-156227302D01*
X135629568Y-156236829D01*
X135629598Y-156236858D01*
X135743562Y-156344823D01*
X135752539Y-156353125D01*
X135752933Y-156353481D01*
X135762604Y-156361986D01*
X135762617Y-156361997D01*
X135881617Y-156463997D01*
X135892289Y-156472893D01*
X135892706Y-156473231D01*
X135903110Y-156481441D01*
X136028110Y-156577441D01*
X136038452Y-156585175D01*
X136038484Y-156585198D01*
X136038501Y-156585211D01*
X136038857Y-156585470D01*
X136049364Y-156592918D01*
X136178324Y-156681891D01*
X136189532Y-156689406D01*
X136189931Y-156689666D01*
X136189953Y-156689680D01*
X136189967Y-156689689D01*
X136202027Y-156697305D01*
X136336027Y-156779305D01*
X136336039Y-156779312D01*
X136347844Y-156786318D01*
X136348198Y-156786522D01*
X136358958Y-156792540D01*
X136414169Y-156822546D01*
X136496942Y-156867531D01*
X136496969Y-156867545D01*
X136496987Y-156867555D01*
X136508309Y-156873522D01*
X136508319Y-156873527D01*
X136508775Y-156873760D01*
X136520453Y-156879539D01*
X136619853Y-156927139D01*
X136662465Y-156947545D01*
X136665476Y-156948937D01*
X136674700Y-156953204D01*
X136675195Y-156953425D01*
X136687997Y-156958931D01*
X136832997Y-157018931D01*
X136845434Y-157023885D01*
X136845943Y-157024080D01*
X136845973Y-157024091D01*
X136859195Y-157028946D01*
X136933219Y-157054954D01*
X137007219Y-157080954D01*
X137007243Y-157080962D01*
X137019598Y-157085124D01*
X137019632Y-157085135D01*
X137019656Y-157085143D01*
X137020115Y-157085291D01*
X137030873Y-157088628D01*
X137030928Y-157088645D01*
X137146619Y-157123122D01*
X137181873Y-157133628D01*
X137195113Y-157137379D01*
X137195664Y-157137527D01*
X137210294Y-157141223D01*
X137362294Y-157177223D01*
X137374764Y-157180010D01*
X137374800Y-157180018D01*
X137375166Y-157180095D01*
X137375205Y-157180102D01*
X137375230Y-157180108D01*
X137384427Y-157181935D01*
X137386342Y-157182316D01*
X137464683Y-157196972D01*
X137541297Y-157211307D01*
X137553769Y-157213479D01*
X137554265Y-157213559D01*
X137566890Y-157215432D01*
X137721890Y-157236432D01*
X137736102Y-157238153D01*
X137736151Y-157238159D01*
X137736656Y-157238213D01*
X137736694Y-157238216D01*
X137736699Y-157238217D01*
X137751813Y-157239601D01*
X137908813Y-157251601D01*
X137921449Y-157252408D01*
X137921956Y-157252434D01*
X137934970Y-157252933D01*
X138091970Y-157256933D01*
X138098898Y-157257062D01*
X138099153Y-157257065D01*
X138105100Y-157257100D01*
X138105117Y-157257100D01*
X142105102Y-157257100D01*
X142105192Y-157257099D01*
X142110910Y-157257067D01*
X142111084Y-157257065D01*
X142114064Y-157257022D01*
X142169828Y-157256052D01*
X142229023Y-157255023D01*
X142229730Y-157255007D01*
X142233231Y-157254932D01*
X142233465Y-157254926D01*
X142236934Y-157254810D01*
X142241045Y-157254674D01*
X142241098Y-157254671D01*
X142241123Y-157254671D01*
X142339123Y-157250671D01*
X142352331Y-157249959D01*
X142352838Y-157249925D01*
X142365244Y-157248940D01*
X142423690Y-157243572D01*
X142463019Y-157239961D01*
X142463097Y-157239953D01*
X142463244Y-157239940D01*
X142467314Y-157239549D01*
X142467514Y-157239529D01*
X142473601Y-157238883D01*
X142571601Y-157227883D01*
X142581941Y-157226615D01*
X142582339Y-157226562D01*
X142592095Y-157225166D01*
X142690095Y-157210166D01*
X142690156Y-157210156D01*
X142690170Y-157210154D01*
X142698231Y-157208853D01*
X142698387Y-157208826D01*
X142698582Y-157208793D01*
X142706155Y-157207447D01*
X142803155Y-157189447D01*
X142810978Y-157187931D01*
X142811050Y-157187916D01*
X142811073Y-157187912D01*
X142811142Y-157187897D01*
X142811290Y-157187868D01*
X142819261Y-157186192D01*
X142915261Y-157165192D01*
X142915298Y-157165183D01*
X142915328Y-157165177D01*
X142918377Y-157164481D01*
X142923895Y-157163224D01*
X142924207Y-157163150D01*
X142931364Y-157161397D01*
X143026364Y-157137397D01*
X143032797Y-157135727D01*
X143033082Y-157135651D01*
X143041029Y-157133462D01*
X143136029Y-157106462D01*
X143138909Y-157105611D01*
X143145903Y-157103547D01*
X143145955Y-157103530D01*
X143145982Y-157103523D01*
X143146380Y-157103401D01*
X143156552Y-157100165D01*
X143250552Y-157069165D01*
X143258907Y-157066328D01*
X143259242Y-157066211D01*
X143267799Y-157063136D01*
X143302727Y-157050227D01*
X143359773Y-157029146D01*
X143361895Y-157028345D01*
X143365852Y-157026855D01*
X143366029Y-157026787D01*
X143366255Y-157026699D01*
X143368892Y-157025677D01*
X143376254Y-157022795D01*
X143460948Y-156989655D01*
X143471405Y-156985428D01*
X143471822Y-156985254D01*
X143482464Y-156980670D01*
X143572464Y-156940670D01*
X143579800Y-156937339D01*
X143580089Y-156937205D01*
X143587359Y-156933764D01*
X143676359Y-156890764D01*
X143682516Y-156887737D01*
X143682760Y-156887615D01*
X143688932Y-156884476D01*
X143775932Y-156839476D01*
X143775963Y-156839460D01*
X143778560Y-156838086D01*
X143784094Y-156835160D01*
X143784451Y-156834967D01*
X143794299Y-156829500D01*
X143880299Y-156780500D01*
X143886907Y-156776669D01*
X143887146Y-156776528D01*
X143892633Y-156773243D01*
X143976633Y-156722243D01*
X143984101Y-156717620D01*
X143984364Y-156717454D01*
X143990224Y-156713699D01*
X144073224Y-156659699D01*
X144081801Y-156653993D01*
X144082151Y-156653755D01*
X144091232Y-156647434D01*
X144171232Y-156590434D01*
X144175760Y-156587169D01*
X144175941Y-156587037D01*
X144180563Y-156583626D01*
X144259563Y-156524626D01*
X144266566Y-156519301D01*
X144266854Y-156519078D01*
X144274401Y-156513118D01*
X144351401Y-156451118D01*
X144357985Y-156445725D01*
X144358255Y-156445500D01*
X144365316Y-156439506D01*
X144439316Y-156375506D01*
X144446804Y-156368899D01*
X144447074Y-156368656D01*
X144453274Y-156362982D01*
X144525274Y-156295982D01*
X144530404Y-156291141D01*
X144530613Y-156290941D01*
X144536019Y-156285689D01*
X144607019Y-156215689D01*
X144613744Y-156208934D01*
X144613996Y-156208676D01*
X144620022Y-156202399D01*
X144687022Y-156131399D01*
X144691780Y-156126286D01*
X144691970Y-156126079D01*
X144696815Y-156120724D01*
X144762815Y-156046724D01*
X144768577Y-156040151D01*
X144768813Y-156039877D01*
X144774973Y-156032587D01*
X144837973Y-155956587D01*
X144844204Y-155948919D01*
X144844431Y-155948634D01*
X144849697Y-155941906D01*
X144909697Y-155863906D01*
X144913640Y-155858712D01*
X144913810Y-155858485D01*
X144918454Y-155852182D01*
X144950436Y-155808068D01*
X144976384Y-155772279D01*
X144976402Y-155772252D01*
X144976454Y-155772182D01*
X144981245Y-155765459D01*
X144981432Y-155765192D01*
X144986080Y-155758439D01*
X145002393Y-155734323D01*
X145056260Y-155689826D01*
X145125633Y-155681514D01*
X145188488Y-155712028D01*
X145207807Y-155734324D01*
X145224110Y-155758425D01*
X145228748Y-155765164D01*
X145228922Y-155765412D01*
X145233815Y-155772279D01*
X145291699Y-155852118D01*
X145296430Y-155858539D01*
X145296580Y-155858740D01*
X145300417Y-155863793D01*
X145300503Y-155863906D01*
X145360503Y-155941906D01*
X145360505Y-155941908D01*
X145365806Y-155948681D01*
X145365996Y-155948919D01*
X145372256Y-155956623D01*
X145435175Y-156032526D01*
X145435227Y-156032587D01*
X145441387Y-156039877D01*
X145441623Y-156040151D01*
X145441655Y-156040187D01*
X145447359Y-156046695D01*
X145513402Y-156120744D01*
X145516972Y-156124689D01*
X145518230Y-156126079D01*
X145518410Y-156126275D01*
X145523201Y-156131424D01*
X145590183Y-156202404D01*
X145596196Y-156208668D01*
X145596440Y-156208918D01*
X145603182Y-156215691D01*
X145674185Y-156285693D01*
X145679627Y-156290980D01*
X145679772Y-156291119D01*
X145682091Y-156293306D01*
X145684926Y-156295982D01*
X145684965Y-156296018D01*
X145756912Y-156362969D01*
X145763108Y-156368640D01*
X145763402Y-156368904D01*
X145770879Y-156375502D01*
X145844920Y-156439537D01*
X145851900Y-156445463D01*
X145852218Y-156445728D01*
X145858797Y-156451117D01*
X145885842Y-156472893D01*
X145929025Y-156507664D01*
X145935798Y-156513117D01*
X145943393Y-156519115D01*
X145943546Y-156519232D01*
X145943634Y-156519301D01*
X145950637Y-156524626D01*
X146021355Y-156577441D01*
X146029660Y-156583643D01*
X146034158Y-156586963D01*
X146034237Y-156587021D01*
X146034259Y-156587037D01*
X146034440Y-156587169D01*
X146038968Y-156590434D01*
X146118968Y-156647434D01*
X146122053Y-156649581D01*
X146128019Y-156653735D01*
X146128404Y-156653997D01*
X146131786Y-156656246D01*
X146136976Y-156659699D01*
X146219976Y-156713699D01*
X146225836Y-156717454D01*
X146226073Y-156717603D01*
X146226091Y-156717615D01*
X146233511Y-156722209D01*
X146317580Y-156773251D01*
X146323101Y-156776556D01*
X146323272Y-156776657D01*
X146329916Y-156780509D01*
X146415888Y-156829493D01*
X146425680Y-156834929D01*
X146425699Y-156834939D01*
X146425749Y-156834967D01*
X146426106Y-156835160D01*
X146428140Y-156836235D01*
X146434236Y-156839460D01*
X146488554Y-156867555D01*
X146521268Y-156884476D01*
X146527440Y-156887615D01*
X146527684Y-156887737D01*
X146533841Y-156890764D01*
X146622841Y-156933764D01*
X146630111Y-156937205D01*
X146630400Y-156937339D01*
X146634576Y-156939235D01*
X146637698Y-156940653D01*
X146637724Y-156940664D01*
X146637736Y-156940670D01*
X146727736Y-156980670D01*
X146738378Y-156985254D01*
X146738795Y-156985428D01*
X146749252Y-156989655D01*
X146800812Y-157009830D01*
X146841307Y-157025677D01*
X146844103Y-157026761D01*
X146844348Y-157026855D01*
X146850426Y-157029146D01*
X146942333Y-157063111D01*
X146942401Y-157063136D01*
X146950958Y-157066211D01*
X146951293Y-157066328D01*
X146959648Y-157069165D01*
X147053648Y-157100165D01*
X147063820Y-157103401D01*
X147064218Y-157103523D01*
X147064296Y-157103547D01*
X147074154Y-157106457D01*
X147074171Y-157106462D01*
X147169171Y-157133462D01*
X147177118Y-157135651D01*
X147177218Y-157135677D01*
X147177241Y-157135684D01*
X147177383Y-157135722D01*
X147183812Y-157137391D01*
X147184370Y-157137532D01*
X147278836Y-157161397D01*
X147285993Y-157163150D01*
X147286305Y-157163224D01*
X147289264Y-157163898D01*
X147294871Y-157165177D01*
X147294925Y-157165188D01*
X147294939Y-157165192D01*
X147390939Y-157186192D01*
X147398910Y-157187868D01*
X147398989Y-157187884D01*
X147398994Y-157187885D01*
X147399126Y-157187912D01*
X147399172Y-157187921D01*
X147399222Y-157187931D01*
X147407045Y-157189447D01*
X147504045Y-157207447D01*
X147511618Y-157208793D01*
X147511730Y-157208812D01*
X147511968Y-157208853D01*
X147520029Y-157210154D01*
X147520061Y-157210158D01*
X147520105Y-157210166D01*
X147618105Y-157225166D01*
X147627861Y-157226562D01*
X147628259Y-157226615D01*
X147638599Y-157227883D01*
X147736599Y-157238883D01*
X147742686Y-157239529D01*
X147742886Y-157239549D01*
X147746956Y-157239940D01*
X147747079Y-157239951D01*
X147747180Y-157239961D01*
X147797234Y-157244557D01*
X147844956Y-157248940D01*
X147857362Y-157249925D01*
X147857869Y-157249959D01*
X147871077Y-157250671D01*
X147969077Y-157254671D01*
X147969096Y-157254671D01*
X147969154Y-157254674D01*
X147973604Y-157254821D01*
X147976735Y-157254926D01*
X147976969Y-157254932D01*
X147980335Y-157255004D01*
X147981176Y-157255023D01*
X148043958Y-157256114D01*
X148096136Y-157257022D01*
X148099116Y-157257065D01*
X148099290Y-157257067D01*
X148105007Y-157257099D01*
X148105098Y-157257100D01*
X148105100Y-157257100D01*
X152105083Y-157257100D01*
X152105100Y-157257100D01*
X152111047Y-157257065D01*
X152111132Y-157257064D01*
X152111156Y-157257064D01*
X152111197Y-157257063D01*
X152111302Y-157257062D01*
X152118230Y-157256933D01*
X152275230Y-157252933D01*
X152288244Y-157252434D01*
X152288751Y-157252408D01*
X152301387Y-157251601D01*
X152458387Y-157239601D01*
X152473501Y-157238217D01*
X152473511Y-157238215D01*
X152473543Y-157238213D01*
X152474048Y-157238159D01*
X152474073Y-157238155D01*
X152474082Y-157238155D01*
X152488310Y-157236432D01*
X152643310Y-157215432D01*
X152655935Y-157213559D01*
X152656431Y-157213479D01*
X152668903Y-157211307D01*
X152770758Y-157192250D01*
X152823857Y-157182316D01*
X152823890Y-157182309D01*
X152823903Y-157182307D01*
X152834970Y-157180108D01*
X152835011Y-157180099D01*
X152835033Y-157180095D01*
X152835399Y-157180018D01*
X152835415Y-157180014D01*
X152835436Y-157180010D01*
X152847906Y-157177223D01*
X152999906Y-157141223D01*
X153014536Y-157137527D01*
X153015087Y-157137379D01*
X153028327Y-157133628D01*
X153120167Y-157106258D01*
X153179271Y-157088645D01*
X153179296Y-157088637D01*
X153179327Y-157088628D01*
X153190085Y-157085291D01*
X153190544Y-157085143D01*
X153190588Y-157085128D01*
X153190601Y-157085124D01*
X153194564Y-157083788D01*
X153202981Y-157080954D01*
X153350981Y-157028954D01*
X153351004Y-157028946D01*
X153359967Y-157025655D01*
X153364257Y-157024080D01*
X153364766Y-157023885D01*
X153377203Y-157018931D01*
X153522203Y-156958931D01*
X153535005Y-156953425D01*
X153535500Y-156953204D01*
X153547747Y-156947539D01*
X153689747Y-156879539D01*
X153701425Y-156873760D01*
X153701881Y-156873527D01*
X153713258Y-156867531D01*
X153851258Y-156792531D01*
X153861945Y-156786554D01*
X153862390Y-156786298D01*
X153874173Y-156779305D01*
X154008173Y-156697305D01*
X154020233Y-156689689D01*
X154020692Y-156689390D01*
X154031843Y-156681913D01*
X154160843Y-156592913D01*
X154171336Y-156585475D01*
X154171748Y-156585175D01*
X154182090Y-156577441D01*
X154307090Y-156481441D01*
X154317494Y-156473231D01*
X154317911Y-156472893D01*
X154328583Y-156463997D01*
X154447583Y-156361997D01*
X154457275Y-156353473D01*
X154457644Y-156353140D01*
X154466632Y-156344829D01*
X154580632Y-156236829D01*
X154590419Y-156227302D01*
X154590802Y-156226919D01*
X154600329Y-156217132D01*
X154708329Y-156103132D01*
X154716640Y-156094144D01*
X154716973Y-156093775D01*
X154725497Y-156084083D01*
X154827497Y-155965083D01*
X154836393Y-155954411D01*
X154836731Y-155953994D01*
X154844941Y-155943590D01*
X154940941Y-155818590D01*
X154948675Y-155808248D01*
X154948975Y-155807836D01*
X154956413Y-155797343D01*
X155045413Y-155668343D01*
X155052890Y-155657192D01*
X155053189Y-155656733D01*
X155060805Y-155644673D01*
X155142805Y-155510673D01*
X155149798Y-155498890D01*
X155150054Y-155498445D01*
X155156031Y-155487758D01*
X155231031Y-155349758D01*
X155237027Y-155338381D01*
X155237260Y-155337925D01*
X155243039Y-155326247D01*
X155311039Y-155184247D01*
X155316704Y-155172000D01*
X155316925Y-155171505D01*
X155322431Y-155158703D01*
X155382431Y-155013703D01*
X155387385Y-155001266D01*
X155387580Y-155000757D01*
X155392454Y-154987481D01*
X155444454Y-154839481D01*
X155448643Y-154827044D01*
X155448791Y-154826585D01*
X155452128Y-154815827D01*
X155497128Y-154664827D01*
X155500879Y-154651587D01*
X155501027Y-154651036D01*
X155504723Y-154636406D01*
X155540723Y-154484406D01*
X155543510Y-154471936D01*
X155543608Y-154471470D01*
X155545807Y-154460403D01*
X155574807Y-154305403D01*
X155576979Y-154292931D01*
X155577059Y-154292435D01*
X155578932Y-154279810D01*
X155599932Y-154124810D01*
X155601655Y-154110582D01*
X155601717Y-154110001D01*
X155603101Y-154094887D01*
X155615101Y-153937887D01*
X155615908Y-153925251D01*
X155615934Y-153924744D01*
X155616433Y-153911730D01*
X155620433Y-153754730D01*
X155620597Y-153741855D01*
X155620597Y-153741345D01*
X155620433Y-153728470D01*
X155616433Y-153571470D01*
X155615934Y-153558456D01*
X155615908Y-153557949D01*
X155615101Y-153545313D01*
X155603101Y-153388313D01*
X155601717Y-153373199D01*
X155601716Y-153373194D01*
X155601713Y-153373156D01*
X155601659Y-153372651D01*
X155601653Y-153372602D01*
X155599932Y-153358390D01*
X155578932Y-153203390D01*
X155577059Y-153190765D01*
X155576979Y-153190269D01*
X155574807Y-153177797D01*
X155560472Y-153101183D01*
X155545816Y-153022842D01*
X155543595Y-153011666D01*
X155543518Y-153011300D01*
X155543510Y-153011264D01*
X155540723Y-152998794D01*
X155504723Y-152846794D01*
X155501027Y-152832164D01*
X155500879Y-152831613D01*
X155497128Y-152818373D01*
X155486622Y-152783119D01*
X155452145Y-152667428D01*
X155452128Y-152667373D01*
X155448791Y-152656615D01*
X155448643Y-152656156D01*
X155448635Y-152656132D01*
X155448624Y-152656098D01*
X155444462Y-152643743D01*
X155392446Y-152495695D01*
X155387591Y-152482473D01*
X155387396Y-152481964D01*
X155387385Y-152481934D01*
X155382431Y-152469497D01*
X155322431Y-152324497D01*
X155316925Y-152311695D01*
X155316704Y-152311200D01*
X155311039Y-152298953D01*
X155243039Y-152156953D01*
X155237260Y-152145275D01*
X155237027Y-152144819D01*
X155231031Y-152133442D01*
X155156031Y-151995442D01*
X155150054Y-151984755D01*
X155150049Y-151984747D01*
X155150022Y-151984698D01*
X155149818Y-151984344D01*
X155142812Y-151972539D01*
X155118917Y-151933491D01*
X155060805Y-151838527D01*
X155053189Y-151826467D01*
X155052890Y-151826008D01*
X155045413Y-151814857D01*
X155045391Y-151814824D01*
X154956418Y-151685864D01*
X154948970Y-151675357D01*
X154948711Y-151675001D01*
X154948698Y-151674984D01*
X154948675Y-151674952D01*
X154940941Y-151664610D01*
X154844941Y-151539610D01*
X154836731Y-151529206D01*
X154836393Y-151528789D01*
X154827497Y-151518117D01*
X154725497Y-151399117D01*
X154725486Y-151399104D01*
X154716981Y-151389433D01*
X154716625Y-151389039D01*
X154708323Y-151380062D01*
X154686393Y-151356914D01*
X154608096Y-151274266D01*
X154600358Y-151266098D01*
X154600329Y-151266068D01*
X154590802Y-151256281D01*
X154590419Y-151255898D01*
X154580632Y-151246371D01*
X154580625Y-151246364D01*
X154580601Y-151246341D01*
X154466637Y-151138376D01*
X154457660Y-151130074D01*
X154457266Y-151129718D01*
X154447595Y-151121213D01*
X154407916Y-151087203D01*
X154328583Y-151019203D01*
X154317911Y-151010307D01*
X154317494Y-151009969D01*
X154317487Y-151009963D01*
X154311974Y-151005613D01*
X154307090Y-151001759D01*
X154182090Y-150905759D01*
X154171748Y-150898025D01*
X154171728Y-150898010D01*
X154171698Y-150897988D01*
X154171342Y-150897729D01*
X154160835Y-150890281D01*
X154031875Y-150801308D01*
X154020667Y-150793793D01*
X154020268Y-150793533D01*
X154008181Y-150785900D01*
X153975246Y-150765746D01*
X153884079Y-150709957D01*
X153874160Y-150703887D01*
X153862355Y-150696881D01*
X153862001Y-150696677D01*
X153851241Y-150690659D01*
X153713212Y-150615644D01*
X153701890Y-150609677D01*
X153701444Y-150609449D01*
X153689774Y-150603674D01*
X153547734Y-150535654D01*
X153541119Y-150532595D01*
X153535500Y-150529996D01*
X153535005Y-150529775D01*
X153522203Y-150524269D01*
X153458169Y-150497772D01*
X153377216Y-150464274D01*
X153372989Y-150462590D01*
X153364766Y-150459315D01*
X153364257Y-150459120D01*
X153364226Y-150459108D01*
X153351004Y-150454253D01*
X153202956Y-150402237D01*
X153190601Y-150398075D01*
X153190249Y-150397962D01*
X153190085Y-150397909D01*
X153189542Y-150397740D01*
X153179271Y-150394554D01*
X153028369Y-150349584D01*
X153028327Y-150349572D01*
X153015087Y-150345821D01*
X153014908Y-150345772D01*
X153014515Y-150345667D01*
X152999921Y-150341980D01*
X152898704Y-150318008D01*
X152847906Y-150305977D01*
X152844020Y-150305108D01*
X152835399Y-150303181D01*
X152835033Y-150303104D01*
X152823857Y-150300883D01*
X152668915Y-150271895D01*
X152656402Y-150269716D01*
X152655942Y-150269642D01*
X152655324Y-150269550D01*
X152643310Y-150267768D01*
X152571464Y-150258034D01*
X152488333Y-150246771D01*
X152488324Y-150246770D01*
X152488310Y-150246768D01*
X152485537Y-150246432D01*
X152474048Y-150245040D01*
X152473543Y-150244986D01*
X152458354Y-150243596D01*
X152327579Y-150233601D01*
X152301387Y-150231599D01*
X152288751Y-150230792D01*
X152288244Y-150230766D01*
X152275230Y-150230267D01*
X152161765Y-150227376D01*
X152118237Y-150226267D01*
X152116450Y-150226233D01*
X152111302Y-150226138D01*
X152111246Y-150226137D01*
X152111120Y-150226135D01*
X152106223Y-150226106D01*
X152105100Y-150226100D01*
X148105100Y-150226100D01*
X148105098Y-150226100D01*
X148099241Y-150226133D01*
X148098553Y-150226143D01*
X148096136Y-150226178D01*
X148095978Y-150226180D01*
X147981176Y-150228176D01*
X147977040Y-150228266D01*
X147976684Y-150228275D01*
X147969154Y-150228525D01*
X147871072Y-150232529D01*
X147865604Y-150232824D01*
X147857869Y-150233241D01*
X147857839Y-150233242D01*
X147857839Y-150233243D01*
X147857384Y-150233273D01*
X147844906Y-150234264D01*
X147747180Y-150243238D01*
X147742789Y-150243660D01*
X147742766Y-150243662D01*
X147736560Y-150244321D01*
X147638642Y-150255312D01*
X147638625Y-150255314D01*
X147638599Y-150255317D01*
X147632729Y-150256036D01*
X147628241Y-150256587D01*
X147627880Y-150256635D01*
X147618127Y-150258030D01*
X147520029Y-150273045D01*
X147511968Y-150274346D01*
X147511730Y-150274387D01*
X147504045Y-150275753D01*
X147407044Y-150293753D01*
X147399126Y-150295287D01*
X147398994Y-150295314D01*
X147390942Y-150297007D01*
X147294871Y-150318022D01*
X147286293Y-150319978D01*
X147285994Y-150320049D01*
X147278863Y-150321796D01*
X147183812Y-150345808D01*
X147177383Y-150347477D01*
X147177241Y-150347515D01*
X147169126Y-150349750D01*
X147074154Y-150376742D01*
X147064296Y-150379652D01*
X147063832Y-150379795D01*
X147059747Y-150381094D01*
X147053648Y-150383035D01*
X147018665Y-150394572D01*
X146959655Y-150414032D01*
X146951250Y-150416886D01*
X146950973Y-150416983D01*
X146942333Y-150420088D01*
X146850426Y-150454053D01*
X146844361Y-150456340D01*
X146844103Y-150456438D01*
X146841307Y-150457522D01*
X146749274Y-150493536D01*
X146738794Y-150497772D01*
X146738404Y-150497935D01*
X146727728Y-150502533D01*
X146637698Y-150542546D01*
X146630458Y-150545834D01*
X146630084Y-150546007D01*
X146622800Y-150549455D01*
X146533884Y-150592415D01*
X146527665Y-150595472D01*
X146527468Y-150595570D01*
X146521239Y-150598738D01*
X146434236Y-150643739D01*
X146426203Y-150647988D01*
X146426135Y-150648024D01*
X146426106Y-150648040D01*
X146425893Y-150648155D01*
X146425680Y-150648270D01*
X146415888Y-150653706D01*
X146329916Y-150702690D01*
X146323272Y-150706542D01*
X146323101Y-150706643D01*
X146317580Y-150709948D01*
X146233511Y-150760990D01*
X146226091Y-150765584D01*
X146225897Y-150765707D01*
X146219958Y-150769512D01*
X146183038Y-150793533D01*
X146136976Y-150823501D01*
X146136955Y-150823515D01*
X146128404Y-150829202D01*
X146128019Y-150829464D01*
X146119006Y-150835739D01*
X146038996Y-150892745D01*
X146034411Y-150896051D01*
X146034182Y-150896219D01*
X146029660Y-150899556D01*
X145950658Y-150958557D01*
X145943602Y-150963923D01*
X145943393Y-150964084D01*
X145935798Y-150970082D01*
X145858797Y-151032082D01*
X145852218Y-151037471D01*
X145851900Y-151037736D01*
X145844920Y-151043662D01*
X145770879Y-151107697D01*
X145763402Y-151114295D01*
X145763108Y-151114559D01*
X145756912Y-151120230D01*
X145684965Y-151187181D01*
X145679772Y-151192080D01*
X145679627Y-151192219D01*
X145674185Y-151197506D01*
X145603182Y-151267508D01*
X145596440Y-151274281D01*
X145596196Y-151274531D01*
X145590183Y-151280795D01*
X145523201Y-151351775D01*
X145518410Y-151356924D01*
X145518215Y-151357137D01*
X145513402Y-151362455D01*
X145447359Y-151436504D01*
X145441655Y-151443012D01*
X145441389Y-151443320D01*
X145435175Y-151450673D01*
X145372256Y-151526576D01*
X145365996Y-151534280D01*
X145365806Y-151534518D01*
X145360505Y-151541291D01*
X145300417Y-151619406D01*
X145296580Y-151624459D01*
X145296430Y-151624660D01*
X145291699Y-151631081D01*
X145233815Y-151710920D01*
X145228922Y-151717787D01*
X145228748Y-151718035D01*
X145224131Y-151724744D01*
X145207803Y-151748880D01*
X145153934Y-151793376D01*
X145084560Y-151801684D01*
X145021707Y-151771167D01*
X145002394Y-151748877D01*
X144986080Y-151724761D01*
X144981432Y-151718008D01*
X144981245Y-151717741D01*
X144976454Y-151711018D01*
X144976444Y-151711004D01*
X144976384Y-151710920D01*
X144918500Y-151631081D01*
X144913769Y-151624660D01*
X144913619Y-151624459D01*
X144909782Y-151619406D01*
X144909697Y-151619294D01*
X144849697Y-151541294D01*
X144844431Y-151534566D01*
X144844204Y-151534281D01*
X144837973Y-151526613D01*
X144837943Y-151526576D01*
X144775024Y-151450673D01*
X144768810Y-151443320D01*
X144768577Y-151443049D01*
X144762815Y-151436476D01*
X144729495Y-151399117D01*
X144696797Y-151362455D01*
X144691984Y-151357137D01*
X144691970Y-151357121D01*
X144691780Y-151356914D01*
X144687022Y-151351801D01*
X144686998Y-151351775D01*
X144620016Y-151280795D01*
X144614003Y-151274531D01*
X144613759Y-151274281D01*
X144607017Y-151267508D01*
X144536014Y-151197506D01*
X144530572Y-151192219D01*
X144530427Y-151192080D01*
X144527906Y-151189701D01*
X144525274Y-151187218D01*
X144463866Y-151130074D01*
X144453287Y-151120230D01*
X144447091Y-151114559D01*
X144446797Y-151114295D01*
X144439320Y-151107697D01*
X144365279Y-151043662D01*
X144358299Y-151037736D01*
X144357981Y-151037471D01*
X144351402Y-151032082D01*
X144274401Y-150970082D01*
X144266806Y-150964084D01*
X144266597Y-150963923D01*
X144266596Y-150963922D01*
X144266566Y-150963899D01*
X144259563Y-150958574D01*
X144259541Y-150958557D01*
X144180539Y-150899556D01*
X144176018Y-150896219D01*
X144175788Y-150896051D01*
X144171203Y-150892745D01*
X144147200Y-150875643D01*
X144091232Y-150835766D01*
X144090200Y-150835048D01*
X144082180Y-150829464D01*
X144081795Y-150829202D01*
X144076731Y-150825834D01*
X144073224Y-150823501D01*
X143990224Y-150769501D01*
X143984364Y-150765746D01*
X143984255Y-150765677D01*
X143984108Y-150765584D01*
X143976688Y-150760990D01*
X143892619Y-150709948D01*
X143887098Y-150706643D01*
X143886927Y-150706542D01*
X143880283Y-150702690D01*
X143794311Y-150653706D01*
X143784519Y-150648270D01*
X143784471Y-150648244D01*
X143784451Y-150648233D01*
X143784094Y-150648040D01*
X143783996Y-150647988D01*
X143775963Y-150643739D01*
X143688960Y-150598738D01*
X143682731Y-150595570D01*
X143682534Y-150595472D01*
X143682516Y-150595463D01*
X143676359Y-150592436D01*
X143636986Y-150573413D01*
X143587399Y-150549455D01*
X143580115Y-150546007D01*
X143580064Y-150545983D01*
X143579800Y-150545861D01*
X143579741Y-150545834D01*
X143572501Y-150542546D01*
X143482471Y-150502533D01*
X143482219Y-150502424D01*
X143471822Y-150497946D01*
X143471405Y-150497772D01*
X143460948Y-150493545D01*
X143460925Y-150493536D01*
X143368892Y-150457522D01*
X143366096Y-150456438D01*
X143365839Y-150456340D01*
X143359773Y-150454053D01*
X143267866Y-150420088D01*
X143259226Y-150416983D01*
X143258949Y-150416886D01*
X143250544Y-150414032D01*
X143223681Y-150405173D01*
X143156552Y-150383035D01*
X143146380Y-150379799D01*
X143146367Y-150379795D01*
X143145903Y-150379652D01*
X143136045Y-150376742D01*
X143041073Y-150349750D01*
X143037545Y-150348778D01*
X143033082Y-150347549D01*
X143033064Y-150347544D01*
X143032958Y-150347515D01*
X143032816Y-150347477D01*
X143026387Y-150345808D01*
X142931336Y-150321796D01*
X142924205Y-150320049D01*
X142923906Y-150319978D01*
X142915328Y-150318022D01*
X142819257Y-150297007D01*
X142811205Y-150295314D01*
X142811073Y-150295287D01*
X142803155Y-150293753D01*
X142734247Y-150280966D01*
X142706155Y-150275753D01*
X142698582Y-150274407D01*
X142698571Y-150274405D01*
X142698469Y-150274387D01*
X142698231Y-150274346D01*
X142690170Y-150273045D01*
X142592072Y-150258030D01*
X142582319Y-150256635D01*
X142581958Y-150256587D01*
X142580124Y-150256362D01*
X142571601Y-150255317D01*
X142571562Y-150255312D01*
X142571557Y-150255312D01*
X142473639Y-150244321D01*
X142467433Y-150243662D01*
X142467410Y-150243660D01*
X142463019Y-150243238D01*
X142365293Y-150234264D01*
X142365252Y-150234260D01*
X142365244Y-150234260D01*
X142360470Y-150233880D01*
X142352815Y-150233273D01*
X142352409Y-150233246D01*
X142352331Y-150233241D01*
X142343501Y-150232765D01*
X142339127Y-150232529D01*
X142241045Y-150228525D01*
X142233515Y-150228275D01*
X142233159Y-150228266D01*
X142229023Y-150228176D01*
X142114221Y-150226180D01*
X142114064Y-150226178D01*
X142111605Y-150226142D01*
X142110958Y-150226133D01*
X142105102Y-150226100D01*
X142105100Y-150226100D01*
X138105100Y-150226100D01*
X138103356Y-150226110D01*
X138099112Y-150226135D01*
X138099043Y-150226135D01*
X138091962Y-150226267D01*
X138042214Y-150227534D01*
X137934970Y-150230267D01*
X137921956Y-150230766D01*
X137921449Y-150230792D01*
X137908813Y-150231599D01*
X137908774Y-150231602D01*
X137751845Y-150243596D01*
X137736656Y-150244986D01*
X137736151Y-150245040D01*
X137723084Y-150246623D01*
X137721890Y-150246768D01*
X137721883Y-150246768D01*
X137721866Y-150246771D01*
X137566948Y-150267760D01*
X137566936Y-150267761D01*
X137566890Y-150267768D01*
X137557252Y-150269197D01*
X137554257Y-150269642D01*
X137553797Y-150269716D01*
X137541284Y-150271895D01*
X137386342Y-150300883D01*
X137375166Y-150303104D01*
X137374800Y-150303181D01*
X137362290Y-150305978D01*
X137210278Y-150341980D01*
X137195684Y-150345667D01*
X137195146Y-150345812D01*
X137195136Y-150345814D01*
X137195113Y-150345821D01*
X137189282Y-150347473D01*
X137181830Y-150349584D01*
X137030928Y-150394554D01*
X137020127Y-150397905D01*
X137019598Y-150398075D01*
X137007243Y-150402237D01*
X136859195Y-150454253D01*
X136845973Y-150459108D01*
X136845464Y-150459303D01*
X136832983Y-150464274D01*
X136687982Y-150524275D01*
X136675243Y-150529754D01*
X136675221Y-150529763D01*
X136675195Y-150529775D01*
X136674700Y-150529996D01*
X136672180Y-150531161D01*
X136662465Y-150535654D01*
X136520425Y-150603674D01*
X136508755Y-150609449D01*
X136508309Y-150609677D01*
X136496987Y-150615644D01*
X136358958Y-150690659D01*
X136348198Y-150696677D01*
X136347844Y-150696881D01*
X136336039Y-150703887D01*
X136202018Y-150785900D01*
X136189931Y-150793533D01*
X136189532Y-150793793D01*
X136178324Y-150801308D01*
X136049364Y-150890281D01*
X136038857Y-150897729D01*
X136038501Y-150897988D01*
X136028104Y-150905763D01*
X135903107Y-151001761D01*
X135892712Y-151009963D01*
X135892277Y-151010316D01*
X135881640Y-151019183D01*
X135762604Y-151121213D01*
X135752933Y-151129718D01*
X135752539Y-151130074D01*
X135743562Y-151138376D01*
X135629598Y-151246341D01*
X135619753Y-151255925D01*
X135619425Y-151256253D01*
X135609841Y-151266098D01*
X135501876Y-151380062D01*
X135493574Y-151389039D01*
X135493218Y-151389433D01*
X135484713Y-151399104D01*
X135382683Y-151518140D01*
X135373816Y-151528777D01*
X135373463Y-151529212D01*
X135365261Y-151539607D01*
X135269263Y-151664604D01*
X135261488Y-151675001D01*
X135261229Y-151675357D01*
X135253781Y-151685864D01*
X135164808Y-151814824D01*
X135157293Y-151826032D01*
X135157033Y-151826431D01*
X135149400Y-151838518D01*
X135067387Y-151972539D01*
X135060381Y-151984344D01*
X135060177Y-151984698D01*
X135054159Y-151995458D01*
X134979144Y-152133487D01*
X134973177Y-152144809D01*
X134972949Y-152145255D01*
X134967174Y-152156925D01*
X134899154Y-152298965D01*
X134894661Y-152308680D01*
X134893496Y-152311200D01*
X134893275Y-152311695D01*
X134893254Y-152311743D01*
X134887775Y-152324482D01*
X134827774Y-152469483D01*
X134822803Y-152481964D01*
X134822608Y-152482473D01*
X134817753Y-152495695D01*
X134765737Y-152643743D01*
X134761575Y-152656098D01*
X134761405Y-152656627D01*
X134758054Y-152667428D01*
X134713084Y-152818330D01*
X134709312Y-152831646D01*
X134709167Y-152832184D01*
X134705480Y-152846778D01*
X134669478Y-152998790D01*
X134666681Y-153011300D01*
X134666604Y-153011666D01*
X134664383Y-153022842D01*
X134635395Y-153177784D01*
X134635393Y-153177797D01*
X134633221Y-153190269D01*
X134633141Y-153190765D01*
X134631268Y-153203390D01*
X134631261Y-153203436D01*
X134631260Y-153203448D01*
X134610271Y-153358366D01*
X134608540Y-153372651D01*
X134608486Y-153373156D01*
X134607096Y-153388345D01*
X134595501Y-153540043D01*
X134595099Y-153545313D01*
X134594292Y-153557949D01*
X134594266Y-153558456D01*
X134594265Y-153558482D01*
X134593768Y-153571447D01*
X134589766Y-153728485D01*
X134589603Y-153741347D01*
X122300500Y-153741347D01*
X122300500Y-149521153D01*
X125999500Y-149521153D01*
X125999500Y-149678846D01*
X126030261Y-149833489D01*
X126030264Y-149833501D01*
X126090602Y-149979172D01*
X126090609Y-149979185D01*
X126178210Y-150110288D01*
X126178213Y-150110292D01*
X126289707Y-150221786D01*
X126289711Y-150221789D01*
X126420814Y-150309390D01*
X126420827Y-150309397D01*
X126566498Y-150369735D01*
X126566503Y-150369737D01*
X126708112Y-150397905D01*
X126721153Y-150400499D01*
X126721156Y-150400500D01*
X126721158Y-150400500D01*
X126878844Y-150400500D01*
X126878845Y-150400499D01*
X127033497Y-150369737D01*
X127179179Y-150309394D01*
X127197716Y-150297008D01*
X127315354Y-150218405D01*
X127316691Y-150220406D01*
X127371237Y-150197251D01*
X127385570Y-150196420D01*
X127823629Y-150196420D01*
X127890668Y-150216105D01*
X127895985Y-150219844D01*
X127897043Y-150220454D01*
X127897045Y-150220456D01*
X127897046Y-150220456D01*
X127897049Y-150220458D01*
X127956396Y-150245040D01*
X128043124Y-150280964D01*
X128160525Y-150296420D01*
X128499246Y-150296419D01*
X128499249Y-150296419D01*
X128616641Y-150280965D01*
X128616641Y-150280964D01*
X128616648Y-150280964D01*
X128616653Y-150280961D01*
X128617786Y-150280659D01*
X128618971Y-150280658D01*
X128624707Y-150279904D01*
X128624806Y-150280658D01*
X128674966Y-150280657D01*
X128675066Y-150279903D01*
X128680793Y-150280657D01*
X128681977Y-150280657D01*
X128683120Y-150280963D01*
X128683122Y-150280963D01*
X128683124Y-150280964D01*
X128800525Y-150296420D01*
X129139246Y-150296419D01*
X129139249Y-150296419D01*
X129256639Y-150280966D01*
X129256643Y-150280964D01*
X129256648Y-150280964D01*
X129402727Y-150220456D01*
X129402730Y-150220453D01*
X129408512Y-150217116D01*
X129470517Y-150200500D01*
X130030234Y-150200500D01*
X130097273Y-150220185D01*
X130099125Y-150221398D01*
X130230814Y-150309390D01*
X130230827Y-150309397D01*
X130376498Y-150369735D01*
X130376503Y-150369737D01*
X130518112Y-150397905D01*
X130531153Y-150400499D01*
X130531156Y-150400500D01*
X130531158Y-150400500D01*
X130688844Y-150400500D01*
X130688845Y-150400499D01*
X130843497Y-150369737D01*
X130989179Y-150309394D01*
X131120289Y-150221789D01*
X131231789Y-150110289D01*
X131319394Y-149979179D01*
X131379737Y-149833497D01*
X131410500Y-149678842D01*
X131410500Y-149521158D01*
X131410500Y-149521155D01*
X131410499Y-149521153D01*
X131379738Y-149366510D01*
X131379737Y-149366503D01*
X131379735Y-149366498D01*
X131319397Y-149220827D01*
X131319390Y-149220814D01*
X131231789Y-149089711D01*
X131231786Y-149089707D01*
X131120292Y-148978213D01*
X131120288Y-148978210D01*
X130989185Y-148890609D01*
X130989172Y-148890602D01*
X130843501Y-148830264D01*
X130843489Y-148830261D01*
X130688845Y-148799500D01*
X130688842Y-148799500D01*
X130531158Y-148799500D01*
X130531155Y-148799500D01*
X130376510Y-148830261D01*
X130376498Y-148830264D01*
X130230827Y-148890602D01*
X130230814Y-148890609D01*
X130099125Y-148978602D01*
X130032447Y-148999480D01*
X130030234Y-148999500D01*
X129481461Y-148999500D01*
X129414422Y-148979815D01*
X129405975Y-148973876D01*
X129402728Y-148971384D01*
X129256648Y-148910876D01*
X129256646Y-148910875D01*
X129139247Y-148895420D01*
X128800522Y-148895420D01*
X128683120Y-148910875D01*
X128681969Y-148911184D01*
X128680777Y-148911184D01*
X128675065Y-148911936D01*
X128674966Y-148911184D01*
X128624805Y-148911184D01*
X128624706Y-148911937D01*
X128618993Y-148911184D01*
X128617803Y-148911185D01*
X128616651Y-148910876D01*
X128499247Y-148895420D01*
X128160522Y-148895420D01*
X128043132Y-148910873D01*
X128043120Y-148910877D01*
X127897049Y-148971381D01*
X127890010Y-148975446D01*
X127889003Y-148973703D01*
X127833954Y-148994989D01*
X127823629Y-148995420D01*
X127373660Y-148995420D01*
X127306621Y-148975735D01*
X127304769Y-148974522D01*
X127179185Y-148890609D01*
X127179172Y-148890602D01*
X127033501Y-148830264D01*
X127033489Y-148830261D01*
X126878845Y-148799500D01*
X126878842Y-148799500D01*
X126721158Y-148799500D01*
X126721155Y-148799500D01*
X126566510Y-148830261D01*
X126566498Y-148830264D01*
X126420827Y-148890602D01*
X126420814Y-148890609D01*
X126289711Y-148978210D01*
X126289707Y-148978213D01*
X126178213Y-149089707D01*
X126178210Y-149089711D01*
X126090609Y-149220814D01*
X126090602Y-149220827D01*
X126030264Y-149366498D01*
X126030261Y-149366510D01*
X125999500Y-149521153D01*
X122300500Y-149521153D01*
X122300500Y-105668995D01*
X129584499Y-105668995D01*
X129611418Y-105804322D01*
X129611421Y-105804332D01*
X129664221Y-105931804D01*
X129664228Y-105931817D01*
X129740885Y-106046541D01*
X129740888Y-106046545D01*
X129838454Y-106144111D01*
X129838458Y-106144114D01*
X129953182Y-106220771D01*
X129953195Y-106220778D01*
X130080667Y-106273578D01*
X130080672Y-106273580D01*
X130080676Y-106273580D01*
X130080677Y-106273581D01*
X130216004Y-106300500D01*
X130216007Y-106300500D01*
X130353995Y-106300500D01*
X130445041Y-106282389D01*
X130489328Y-106273580D01*
X130616811Y-106220775D01*
X130616811Y-106220774D01*
X130622181Y-106217905D01*
X130622876Y-106219205D01*
X130682562Y-106200520D01*
X130684770Y-106200500D01*
X135499903Y-106200500D01*
X135566942Y-106220185D01*
X135587584Y-106236819D01*
X138698183Y-109347418D01*
X138731668Y-109408741D01*
X138734502Y-109435099D01*
X138734502Y-110795433D01*
X138725063Y-110842885D01*
X138709502Y-110880451D01*
X138709499Y-110880461D01*
X138684502Y-111006128D01*
X138684502Y-111006131D01*
X138684502Y-111134269D01*
X138684502Y-111134271D01*
X138684501Y-111134271D01*
X138709499Y-111259938D01*
X138709501Y-111259944D01*
X138758535Y-111378324D01*
X138758540Y-111378333D01*
X138829725Y-111484868D01*
X138829728Y-111484872D01*
X138920329Y-111575473D01*
X138920333Y-111575476D01*
X139026868Y-111646661D01*
X139026874Y-111646664D01*
X139026875Y-111646665D01*
X139145258Y-111695701D01*
X139145262Y-111695701D01*
X139145263Y-111695702D01*
X139270930Y-111720700D01*
X139270933Y-111720700D01*
X139399073Y-111720700D01*
X139483617Y-111703882D01*
X139524746Y-111695701D01*
X139643129Y-111646665D01*
X139749671Y-111575476D01*
X139840278Y-111484869D01*
X139911467Y-111378327D01*
X139960503Y-111259944D01*
X139972808Y-111198086D01*
X139985502Y-111134271D01*
X139985502Y-111006128D01*
X139960504Y-110880461D01*
X139960503Y-110880460D01*
X139960503Y-110880456D01*
X139944941Y-110842885D01*
X139935502Y-110795433D01*
X139935502Y-109224062D01*
X139935503Y-109224049D01*
X139935503Y-109055946D01*
X139894578Y-108903216D01*
X139894575Y-108903211D01*
X139815526Y-108766292D01*
X139815520Y-108766284D01*
X136287590Y-105238355D01*
X136287588Y-105238352D01*
X136168717Y-105119481D01*
X136168716Y-105119480D01*
X136058568Y-105055886D01*
X136058566Y-105055885D01*
X136031785Y-105040423D01*
X136031784Y-105040422D01*
X136031783Y-105040422D01*
X135975881Y-105025443D01*
X135879057Y-104999499D01*
X135720943Y-104999499D01*
X135713347Y-104999499D01*
X135713331Y-104999500D01*
X130684770Y-104999500D01*
X130622630Y-104981253D01*
X130622181Y-104982095D01*
X130618140Y-104979935D01*
X130617731Y-104979815D01*
X130616912Y-104979278D01*
X130616809Y-104979223D01*
X130489332Y-104926421D01*
X130489322Y-104926418D01*
X130353995Y-104899500D01*
X130353993Y-104899500D01*
X130216007Y-104899500D01*
X130216005Y-104899500D01*
X130080677Y-104926418D01*
X130080667Y-104926421D01*
X129953195Y-104979221D01*
X129953182Y-104979228D01*
X129838458Y-105055885D01*
X129838456Y-105055887D01*
X129740888Y-105153454D01*
X129740885Y-105153458D01*
X129664228Y-105268182D01*
X129664221Y-105268195D01*
X129611421Y-105395667D01*
X129611418Y-105395677D01*
X129584500Y-105531004D01*
X129584500Y-105531007D01*
X129584500Y-105668993D01*
X129584500Y-105668995D01*
X129584499Y-105668995D01*
X122300500Y-105668995D01*
X122300500Y-87109350D01*
X134110000Y-87109350D01*
X134110000Y-87750000D01*
X134660000Y-87750000D01*
X134660000Y-86527703D01*
X134657503Y-86527900D01*
X134499806Y-86573716D01*
X134499803Y-86573717D01*
X134358447Y-86657314D01*
X134358438Y-86657321D01*
X134242321Y-86773438D01*
X134242314Y-86773447D01*
X134158717Y-86914803D01*
X134158716Y-86914806D01*
X134112900Y-87072504D01*
X134112899Y-87072510D01*
X134110000Y-87109350D01*
X122300500Y-87109350D01*
X122300500Y-79954903D01*
X125476793Y-79954903D01*
X125501791Y-80080570D01*
X125501793Y-80080576D01*
X125550827Y-80198956D01*
X125550832Y-80198965D01*
X125622017Y-80305500D01*
X125622020Y-80305504D01*
X125712621Y-80396105D01*
X125712625Y-80396108D01*
X125819160Y-80467293D01*
X125819166Y-80467296D01*
X125819167Y-80467297D01*
X125937550Y-80516333D01*
X125937554Y-80516333D01*
X125937555Y-80516334D01*
X126063222Y-80541332D01*
X126063225Y-80541332D01*
X126191365Y-80541332D01*
X126275909Y-80524514D01*
X126317038Y-80516333D01*
X126335529Y-80508673D01*
X126354609Y-80500771D01*
X126402061Y-80491332D01*
X134266763Y-80491332D01*
X134333802Y-80511017D01*
X134354444Y-80527650D01*
X134357494Y-80530700D01*
X134357495Y-80530701D01*
X134469299Y-80642505D01*
X134469301Y-80642506D01*
X134469302Y-80642507D01*
X134556105Y-80692621D01*
X134556108Y-80692624D01*
X134556109Y-80692624D01*
X134571456Y-80701485D01*
X134578342Y-80705767D01*
X134627255Y-80738450D01*
X134664826Y-80754012D01*
X134705054Y-80780892D01*
X135298885Y-81374723D01*
X135332370Y-81436046D01*
X135327386Y-81505738D01*
X135285514Y-81561671D01*
X135220050Y-81586088D01*
X135176612Y-81581481D01*
X135162573Y-81577402D01*
X135162567Y-81577401D01*
X135125701Y-81574500D01*
X135125694Y-81574500D01*
X134694306Y-81574500D01*
X134694298Y-81574500D01*
X134657432Y-81577401D01*
X134657426Y-81577402D01*
X134499606Y-81623254D01*
X134499603Y-81623255D01*
X134358137Y-81706917D01*
X134358129Y-81706923D01*
X134241923Y-81823129D01*
X134241917Y-81823137D01*
X134158255Y-81964603D01*
X134158254Y-81964606D01*
X134112402Y-82122426D01*
X134112401Y-82122432D01*
X134109500Y-82159298D01*
X134109500Y-83940701D01*
X134112401Y-83977567D01*
X134112402Y-83977573D01*
X134158254Y-84135393D01*
X134158255Y-84135396D01*
X134241917Y-84276862D01*
X134241923Y-84276870D01*
X134358129Y-84393076D01*
X134358133Y-84393079D01*
X134358135Y-84393081D01*
X134499602Y-84476744D01*
X134541224Y-84488836D01*
X134657426Y-84522597D01*
X134657429Y-84522597D01*
X134657431Y-84522598D01*
X134694306Y-84525500D01*
X134694314Y-84525500D01*
X135125686Y-84525500D01*
X135125694Y-84525500D01*
X135162569Y-84522598D01*
X135162571Y-84522597D01*
X135162573Y-84522597D01*
X135262321Y-84493617D01*
X135320398Y-84476744D01*
X135392381Y-84434173D01*
X135460102Y-84416991D01*
X135526365Y-84439151D01*
X135570129Y-84493617D01*
X135579500Y-84540906D01*
X135579500Y-85668331D01*
X135579499Y-85668349D01*
X135579499Y-85834055D01*
X135579498Y-85834055D01*
X135620423Y-85986786D01*
X135649358Y-86036901D01*
X135649359Y-86036905D01*
X135649360Y-86036905D01*
X135699479Y-86123715D01*
X135699481Y-86123718D01*
X135818349Y-86242586D01*
X135818355Y-86242591D01*
X135915343Y-86339579D01*
X135948828Y-86400902D01*
X135943844Y-86470594D01*
X135901972Y-86526527D01*
X135862258Y-86546336D01*
X135769604Y-86573254D01*
X135769603Y-86573255D01*
X135628140Y-86656915D01*
X135621974Y-86661699D01*
X135620174Y-86659379D01*
X135570913Y-86686230D01*
X135501225Y-86681193D01*
X135468992Y-86660461D01*
X135467722Y-86662100D01*
X135461552Y-86657314D01*
X135320196Y-86573717D01*
X135320193Y-86573716D01*
X135162494Y-86527900D01*
X135162497Y-86527900D01*
X135160000Y-86527703D01*
X135160000Y-87876000D01*
X135140315Y-87943039D01*
X135087511Y-87988794D01*
X135036000Y-88000000D01*
X134910000Y-88000000D01*
X134910000Y-88126000D01*
X134890315Y-88193039D01*
X134837511Y-88238794D01*
X134786000Y-88250000D01*
X134110000Y-88250000D01*
X134110000Y-88890649D01*
X134112899Y-88927489D01*
X134112900Y-88927495D01*
X134158716Y-89085193D01*
X134158717Y-89085196D01*
X134242314Y-89226552D01*
X134242321Y-89226561D01*
X134358438Y-89342678D01*
X134358447Y-89342685D01*
X134499803Y-89426282D01*
X134499806Y-89426283D01*
X134551606Y-89441333D01*
X134610492Y-89478939D01*
X134639698Y-89542411D01*
X134631572Y-89607861D01*
X134575444Y-89743368D01*
X134567987Y-89800000D01*
X135075500Y-89800000D01*
X135142539Y-89819685D01*
X135188294Y-89872489D01*
X135199500Y-89923999D01*
X135199501Y-90075999D01*
X135179817Y-90143039D01*
X135127013Y-90188794D01*
X135075501Y-90200000D01*
X134567990Y-90200000D01*
X134567988Y-90200001D01*
X134575442Y-90256627D01*
X134575444Y-90256633D01*
X134615173Y-90352548D01*
X134622642Y-90422017D01*
X134615174Y-90447451D01*
X134575443Y-90543371D01*
X134567987Y-90600000D01*
X135075500Y-90600000D01*
X135142539Y-90619685D01*
X135188294Y-90672489D01*
X135199500Y-90723999D01*
X135199501Y-90875999D01*
X135179817Y-90943039D01*
X135127013Y-90988794D01*
X135075501Y-91000000D01*
X134567990Y-91000000D01*
X134567988Y-91000001D01*
X134575442Y-91056627D01*
X134575444Y-91056633D01*
X134635899Y-91202585D01*
X134732075Y-91327924D01*
X134857412Y-91424099D01*
X134950481Y-91462648D01*
X135004885Y-91506489D01*
X135026951Y-91572782D01*
X135021417Y-91614096D01*
X135010914Y-91647805D01*
X135004500Y-91718386D01*
X135004500Y-92148840D01*
X134984815Y-92215879D01*
X134932011Y-92261634D01*
X134862853Y-92271578D01*
X134799297Y-92242553D01*
X134792819Y-92236521D01*
X132213022Y-89656724D01*
X132179537Y-89595401D01*
X132179116Y-89593385D01*
X132156966Y-89482024D01*
X132112828Y-89375464D01*
X132096626Y-89336348D01*
X132096619Y-89336335D01*
X132009018Y-89205232D01*
X132009015Y-89205228D01*
X131897521Y-89093734D01*
X131897517Y-89093731D01*
X131766414Y-89006130D01*
X131766401Y-89006123D01*
X131620730Y-88945785D01*
X131620718Y-88945782D01*
X131466074Y-88915021D01*
X131466071Y-88915021D01*
X131308387Y-88915021D01*
X131308384Y-88915021D01*
X131153739Y-88945782D01*
X131153727Y-88945785D01*
X131008056Y-89006123D01*
X131008043Y-89006130D01*
X130925842Y-89061056D01*
X130859164Y-89081934D01*
X130809499Y-89072515D01*
X130724096Y-89037140D01*
X130724094Y-89037139D01*
X130606695Y-89021684D01*
X130267970Y-89021684D01*
X130150568Y-89037139D01*
X130149417Y-89037448D01*
X130148225Y-89037448D01*
X130142513Y-89038200D01*
X130142414Y-89037448D01*
X130092253Y-89037448D01*
X130092154Y-89038201D01*
X130086441Y-89037448D01*
X130085251Y-89037449D01*
X130084099Y-89037140D01*
X129966695Y-89021684D01*
X129627970Y-89021684D01*
X129510580Y-89037137D01*
X129510572Y-89037140D01*
X129425037Y-89072569D01*
X129355568Y-89080037D01*
X129308695Y-89061109D01*
X129226414Y-89006130D01*
X129226401Y-89006123D01*
X129080730Y-88945785D01*
X129080718Y-88945782D01*
X128926074Y-88915021D01*
X128926071Y-88915021D01*
X128768387Y-88915021D01*
X128768384Y-88915021D01*
X128613739Y-88945782D01*
X128613727Y-88945785D01*
X128468056Y-89006123D01*
X128468043Y-89006130D01*
X128336940Y-89093731D01*
X128336936Y-89093734D01*
X128225442Y-89205228D01*
X128225439Y-89205232D01*
X128137838Y-89336335D01*
X128137831Y-89336348D01*
X128077493Y-89482019D01*
X128077490Y-89482031D01*
X128046729Y-89636674D01*
X128046729Y-89794367D01*
X128077490Y-89949010D01*
X128077493Y-89949022D01*
X128137831Y-90094693D01*
X128137838Y-90094706D01*
X128225439Y-90225809D01*
X128225442Y-90225813D01*
X128336936Y-90337307D01*
X128336940Y-90337310D01*
X128468043Y-90424911D01*
X128468056Y-90424918D01*
X128522464Y-90447454D01*
X128613732Y-90485258D01*
X128768382Y-90516020D01*
X128768385Y-90516021D01*
X128768387Y-90516021D01*
X128926073Y-90516021D01*
X128926074Y-90516020D01*
X129080726Y-90485258D01*
X129226408Y-90424915D01*
X129296385Y-90378156D01*
X129363060Y-90357280D01*
X129412726Y-90366698D01*
X129510572Y-90407228D01*
X129627973Y-90422684D01*
X129966694Y-90422683D01*
X129966697Y-90422683D01*
X130084089Y-90407229D01*
X130084089Y-90407228D01*
X130084096Y-90407228D01*
X130084101Y-90407225D01*
X130085234Y-90406923D01*
X130086419Y-90406922D01*
X130092155Y-90406168D01*
X130092254Y-90406922D01*
X130142414Y-90406921D01*
X130142514Y-90406167D01*
X130148241Y-90406921D01*
X130149425Y-90406921D01*
X130150568Y-90407227D01*
X130150570Y-90407227D01*
X130150572Y-90407228D01*
X130267973Y-90422684D01*
X130606694Y-90422683D01*
X130606697Y-90422683D01*
X130724087Y-90407230D01*
X130724090Y-90407228D01*
X130724096Y-90407228D01*
X130821815Y-90366751D01*
X130891278Y-90359283D01*
X130938152Y-90378210D01*
X131008050Y-90424915D01*
X131008053Y-90424916D01*
X131008054Y-90424917D01*
X131037414Y-90437078D01*
X131153732Y-90485258D01*
X131264945Y-90507379D01*
X131326852Y-90539762D01*
X131328432Y-90541314D01*
X134807724Y-94020606D01*
X134807753Y-94020637D01*
X134897971Y-94110855D01*
X134897975Y-94110858D01*
X135000415Y-94179307D01*
X135000419Y-94179309D01*
X135000422Y-94179311D01*
X135097282Y-94219432D01*
X135144112Y-94254993D01*
X135144224Y-94254882D01*
X135145039Y-94255697D01*
X135147441Y-94257521D01*
X135149531Y-94260189D01*
X135269811Y-94380469D01*
X135269813Y-94380470D01*
X135269815Y-94380472D01*
X135415394Y-94468478D01*
X135577804Y-94519086D01*
X135648384Y-94525500D01*
X135979903Y-94525500D01*
X136046942Y-94545185D01*
X136067584Y-94561819D01*
X137675315Y-96169550D01*
X137708800Y-96230873D01*
X137711634Y-96257231D01*
X137711634Y-99051021D01*
X137691949Y-99118060D01*
X137639145Y-99163815D01*
X137587634Y-99175021D01*
X132066286Y-99175021D01*
X131908172Y-99175021D01*
X131755444Y-99215944D01*
X131755443Y-99215944D01*
X131755441Y-99215945D01*
X131755438Y-99215946D01*
X131705325Y-99244880D01*
X131705324Y-99244881D01*
X131661918Y-99269941D01*
X131618514Y-99295000D01*
X131618511Y-99295002D01*
X131506709Y-99406805D01*
X131506707Y-99406807D01*
X131432078Y-99481436D01*
X131372566Y-99540948D01*
X131311243Y-99574432D01*
X131309077Y-99574883D01*
X131153737Y-99605782D01*
X131153727Y-99605785D01*
X131008056Y-99666123D01*
X131008043Y-99666130D01*
X130876354Y-99754123D01*
X130809676Y-99775001D01*
X130807463Y-99775021D01*
X130286437Y-99775021D01*
X130238985Y-99765582D01*
X130116765Y-99714957D01*
X130116760Y-99714955D01*
X129999361Y-99699500D01*
X129660637Y-99699500D01*
X129543236Y-99714955D01*
X129541111Y-99715525D01*
X129538910Y-99715525D01*
X129535181Y-99716016D01*
X129535116Y-99715525D01*
X129484815Y-99715525D01*
X129484687Y-99716505D01*
X129477251Y-99715525D01*
X129476937Y-99715526D01*
X129476633Y-99715444D01*
X129390000Y-99704038D01*
X129390000Y-99719807D01*
X129370315Y-99786846D01*
X129341488Y-99818181D01*
X129271718Y-99871718D01*
X129212374Y-99949056D01*
X129155948Y-99990257D01*
X129086202Y-99994412D01*
X129025281Y-99960199D01*
X128992529Y-99898482D01*
X128990000Y-99873568D01*
X128990000Y-99704038D01*
X128903369Y-99715444D01*
X128903365Y-99715445D01*
X128757413Y-99775899D01*
X128632075Y-99872075D01*
X128535899Y-99997413D01*
X128475444Y-100143368D01*
X128467987Y-100200000D01*
X128975500Y-100200000D01*
X129042539Y-100219685D01*
X129088294Y-100272489D01*
X129099500Y-100323999D01*
X129099501Y-100475999D01*
X129079817Y-100543039D01*
X129027013Y-100588794D01*
X128975501Y-100600000D01*
X128467990Y-100600000D01*
X128467988Y-100600001D01*
X128475442Y-100656627D01*
X128475444Y-100656633D01*
X128535899Y-100802585D01*
X128632075Y-100927924D01*
X128757413Y-101024100D01*
X128903365Y-101084554D01*
X128903369Y-101084555D01*
X128990000Y-101095961D01*
X128990000Y-100926431D01*
X129009685Y-100859392D01*
X129062489Y-100813637D01*
X129131647Y-100803693D01*
X129195203Y-100832718D01*
X129212372Y-100850941D01*
X129271718Y-100928282D01*
X129341487Y-100981817D01*
X129382689Y-101038243D01*
X129390000Y-101080192D01*
X129390000Y-101095959D01*
X129390001Y-101095960D01*
X129476622Y-101084558D01*
X129476917Y-101084479D01*
X129477222Y-101084478D01*
X129484690Y-101083496D01*
X129484819Y-101084478D01*
X129535115Y-101084476D01*
X129535180Y-101083983D01*
X129538925Y-101084476D01*
X129541121Y-101084476D01*
X129543230Y-101085040D01*
X129543238Y-101085044D01*
X129660639Y-101100500D01*
X129999360Y-101100499D01*
X129999363Y-101100499D01*
X130116753Y-101085046D01*
X130116757Y-101085044D01*
X130116762Y-101085044D01*
X130262836Y-101024538D01*
X130262837Y-101024538D01*
X130262837Y-101024537D01*
X130262841Y-101024536D01*
X130292674Y-101001644D01*
X130357841Y-100976451D01*
X130368159Y-100976021D01*
X130807463Y-100976021D01*
X130874502Y-100995706D01*
X130876354Y-100996919D01*
X131008043Y-101084911D01*
X131008056Y-101084918D01*
X131110389Y-101127305D01*
X131153732Y-101145258D01*
X131308382Y-101176020D01*
X131308385Y-101176021D01*
X131308387Y-101176021D01*
X131466073Y-101176021D01*
X131466074Y-101176020D01*
X131620726Y-101145258D01*
X131766097Y-101085044D01*
X131766401Y-101084918D01*
X131766401Y-101084917D01*
X131766408Y-101084915D01*
X131897518Y-100997310D01*
X132009018Y-100885810D01*
X132096623Y-100754700D01*
X132156966Y-100609018D01*
X132175137Y-100517668D01*
X132183460Y-100475829D01*
X132215845Y-100413918D01*
X132276561Y-100379344D01*
X132305077Y-100376021D01*
X136872874Y-100376021D01*
X136939913Y-100395706D01*
X136985668Y-100448510D01*
X136995612Y-100517668D01*
X136966587Y-100581224D01*
X136966101Y-100581781D01*
X136950122Y-100600000D01*
X136957576Y-100656627D01*
X136957578Y-100656633D01*
X137018033Y-100802585D01*
X137114209Y-100927924D01*
X137239547Y-101024100D01*
X137385499Y-101084554D01*
X137385503Y-101084555D01*
X137472134Y-101095961D01*
X137472134Y-100926431D01*
X137491819Y-100859392D01*
X137544623Y-100813637D01*
X137613781Y-100803693D01*
X137677337Y-100832718D01*
X137694506Y-100850941D01*
X137753852Y-100928282D01*
X137823621Y-100981817D01*
X137864823Y-101038243D01*
X137872134Y-101080192D01*
X137872134Y-101095959D01*
X137872135Y-101095960D01*
X137958756Y-101084558D01*
X137959051Y-101084479D01*
X137959356Y-101084478D01*
X137966824Y-101083496D01*
X137966953Y-101084478D01*
X138017249Y-101084476D01*
X138017314Y-101083983D01*
X138021059Y-101084476D01*
X138023255Y-101084476D01*
X138025364Y-101085040D01*
X138025372Y-101085044D01*
X138142773Y-101100500D01*
X138481494Y-101100499D01*
X138481497Y-101100499D01*
X138598887Y-101085046D01*
X138598891Y-101085044D01*
X138598896Y-101085044D01*
X138744970Y-101024538D01*
X138744971Y-101024538D01*
X138744971Y-101024537D01*
X138744975Y-101024536D01*
X138774808Y-101001644D01*
X138839975Y-100976451D01*
X138850293Y-100976021D01*
X139307463Y-100976021D01*
X139374502Y-100995706D01*
X139376354Y-100996919D01*
X139508043Y-101084911D01*
X139508056Y-101084918D01*
X139610389Y-101127305D01*
X139653732Y-101145258D01*
X139808382Y-101176020D01*
X139808385Y-101176021D01*
X139808387Y-101176021D01*
X139966073Y-101176021D01*
X139966074Y-101176020D01*
X140120726Y-101145258D01*
X140266097Y-101085044D01*
X140266401Y-101084918D01*
X140266401Y-101084917D01*
X140266408Y-101084915D01*
X140397518Y-100997310D01*
X140509018Y-100885810D01*
X140596623Y-100754700D01*
X140656966Y-100609018D01*
X140675137Y-100517668D01*
X140683460Y-100475829D01*
X140715845Y-100413918D01*
X140776561Y-100379344D01*
X140805077Y-100376021D01*
X145920270Y-100376021D01*
X145987309Y-100395706D01*
X146033064Y-100448510D01*
X146044270Y-100500021D01*
X146044270Y-100507344D01*
X146024585Y-100574383D01*
X145971781Y-100620138D01*
X145920270Y-100631344D01*
X145412759Y-100631344D01*
X145412757Y-100631345D01*
X145420211Y-100687971D01*
X145420213Y-100687977D01*
X145480668Y-100833929D01*
X145576844Y-100959268D01*
X145702182Y-101055444D01*
X145848134Y-101115898D01*
X145848138Y-101115899D01*
X145934769Y-101127305D01*
X145934769Y-100957775D01*
X145954454Y-100890736D01*
X146007258Y-100844981D01*
X146076416Y-100835037D01*
X146139972Y-100864062D01*
X146157141Y-100882285D01*
X146216487Y-100959626D01*
X146286256Y-101013161D01*
X146327458Y-101069587D01*
X146334769Y-101111536D01*
X146334769Y-101127303D01*
X146334770Y-101127304D01*
X146421391Y-101115902D01*
X146421686Y-101115823D01*
X146421991Y-101115822D01*
X146429459Y-101114840D01*
X146429588Y-101115822D01*
X146479884Y-101115820D01*
X146479949Y-101115327D01*
X146483694Y-101115820D01*
X146485890Y-101115820D01*
X146487999Y-101116384D01*
X146488007Y-101116388D01*
X146605408Y-101131844D01*
X146944129Y-101131843D01*
X146944132Y-101131843D01*
X147061522Y-101116390D01*
X147061526Y-101116388D01*
X147061531Y-101116388D01*
X147207610Y-101055880D01*
X147278291Y-101001645D01*
X147343460Y-100976451D01*
X147353777Y-100976021D01*
X147662729Y-100976021D01*
X147729768Y-100995706D01*
X147775523Y-101048510D01*
X147786729Y-101100021D01*
X147786729Y-107567873D01*
X147767044Y-107634912D01*
X147750410Y-107655554D01*
X145074499Y-110331464D01*
X145013176Y-110364949D01*
X144990029Y-110367440D01*
X144990035Y-110367518D01*
X144988167Y-110367640D01*
X144986843Y-110367783D01*
X144985985Y-110367783D01*
X144868580Y-110383238D01*
X144866455Y-110383808D01*
X144864254Y-110383808D01*
X144860525Y-110384299D01*
X144860460Y-110383808D01*
X144810159Y-110383808D01*
X144810031Y-110384788D01*
X144802595Y-110383808D01*
X144802281Y-110383809D01*
X144801977Y-110383727D01*
X144715344Y-110372321D01*
X144715344Y-110388090D01*
X144695659Y-110455129D01*
X144666832Y-110486464D01*
X144597062Y-110540001D01*
X144537718Y-110617339D01*
X144481292Y-110658540D01*
X144411546Y-110662695D01*
X144350625Y-110628482D01*
X144317873Y-110566765D01*
X144315344Y-110541851D01*
X144315344Y-110372321D01*
X144228713Y-110383727D01*
X144228709Y-110383728D01*
X144082757Y-110444182D01*
X143957419Y-110540358D01*
X143861243Y-110665696D01*
X143800789Y-110811648D01*
X143800788Y-110811652D01*
X143794427Y-110859969D01*
X143766160Y-110923865D01*
X143707836Y-110962336D01*
X143671488Y-110967783D01*
X143328957Y-110967783D01*
X143261918Y-110948098D01*
X143216163Y-110895294D01*
X143211072Y-110881832D01*
X143194940Y-110842885D01*
X143185501Y-110795433D01*
X143185501Y-110715096D01*
X143205186Y-110648057D01*
X143221820Y-110627415D01*
X144635175Y-109214060D01*
X146240520Y-107608716D01*
X146319577Y-107471784D01*
X146360501Y-107319057D01*
X146360501Y-107160942D01*
X146360501Y-107153347D01*
X146360500Y-107153329D01*
X146360500Y-105999769D01*
X146378746Y-105937627D01*
X146377906Y-105937178D01*
X146380064Y-105933140D01*
X146380185Y-105932730D01*
X146380721Y-105931910D01*
X146380771Y-105931816D01*
X146380775Y-105931811D01*
X146433580Y-105804328D01*
X146460500Y-105668993D01*
X146460500Y-105531007D01*
X146460500Y-105531004D01*
X146433581Y-105395677D01*
X146433580Y-105395676D01*
X146433580Y-105395672D01*
X146433578Y-105395667D01*
X146380778Y-105268195D01*
X146380771Y-105268182D01*
X146304114Y-105153458D01*
X146304111Y-105153454D01*
X146206544Y-105055887D01*
X146206541Y-105055885D01*
X146091817Y-104979228D01*
X146091804Y-104979221D01*
X145964332Y-104926421D01*
X145964322Y-104926418D01*
X145828995Y-104899500D01*
X145828993Y-104899500D01*
X145691007Y-104899500D01*
X145691005Y-104899500D01*
X145555677Y-104926418D01*
X145555667Y-104926421D01*
X145428195Y-104979221D01*
X145428182Y-104979228D01*
X145313458Y-105055885D01*
X145313456Y-105055887D01*
X145215888Y-105153454D01*
X145215885Y-105153458D01*
X145139228Y-105268182D01*
X145139221Y-105268195D01*
X145086421Y-105395667D01*
X145086418Y-105395677D01*
X145059500Y-105531004D01*
X145059500Y-105531007D01*
X145059500Y-105668993D01*
X145059500Y-105668995D01*
X145059499Y-105668995D01*
X145086418Y-105804322D01*
X145086421Y-105804332D01*
X145139222Y-105931806D01*
X145142094Y-105937178D01*
X145140792Y-105937874D01*
X145159480Y-105997554D01*
X145159500Y-105999769D01*
X145159500Y-106939902D01*
X145139815Y-107006941D01*
X145123181Y-107027583D01*
X142104482Y-110046281D01*
X142104480Y-110046284D01*
X142054362Y-110133093D01*
X142054360Y-110133095D01*
X142025426Y-110183208D01*
X142025425Y-110183209D01*
X142025424Y-110183214D01*
X141984500Y-110335942D01*
X141984500Y-110335944D01*
X141984500Y-110504045D01*
X141984501Y-110504058D01*
X141984501Y-110795433D01*
X141975062Y-110842885D01*
X141959501Y-110880451D01*
X141959498Y-110880461D01*
X141934501Y-111006128D01*
X141934501Y-111006131D01*
X141934501Y-111134269D01*
X141934501Y-111134271D01*
X141934500Y-111134271D01*
X141951765Y-111221061D01*
X141945538Y-111290653D01*
X141917829Y-111332934D01*
X139132180Y-114118584D01*
X139070857Y-114152069D01*
X139001165Y-114147085D01*
X138945232Y-114105213D01*
X138920815Y-114039749D01*
X138920499Y-114030903D01*
X138920499Y-112952129D01*
X138920498Y-112952123D01*
X138920497Y-112952116D01*
X138914091Y-112892517D01*
X138863884Y-112757906D01*
X138863797Y-112757671D01*
X138863793Y-112757664D01*
X138777547Y-112642455D01*
X138777544Y-112642452D01*
X138662335Y-112556206D01*
X138662328Y-112556202D01*
X138527482Y-112505908D01*
X138527483Y-112505908D01*
X138467883Y-112499501D01*
X138467881Y-112499500D01*
X138467873Y-112499500D01*
X138467864Y-112499500D01*
X136572129Y-112499500D01*
X136572123Y-112499501D01*
X136512516Y-112505908D01*
X136377671Y-112556202D01*
X136377664Y-112556206D01*
X136262455Y-112642452D01*
X136262452Y-112642455D01*
X136176206Y-112757664D01*
X136176202Y-112757671D01*
X136125908Y-112892517D01*
X136119501Y-112952116D01*
X136119501Y-112952123D01*
X136119500Y-112952135D01*
X136119501Y-114238000D01*
X136099816Y-114305039D01*
X136047013Y-114350794D01*
X135995501Y-114362000D01*
X135776520Y-114362000D01*
X135709481Y-114342315D01*
X135688839Y-114325681D01*
X135570188Y-114207030D01*
X135533218Y-114184681D01*
X135424606Y-114119022D01*
X135262196Y-114068414D01*
X135262194Y-114068413D01*
X135262192Y-114068413D01*
X135212778Y-114063923D01*
X135191616Y-114062000D01*
X134528384Y-114062000D01*
X134509145Y-114063748D01*
X134457807Y-114068413D01*
X134295393Y-114119022D01*
X134149811Y-114207030D01*
X134029530Y-114327311D01*
X133941522Y-114472893D01*
X133890913Y-114635307D01*
X133884500Y-114705886D01*
X133884500Y-115219113D01*
X133890913Y-115289692D01*
X133890913Y-115289694D01*
X133890914Y-115289696D01*
X133941522Y-115452106D01*
X134014296Y-115572489D01*
X134029530Y-115597688D01*
X134131661Y-115699819D01*
X134165146Y-115761142D01*
X134160162Y-115830834D01*
X134131661Y-115875181D01*
X134029531Y-115977310D01*
X134029530Y-115977311D01*
X133941522Y-116122893D01*
X133890913Y-116285307D01*
X133884500Y-116355886D01*
X133884500Y-116869113D01*
X133890913Y-116939692D01*
X133890913Y-116939694D01*
X133890914Y-116939696D01*
X133941522Y-117102106D01*
X133971761Y-117152128D01*
X134029530Y-117247688D01*
X134149811Y-117367969D01*
X134149813Y-117367970D01*
X134149815Y-117367972D01*
X134199650Y-117398098D01*
X134246838Y-117449626D01*
X134259500Y-117504215D01*
X134259500Y-117973330D01*
X134259499Y-117973348D01*
X134259499Y-118139054D01*
X134259498Y-118139054D01*
X134259499Y-118139057D01*
X134297131Y-118279500D01*
X134300424Y-118291787D01*
X134317704Y-118321716D01*
X134317705Y-118321719D01*
X134379475Y-118428709D01*
X134379481Y-118428717D01*
X134498349Y-118547585D01*
X134498355Y-118547590D01*
X134663181Y-118712416D01*
X134696666Y-118773739D01*
X134699500Y-118800097D01*
X134699500Y-119049363D01*
X134714954Y-119166756D01*
X134715525Y-119168886D01*
X134715525Y-119171091D01*
X134716016Y-119174821D01*
X134715525Y-119174885D01*
X134715526Y-119225184D01*
X134716505Y-119225313D01*
X134715526Y-119232741D01*
X134715527Y-119233060D01*
X134715444Y-119233367D01*
X134704038Y-119320000D01*
X134719807Y-119320000D01*
X134786846Y-119339685D01*
X134818181Y-119368511D01*
X134871718Y-119438282D01*
X134949056Y-119497625D01*
X134990257Y-119554052D01*
X134994412Y-119623798D01*
X134960199Y-119684719D01*
X134898482Y-119717471D01*
X134873568Y-119720000D01*
X134704041Y-119720000D01*
X134704039Y-119720001D01*
X134715442Y-119806627D01*
X134715444Y-119806633D01*
X134775899Y-119952585D01*
X134872075Y-120077924D01*
X134997414Y-120174100D01*
X135143366Y-120234555D01*
X135143372Y-120234557D01*
X135199998Y-120242011D01*
X135200000Y-120242010D01*
X135200000Y-119734499D01*
X135219685Y-119667460D01*
X135272489Y-119621705D01*
X135323996Y-119610499D01*
X135476000Y-119610499D01*
X135543039Y-119630184D01*
X135588794Y-119682988D01*
X135600000Y-119734499D01*
X135600000Y-120242010D01*
X135600001Y-120242011D01*
X135656627Y-120234557D01*
X135656633Y-120234555D01*
X135802585Y-120174100D01*
X135927924Y-120077924D01*
X136024100Y-119952586D01*
X136084554Y-119806634D01*
X136084555Y-119806630D01*
X136099999Y-119689330D01*
X136099999Y-119683668D01*
X136119677Y-119616626D01*
X136172476Y-119570866D01*
X136241633Y-119560915D01*
X136298310Y-119584388D01*
X136377668Y-119643795D01*
X136377671Y-119643797D01*
X136512517Y-119694091D01*
X136512516Y-119694091D01*
X136519444Y-119694835D01*
X136572127Y-119700500D01*
X138119902Y-119700499D01*
X138186941Y-119720184D01*
X138207583Y-119736818D01*
X138435139Y-119964374D01*
X138435149Y-119964385D01*
X138439479Y-119968715D01*
X138439480Y-119968716D01*
X138551284Y-120080520D01*
X138551286Y-120080521D01*
X138594302Y-120105356D01*
X138594301Y-120105356D01*
X138594304Y-120105357D01*
X138688151Y-120159541D01*
X138736366Y-120210108D01*
X138749088Y-120250736D01*
X138749881Y-120256759D01*
X138749882Y-120256762D01*
X138810387Y-120402836D01*
X138810390Y-120402842D01*
X138834112Y-120433756D01*
X138859307Y-120498925D01*
X138859737Y-120509243D01*
X138859737Y-124804268D01*
X138840052Y-124871307D01*
X138834113Y-124879754D01*
X138805701Y-124916780D01*
X138745193Y-125062860D01*
X138745192Y-125062862D01*
X138729207Y-125184286D01*
X138727593Y-125184073D01*
X138705850Y-125243386D01*
X138693848Y-125257315D01*
X127974224Y-135976940D01*
X127862419Y-136088744D01*
X127862417Y-136088747D01*
X127812299Y-136175556D01*
X127812297Y-136175558D01*
X127783363Y-136225671D01*
X127783362Y-136225672D01*
X127783361Y-136225677D01*
X127742437Y-136378405D01*
X127742437Y-136378407D01*
X127742437Y-136546508D01*
X127742438Y-136546521D01*
X127742438Y-138237804D01*
X127722753Y-138304843D01*
X127669949Y-138350598D01*
X127618438Y-138361804D01*
X127413245Y-138361804D01*
X127346206Y-138342119D01*
X127325564Y-138325485D01*
X127310292Y-138310213D01*
X127310288Y-138310210D01*
X127179185Y-138222609D01*
X127179172Y-138222602D01*
X127033501Y-138162264D01*
X127033489Y-138162261D01*
X126878845Y-138131500D01*
X126878842Y-138131500D01*
X126721158Y-138131500D01*
X126721155Y-138131500D01*
X126566510Y-138162261D01*
X126566498Y-138162264D01*
X126420827Y-138222602D01*
X126420814Y-138222609D01*
X126289711Y-138310210D01*
X126289707Y-138310213D01*
X126178213Y-138421707D01*
X126178210Y-138421711D01*
X126090609Y-138552814D01*
X126090602Y-138552827D01*
X126030264Y-138698498D01*
X126030261Y-138698510D01*
X125999500Y-138853153D01*
X125999500Y-139010846D01*
X126030261Y-139165489D01*
X126030264Y-139165501D01*
X126090602Y-139311172D01*
X126090609Y-139311185D01*
X126178210Y-139442288D01*
X126178213Y-139442292D01*
X126289707Y-139553786D01*
X126289711Y-139553789D01*
X126420814Y-139641390D01*
X126420827Y-139641397D01*
X126566498Y-139701735D01*
X126566503Y-139701737D01*
X126721153Y-139732499D01*
X126721156Y-139732500D01*
X126721158Y-139732500D01*
X126878844Y-139732500D01*
X126878845Y-139732499D01*
X127033497Y-139701737D01*
X127164805Y-139647348D01*
X127179172Y-139641397D01*
X127179172Y-139641396D01*
X127179179Y-139641394D01*
X127265521Y-139583702D01*
X127332198Y-139562824D01*
X127334412Y-139562804D01*
X127836681Y-139562804D01*
X127903720Y-139582489D01*
X127909037Y-139586228D01*
X127910095Y-139586838D01*
X127910097Y-139586840D01*
X127910098Y-139586840D01*
X127910101Y-139586842D01*
X127983136Y-139617094D01*
X128056176Y-139647348D01*
X128173577Y-139662804D01*
X128512298Y-139662803D01*
X128512299Y-139662803D01*
X128546770Y-139658265D01*
X128629700Y-139647348D01*
X128629709Y-139647344D01*
X128631817Y-139646780D01*
X128634014Y-139646780D01*
X128637759Y-139646287D01*
X128637824Y-139646780D01*
X128688121Y-139646780D01*
X128688250Y-139645799D01*
X128695701Y-139646780D01*
X128696010Y-139646780D01*
X128696308Y-139646859D01*
X128782938Y-139658265D01*
X128782938Y-139642496D01*
X128802623Y-139575457D01*
X128831449Y-139544122D01*
X128901220Y-139490586D01*
X128960563Y-139413247D01*
X129016990Y-139372046D01*
X129086736Y-139367891D01*
X129147656Y-139402103D01*
X129180409Y-139463820D01*
X129182938Y-139488735D01*
X129182938Y-139658263D01*
X129182939Y-139658264D01*
X129269565Y-139646861D01*
X129269571Y-139646859D01*
X129415523Y-139586404D01*
X129540862Y-139490228D01*
X129637038Y-139364890D01*
X129697493Y-139218935D01*
X129704950Y-139162304D01*
X129197438Y-139162304D01*
X129130399Y-139142619D01*
X129084644Y-139089815D01*
X129073438Y-139038305D01*
X129073437Y-138886305D01*
X129093121Y-138819265D01*
X129145925Y-138773510D01*
X129197437Y-138762304D01*
X129704948Y-138762304D01*
X129704949Y-138762302D01*
X129697495Y-138705676D01*
X129697493Y-138705670D01*
X129637038Y-138559718D01*
X129540862Y-138434379D01*
X129415524Y-138338203D01*
X129269569Y-138277748D01*
X129182937Y-138266341D01*
X129149196Y-138295932D01*
X129085814Y-138325334D01*
X129016597Y-138315801D01*
X128963523Y-138270361D01*
X128943440Y-138203440D01*
X128943438Y-138202703D01*
X128943438Y-136757558D01*
X128963123Y-136690519D01*
X128979752Y-136669882D01*
X139297597Y-126352036D01*
X139358918Y-126318553D01*
X139428610Y-126323537D01*
X139447273Y-126332330D01*
X139528454Y-126379200D01*
X139681181Y-126420124D01*
X139681183Y-126420124D01*
X139846892Y-126420124D01*
X139846908Y-126420123D01*
X155358865Y-126420123D01*
X155425904Y-126439808D01*
X155446546Y-126456442D01*
X155520213Y-126530109D01*
X155692179Y-126655048D01*
X155692181Y-126655049D01*
X155692184Y-126655051D01*
X155701493Y-126659794D01*
X155752290Y-126707766D01*
X155769087Y-126775587D01*
X155746552Y-126841722D01*
X155701505Y-126880760D01*
X155692446Y-126885376D01*
X155692440Y-126885380D01*
X155638282Y-126924727D01*
X155638282Y-126924728D01*
X156270591Y-127557037D01*
X156207007Y-127574075D01*
X156092993Y-127639901D01*
X155999901Y-127732993D01*
X155934075Y-127847007D01*
X155917037Y-127910591D01*
X155284728Y-127278282D01*
X155284727Y-127278282D01*
X155245380Y-127332439D01*
X155148904Y-127521782D01*
X155083242Y-127723869D01*
X155083242Y-127723872D01*
X155050000Y-127933753D01*
X155050000Y-128146246D01*
X155083242Y-128356127D01*
X155083242Y-128356130D01*
X155148904Y-128558217D01*
X155245375Y-128747550D01*
X155284728Y-128801716D01*
X155917037Y-128169408D01*
X155934075Y-128232993D01*
X155999901Y-128347007D01*
X156092993Y-128440099D01*
X156207007Y-128505925D01*
X156270590Y-128522962D01*
X155638282Y-129155269D01*
X155638282Y-129155270D01*
X155692452Y-129194626D01*
X155692451Y-129194626D01*
X155701495Y-129199234D01*
X155752292Y-129247208D01*
X155769087Y-129315029D01*
X155746550Y-129381164D01*
X155701499Y-129420202D01*
X155692182Y-129424949D01*
X155520213Y-129549890D01*
X155369890Y-129700213D01*
X155244951Y-129872179D01*
X155148444Y-130061585D01*
X155082753Y-130263760D01*
X155049500Y-130473713D01*
X155049500Y-130686286D01*
X155082754Y-130896244D01*
X155082754Y-130896247D01*
X155096491Y-130938523D01*
X155098486Y-131008364D01*
X155066241Y-131064522D01*
X154425984Y-131704781D01*
X154364661Y-131738266D01*
X154338303Y-131741100D01*
X148389599Y-131741100D01*
X148322560Y-131721415D01*
X148276805Y-131668611D01*
X148265599Y-131617100D01*
X148265599Y-131543729D01*
X148265598Y-131543723D01*
X148263795Y-131526952D01*
X148259191Y-131484117D01*
X148250118Y-131459792D01*
X148208897Y-131349271D01*
X148208893Y-131349264D01*
X148122647Y-131234055D01*
X148122644Y-131234052D01*
X148007435Y-131147806D01*
X148007428Y-131147802D01*
X147872582Y-131097508D01*
X147872583Y-131097508D01*
X147812983Y-131091101D01*
X147812981Y-131091100D01*
X147812973Y-131091100D01*
X147812964Y-131091100D01*
X146217229Y-131091100D01*
X146217223Y-131091101D01*
X146157616Y-131097508D01*
X146022771Y-131147802D01*
X146022764Y-131147806D01*
X145907557Y-131234051D01*
X145901280Y-131240328D01*
X145900028Y-131239076D01*
X145852651Y-131274534D01*
X145782959Y-131279510D01*
X145753036Y-131268832D01*
X145584935Y-131183181D01*
X145397805Y-131122378D01*
X145203482Y-131091600D01*
X145006718Y-131091600D01*
X144812394Y-131122378D01*
X144625261Y-131183182D01*
X144449963Y-131272499D01*
X144449959Y-131272502D01*
X144414973Y-131297920D01*
X144414972Y-131297920D01*
X145058653Y-131941600D01*
X145052439Y-131941600D01*
X144950706Y-131968859D01*
X144859494Y-132021520D01*
X144785020Y-132095994D01*
X144732359Y-132187206D01*
X144705100Y-132288939D01*
X144705100Y-132295154D01*
X144414724Y-132004778D01*
X144384474Y-131955414D01*
X144353986Y-131861580D01*
X144353983Y-131861574D01*
X144353195Y-131860026D01*
X144264624Y-131686195D01*
X144148928Y-131526954D01*
X144009746Y-131387772D01*
X143850505Y-131272076D01*
X143788196Y-131240328D01*
X143675129Y-131182717D01*
X143487926Y-131121890D01*
X143293522Y-131091100D01*
X143293517Y-131091100D01*
X143096683Y-131091100D01*
X143096678Y-131091100D01*
X142902273Y-131121890D01*
X142715070Y-131182717D01*
X142539694Y-131272076D01*
X142448841Y-131338085D01*
X142380454Y-131387772D01*
X142380452Y-131387774D01*
X142380451Y-131387774D01*
X142241274Y-131526951D01*
X142241274Y-131526952D01*
X142241272Y-131526954D01*
X142191585Y-131595341D01*
X142125576Y-131686194D01*
X142036217Y-131861570D01*
X141975390Y-132048773D01*
X141944600Y-132243177D01*
X141944600Y-132440022D01*
X141975390Y-132634426D01*
X142036217Y-132821629D01*
X142097601Y-132942101D01*
X142125576Y-132997005D01*
X142241272Y-133156246D01*
X142380454Y-133295428D01*
X142539695Y-133411124D01*
X142572320Y-133427747D01*
X142715070Y-133500482D01*
X142715072Y-133500482D01*
X142715075Y-133500484D01*
X142815417Y-133533087D01*
X142902273Y-133561309D01*
X143096678Y-133592100D01*
X143096683Y-133592100D01*
X143293522Y-133592100D01*
X143487926Y-133561309D01*
X143567674Y-133535397D01*
X143675125Y-133500484D01*
X143850505Y-133411124D01*
X144009746Y-133295428D01*
X144148928Y-133156246D01*
X144264624Y-132997005D01*
X144353984Y-132821625D01*
X144384476Y-132727777D01*
X144414723Y-132678420D01*
X144705100Y-132388043D01*
X144705100Y-132394261D01*
X144732359Y-132495994D01*
X144785020Y-132587206D01*
X144859494Y-132661680D01*
X144950706Y-132714341D01*
X145052439Y-132741600D01*
X145058652Y-132741600D01*
X144414973Y-133385277D01*
X144414973Y-133385278D01*
X144449958Y-133410696D01*
X144625264Y-133500018D01*
X144812394Y-133560821D01*
X145006718Y-133591600D01*
X145203482Y-133591600D01*
X145397805Y-133560821D01*
X145584935Y-133500018D01*
X145753037Y-133414367D01*
X145821706Y-133401471D01*
X145886447Y-133427747D01*
X145901215Y-133442943D01*
X145901283Y-133442875D01*
X145907555Y-133449147D01*
X146022764Y-133535393D01*
X146022771Y-133535397D01*
X146157617Y-133585691D01*
X146157616Y-133585691D01*
X146164544Y-133586435D01*
X146217227Y-133592100D01*
X147812972Y-133592099D01*
X147872583Y-133585691D01*
X148007431Y-133535396D01*
X148122646Y-133449146D01*
X148208896Y-133333931D01*
X148259191Y-133199083D01*
X148265600Y-133139473D01*
X148265600Y-133066100D01*
X148285285Y-132999061D01*
X148338089Y-132953306D01*
X148389600Y-132942100D01*
X154551731Y-132942100D01*
X154551747Y-132942101D01*
X154559343Y-132942101D01*
X154717454Y-132942101D01*
X154717457Y-132942101D01*
X154870185Y-132901177D01*
X154920304Y-132872239D01*
X155007116Y-132822120D01*
X155118920Y-132710316D01*
X155118920Y-132710314D01*
X155129128Y-132700107D01*
X155129130Y-132700104D01*
X155915478Y-131913755D01*
X155976799Y-131880272D01*
X156041473Y-131883506D01*
X156083757Y-131897246D01*
X156293713Y-131930500D01*
X156293714Y-131930500D01*
X156506286Y-131930500D01*
X156506287Y-131930500D01*
X156716243Y-131897246D01*
X156918412Y-131831557D01*
X157107816Y-131735051D01*
X157175061Y-131686195D01*
X157279786Y-131610109D01*
X157279788Y-131610106D01*
X157279792Y-131610104D01*
X157430104Y-131459792D01*
X157430106Y-131459788D01*
X157430109Y-131459786D01*
X157555048Y-131287820D01*
X157555047Y-131287820D01*
X157555051Y-131287816D01*
X157651557Y-131098412D01*
X157717246Y-130896243D01*
X157750500Y-130686287D01*
X157750500Y-130473713D01*
X157717246Y-130263757D01*
X157651557Y-130061588D01*
X157555051Y-129872184D01*
X157555049Y-129872181D01*
X157555048Y-129872179D01*
X157430109Y-129700213D01*
X157279786Y-129549890D01*
X157107817Y-129424949D01*
X157098504Y-129420204D01*
X157047707Y-129372230D01*
X157030912Y-129304409D01*
X157053449Y-129238274D01*
X157098507Y-129199232D01*
X157107555Y-129194622D01*
X157161716Y-129155270D01*
X157161717Y-129155270D01*
X156529408Y-128522962D01*
X156592993Y-128505925D01*
X156707007Y-128440099D01*
X156800099Y-128347007D01*
X156865925Y-128232993D01*
X156882962Y-128169408D01*
X157515270Y-128801717D01*
X157515270Y-128801716D01*
X157554622Y-128747554D01*
X157651095Y-128558217D01*
X157716757Y-128356130D01*
X157716757Y-128356127D01*
X157750000Y-128146246D01*
X157750000Y-127933753D01*
X157716757Y-127723872D01*
X157716757Y-127723869D01*
X157651095Y-127521782D01*
X157554624Y-127332449D01*
X157515270Y-127278282D01*
X157515269Y-127278282D01*
X156882962Y-127910590D01*
X156865925Y-127847007D01*
X156800099Y-127732993D01*
X156707007Y-127639901D01*
X156592993Y-127574075D01*
X156529409Y-127557037D01*
X157161716Y-126924728D01*
X157107547Y-126885373D01*
X157107547Y-126885372D01*
X157098500Y-126880763D01*
X157047706Y-126832788D01*
X157030912Y-126764966D01*
X157053451Y-126698832D01*
X157098508Y-126659793D01*
X157107816Y-126655051D01*
X157187007Y-126597515D01*
X157279786Y-126530109D01*
X157279788Y-126530106D01*
X157279792Y-126530104D01*
X157430104Y-126379792D01*
X157430106Y-126379788D01*
X157430109Y-126379786D01*
X157555048Y-126207820D01*
X157555047Y-126207820D01*
X157555051Y-126207816D01*
X157651557Y-126018412D01*
X157717246Y-125816243D01*
X157750500Y-125606287D01*
X157750500Y-125393713D01*
X157717246Y-125183757D01*
X157651557Y-124981588D01*
X157555051Y-124792184D01*
X157555049Y-124792181D01*
X157555048Y-124792179D01*
X157430109Y-124620213D01*
X157279786Y-124469890D01*
X157107820Y-124344951D01*
X157107115Y-124344591D01*
X157099054Y-124340485D01*
X157048259Y-124292512D01*
X157031463Y-124224692D01*
X157053999Y-124158556D01*
X157099054Y-124119515D01*
X157107816Y-124115051D01*
X157129789Y-124099086D01*
X157279786Y-123990109D01*
X157279788Y-123990106D01*
X157279792Y-123990104D01*
X157430104Y-123839792D01*
X157430106Y-123839788D01*
X157430109Y-123839786D01*
X157555048Y-123667820D01*
X157555047Y-123667820D01*
X157555051Y-123667816D01*
X157651557Y-123478412D01*
X157717246Y-123276243D01*
X157750500Y-123066287D01*
X157750500Y-122853713D01*
X157717246Y-122643757D01*
X157651557Y-122441588D01*
X157555051Y-122252184D01*
X157555049Y-122252181D01*
X157555048Y-122252179D01*
X157430109Y-122080213D01*
X157279786Y-121929890D01*
X157107820Y-121804951D01*
X157107115Y-121804591D01*
X157099054Y-121800485D01*
X157048259Y-121752512D01*
X157031463Y-121684692D01*
X157053999Y-121618556D01*
X157099054Y-121579515D01*
X157107816Y-121575051D01*
X157230326Y-121486043D01*
X157279786Y-121450109D01*
X157279788Y-121450106D01*
X157279792Y-121450104D01*
X157430104Y-121299792D01*
X157430106Y-121299788D01*
X157430109Y-121299786D01*
X157555048Y-121127820D01*
X157555047Y-121127820D01*
X157555051Y-121127816D01*
X157651557Y-120938412D01*
X157717246Y-120736243D01*
X157750500Y-120526287D01*
X157750500Y-120313713D01*
X157717246Y-120103757D01*
X157651557Y-119901588D01*
X157555051Y-119712184D01*
X157555049Y-119712181D01*
X157555048Y-119712179D01*
X157430109Y-119540213D01*
X157279786Y-119389890D01*
X157107820Y-119264951D01*
X157107115Y-119264591D01*
X157099054Y-119260485D01*
X157048259Y-119212512D01*
X157031463Y-119144692D01*
X157053999Y-119078556D01*
X157099054Y-119039515D01*
X157107816Y-119035051D01*
X157248163Y-118933084D01*
X157279786Y-118910109D01*
X157279788Y-118910106D01*
X157279792Y-118910104D01*
X157430104Y-118759792D01*
X157430106Y-118759788D01*
X157430109Y-118759786D01*
X157555048Y-118587820D01*
X157555047Y-118587820D01*
X157555051Y-118587816D01*
X157651557Y-118398412D01*
X157717246Y-118196243D01*
X157750500Y-117986287D01*
X157750500Y-117773713D01*
X157717246Y-117563757D01*
X157651557Y-117361588D01*
X157555051Y-117172184D01*
X157555049Y-117172181D01*
X157555048Y-117172179D01*
X157430109Y-117000213D01*
X157279786Y-116849890D01*
X157107820Y-116724951D01*
X157107115Y-116724591D01*
X157099054Y-116720485D01*
X157048259Y-116672512D01*
X157031463Y-116604692D01*
X157053999Y-116538556D01*
X157099054Y-116499515D01*
X157107816Y-116495051D01*
X157129789Y-116479086D01*
X157279786Y-116370109D01*
X157279788Y-116370106D01*
X157279792Y-116370104D01*
X157430104Y-116219792D01*
X157430106Y-116219788D01*
X157430109Y-116219786D01*
X157555048Y-116047820D01*
X157555047Y-116047820D01*
X157555051Y-116047816D01*
X157651557Y-115858412D01*
X157717246Y-115656243D01*
X157750500Y-115446287D01*
X157750500Y-115233713D01*
X157717246Y-115023757D01*
X157651557Y-114821588D01*
X157555051Y-114632184D01*
X157555049Y-114632181D01*
X157555048Y-114632179D01*
X157430109Y-114460213D01*
X157316569Y-114346673D01*
X157283084Y-114285350D01*
X157288068Y-114215658D01*
X157329940Y-114159725D01*
X157360915Y-114142810D01*
X157492331Y-114093796D01*
X157607546Y-114007546D01*
X157693796Y-113892331D01*
X157744091Y-113757483D01*
X157750500Y-113697873D01*
X157750499Y-111902128D01*
X157744091Y-111842517D01*
X157698656Y-111720700D01*
X157693797Y-111707671D01*
X157693793Y-111707664D01*
X157607547Y-111592455D01*
X157607544Y-111592452D01*
X157492335Y-111506206D01*
X157492328Y-111506202D01*
X157357482Y-111455908D01*
X157357483Y-111455908D01*
X157297883Y-111449501D01*
X157297881Y-111449500D01*
X157297873Y-111449500D01*
X157297864Y-111449500D01*
X155502129Y-111449500D01*
X155502123Y-111449501D01*
X155442516Y-111455908D01*
X155307671Y-111506202D01*
X155307664Y-111506206D01*
X155192455Y-111592452D01*
X155192452Y-111592455D01*
X155106206Y-111707664D01*
X155106202Y-111707671D01*
X155055908Y-111842517D01*
X155049501Y-111902116D01*
X155049501Y-111902123D01*
X155049500Y-111902135D01*
X155049500Y-113697870D01*
X155049501Y-113697876D01*
X155055908Y-113757483D01*
X155106202Y-113892328D01*
X155106206Y-113892335D01*
X155192452Y-114007544D01*
X155192455Y-114007547D01*
X155307664Y-114093793D01*
X155307671Y-114093797D01*
X155439082Y-114142810D01*
X155495016Y-114184681D01*
X155519433Y-114250145D01*
X155504582Y-114318418D01*
X155483431Y-114346673D01*
X155369889Y-114460215D01*
X155244951Y-114632179D01*
X155148444Y-114821585D01*
X155082753Y-115023760D01*
X155049500Y-115233713D01*
X155049500Y-115446286D01*
X155069567Y-115572988D01*
X155082754Y-115656243D01*
X155147993Y-115857028D01*
X155148444Y-115858414D01*
X155244951Y-116047820D01*
X155369890Y-116219786D01*
X155520213Y-116370109D01*
X155692182Y-116495050D01*
X155700946Y-116499516D01*
X155751742Y-116547491D01*
X155768536Y-116615312D01*
X155745998Y-116681447D01*
X155700946Y-116720484D01*
X155692182Y-116724949D01*
X155520213Y-116849890D01*
X155369890Y-117000213D01*
X155244951Y-117172179D01*
X155148444Y-117361585D01*
X155082753Y-117563760D01*
X155051687Y-117759903D01*
X155049500Y-117773713D01*
X155049500Y-117986287D01*
X155059534Y-118049644D01*
X155076973Y-118159748D01*
X155082754Y-118196243D01*
X155134917Y-118356784D01*
X155148444Y-118398414D01*
X155244951Y-118587820D01*
X155369890Y-118759786D01*
X155520213Y-118910109D01*
X155692182Y-119035050D01*
X155700946Y-119039516D01*
X155751742Y-119087491D01*
X155768536Y-119155312D01*
X155745998Y-119221447D01*
X155700946Y-119260484D01*
X155692182Y-119264949D01*
X155520213Y-119389890D01*
X155369890Y-119540213D01*
X155244951Y-119712179D01*
X155148444Y-119901585D01*
X155148443Y-119901587D01*
X155148443Y-119901588D01*
X155128039Y-119964385D01*
X155082753Y-120103760D01*
X155049500Y-120313713D01*
X155049500Y-120526286D01*
X155082753Y-120736239D01*
X155148444Y-120938414D01*
X155244951Y-121127820D01*
X155369890Y-121299786D01*
X155520213Y-121450109D01*
X155692182Y-121575050D01*
X155700946Y-121579516D01*
X155751742Y-121627491D01*
X155768536Y-121695312D01*
X155745998Y-121761447D01*
X155700946Y-121800484D01*
X155692182Y-121804949D01*
X155520213Y-121929890D01*
X155369890Y-122080213D01*
X155244951Y-122252179D01*
X155148444Y-122441585D01*
X155082753Y-122643760D01*
X155049500Y-122853713D01*
X155049500Y-123066286D01*
X155082753Y-123276239D01*
X155148444Y-123478414D01*
X155244951Y-123667820D01*
X155369890Y-123839786D01*
X155520213Y-123990109D01*
X155692182Y-124115050D01*
X155700946Y-124119516D01*
X155751742Y-124167491D01*
X155768536Y-124235312D01*
X155745998Y-124301447D01*
X155700946Y-124340484D01*
X155692182Y-124344949D01*
X155520213Y-124469890D01*
X155369890Y-124620213D01*
X155244951Y-124792179D01*
X155148444Y-124981585D01*
X155148443Y-124981587D01*
X155148443Y-124981588D01*
X155121993Y-125062994D01*
X155099103Y-125133441D01*
X155059665Y-125191117D01*
X154995307Y-125218315D01*
X154981172Y-125219123D01*
X140944093Y-125219123D01*
X140877054Y-125199438D01*
X140831299Y-125146634D01*
X140821154Y-125111307D01*
X140814794Y-125062994D01*
X140814792Y-125062989D01*
X140754337Y-124917037D01*
X140658161Y-124791698D01*
X140532823Y-124695522D01*
X140386868Y-124635067D01*
X140300236Y-124623660D01*
X140266495Y-124653251D01*
X140203113Y-124682653D01*
X140133896Y-124673120D01*
X140080822Y-124627680D01*
X140060739Y-124560759D01*
X140060737Y-124560022D01*
X140060737Y-121549588D01*
X140080422Y-121482549D01*
X140133226Y-121436794D01*
X140202384Y-121426850D01*
X140206138Y-121427449D01*
X140435590Y-121467654D01*
X140440285Y-121469975D01*
X140440345Y-121469526D01*
X140444090Y-121470019D01*
X140446286Y-121470019D01*
X140448395Y-121470583D01*
X140448403Y-121470587D01*
X140565804Y-121486043D01*
X140904525Y-121486042D01*
X140904528Y-121486042D01*
X141021918Y-121470589D01*
X141021922Y-121470587D01*
X141021927Y-121470587D01*
X141168006Y-121410079D01*
X141293447Y-121313825D01*
X141389701Y-121188384D01*
X141450209Y-121042305D01*
X141465665Y-120924904D01*
X141465664Y-120646183D01*
X141465664Y-120646179D01*
X141450211Y-120528789D01*
X141450209Y-120528784D01*
X141450209Y-120528781D01*
X141389701Y-120382702D01*
X141389700Y-120382701D01*
X141389700Y-120382700D01*
X141361289Y-120345674D01*
X141336095Y-120280505D01*
X141335665Y-120270188D01*
X141335665Y-120224501D01*
X141355350Y-120157462D01*
X141408154Y-120111707D01*
X141459665Y-120100501D01*
X141486654Y-120100501D01*
X141486670Y-120100500D01*
X143713331Y-120100500D01*
X143713347Y-120100501D01*
X143720943Y-120100501D01*
X143879054Y-120100501D01*
X143879057Y-120100501D01*
X144031785Y-120059577D01*
X144081904Y-120030639D01*
X144168716Y-119980520D01*
X144280520Y-119868716D01*
X144280520Y-119868714D01*
X144290728Y-119858507D01*
X144290729Y-119858504D01*
X145655520Y-118493716D01*
X145734577Y-118356784D01*
X145775501Y-118204057D01*
X145775501Y-118045942D01*
X145775501Y-118038347D01*
X145775500Y-118038329D01*
X145775500Y-117109503D01*
X145784939Y-117062050D01*
X145810499Y-117000344D01*
X145822564Y-116939692D01*
X145835498Y-116874671D01*
X145835498Y-116813112D01*
X145844937Y-116765659D01*
X145848853Y-116756206D01*
X145890044Y-116656762D01*
X145905500Y-116539361D01*
X145905499Y-116260640D01*
X145905499Y-116260636D01*
X145890046Y-116143246D01*
X145890044Y-116143241D01*
X145890044Y-116143238D01*
X145829536Y-115997159D01*
X145733282Y-115871718D01*
X145607841Y-115775464D01*
X145461762Y-115714956D01*
X145461760Y-115714955D01*
X145344361Y-115699500D01*
X145005636Y-115699500D01*
X144888246Y-115714953D01*
X144888238Y-115714956D01*
X144805211Y-115749346D01*
X144735742Y-115756813D01*
X144673263Y-115725538D01*
X144637611Y-115665448D01*
X144633760Y-115634789D01*
X144633760Y-115489598D01*
X144653445Y-115422560D01*
X144706249Y-115376805D01*
X144757760Y-115365599D01*
X145265271Y-115365599D01*
X145265272Y-115365597D01*
X145257818Y-115308971D01*
X145257816Y-115308965D01*
X145197361Y-115163013D01*
X145101185Y-115037674D01*
X144975847Y-114941498D01*
X144829892Y-114881043D01*
X144743261Y-114869637D01*
X144743261Y-115039167D01*
X144723576Y-115106206D01*
X144670772Y-115151961D01*
X144601614Y-115161905D01*
X144538058Y-115132880D01*
X144520888Y-115114657D01*
X144461543Y-115037317D01*
X144391773Y-114983780D01*
X144350572Y-114927354D01*
X144343261Y-114885406D01*
X144343261Y-114869637D01*
X144256626Y-114881043D01*
X144256316Y-114881127D01*
X144255994Y-114881126D01*
X144248574Y-114882104D01*
X144248445Y-114881126D01*
X144198144Y-114881125D01*
X144198080Y-114881616D01*
X144194351Y-114881125D01*
X144192152Y-114881125D01*
X144190027Y-114880555D01*
X144107814Y-114869732D01*
X144043918Y-114841465D01*
X144005447Y-114783141D01*
X144000000Y-114746793D01*
X144000000Y-114250000D01*
X142850000Y-114250000D01*
X142850000Y-115500000D01*
X143048762Y-115500000D01*
X143115801Y-115519685D01*
X143161556Y-115572489D01*
X143172762Y-115624000D01*
X143172762Y-115704962D01*
X143188214Y-115822352D01*
X143188218Y-115822364D01*
X143248722Y-115968435D01*
X143248722Y-115968436D01*
X143248724Y-115968439D01*
X143248725Y-115968440D01*
X143277137Y-116005468D01*
X143302331Y-116070635D01*
X143302761Y-116080953D01*
X143302761Y-116491741D01*
X143293322Y-116539194D01*
X143258628Y-116622953D01*
X143214787Y-116677356D01*
X143148493Y-116699421D01*
X143144067Y-116699500D01*
X141652129Y-116699500D01*
X141652123Y-116699501D01*
X141592516Y-116705908D01*
X141457671Y-116756202D01*
X141457664Y-116756206D01*
X141342455Y-116842452D01*
X141342452Y-116842455D01*
X141256206Y-116957664D01*
X141256202Y-116957671D01*
X141205908Y-117092517D01*
X141199501Y-117152116D01*
X141199501Y-117152123D01*
X141199500Y-117152135D01*
X141199500Y-118296967D01*
X141179815Y-118364006D01*
X141127011Y-118409761D01*
X141057853Y-118419705D01*
X141043413Y-118416743D01*
X140979057Y-118399499D01*
X140820943Y-118399499D01*
X140813347Y-118399499D01*
X140813331Y-118399500D01*
X140139059Y-118399500D01*
X139980945Y-118399500D01*
X139828217Y-118440423D01*
X139828216Y-118440423D01*
X139828214Y-118440424D01*
X139828211Y-118440425D01*
X139778098Y-118469359D01*
X139778097Y-118469360D01*
X139760503Y-118479518D01*
X139691287Y-118519479D01*
X139691284Y-118519481D01*
X139579480Y-118631286D01*
X139277681Y-118933084D01*
X139216358Y-118966569D01*
X139146666Y-118961585D01*
X139102319Y-118933084D01*
X138956818Y-118787583D01*
X138923333Y-118726260D01*
X138920499Y-118699902D01*
X138920499Y-117152129D01*
X138920498Y-117152123D01*
X138920497Y-117152116D01*
X138914091Y-117092517D01*
X138879710Y-117000338D01*
X138863797Y-116957671D01*
X138863793Y-116957664D01*
X138777547Y-116842455D01*
X138777544Y-116842452D01*
X138662335Y-116756206D01*
X138662328Y-116756202D01*
X138527482Y-116705908D01*
X138519938Y-116704126D01*
X138520299Y-116702594D01*
X138464036Y-116679279D01*
X138424196Y-116621881D01*
X138421712Y-116552056D01*
X138454173Y-116495060D01*
X139901390Y-115047844D01*
X141200000Y-115047844D01*
X141206401Y-115107372D01*
X141206403Y-115107379D01*
X141256645Y-115242086D01*
X141256649Y-115242093D01*
X141342809Y-115357187D01*
X141342812Y-115357190D01*
X141457906Y-115443350D01*
X141457913Y-115443354D01*
X141592620Y-115493596D01*
X141592627Y-115493598D01*
X141652155Y-115499999D01*
X141652172Y-115500000D01*
X142350000Y-115500000D01*
X142350000Y-114250000D01*
X141200000Y-114250000D01*
X141200000Y-115047844D01*
X139901390Y-115047844D01*
X141162916Y-113786318D01*
X141224238Y-113752834D01*
X141250596Y-113750000D01*
X144000000Y-113750000D01*
X144000000Y-112952172D01*
X143999999Y-112952155D01*
X143993598Y-112892627D01*
X143993596Y-112892620D01*
X143943354Y-112757913D01*
X143943350Y-112757906D01*
X143857190Y-112642812D01*
X143857187Y-112642809D01*
X143742093Y-112556649D01*
X143742086Y-112556645D01*
X143607379Y-112506403D01*
X143607372Y-112506401D01*
X143547844Y-112500000D01*
X142748597Y-112500000D01*
X142681558Y-112480315D01*
X142635803Y-112427511D01*
X142625859Y-112358353D01*
X142654884Y-112294797D01*
X142660916Y-112288319D01*
X142744133Y-112205102D01*
X142805456Y-112171617D01*
X142831814Y-112168783D01*
X144768674Y-112168783D01*
X144768690Y-112168784D01*
X144776286Y-112168784D01*
X144934397Y-112168784D01*
X144934400Y-112168784D01*
X145087128Y-112127860D01*
X145137247Y-112098922D01*
X145224059Y-112048803D01*
X145335863Y-111936999D01*
X145335863Y-111936997D01*
X145346071Y-111926790D01*
X145346073Y-111926787D01*
X145513848Y-111759011D01*
X145513858Y-111759004D01*
X145524060Y-111748802D01*
X145557377Y-111715483D01*
X145583067Y-111695773D01*
X145588177Y-111692821D01*
X145588185Y-111692819D01*
X145713626Y-111596565D01*
X145809880Y-111471124D01*
X145870388Y-111325045D01*
X145878690Y-111261981D01*
X145906956Y-111198086D01*
X145913948Y-111190486D01*
X146617968Y-110486466D01*
X148867749Y-108236687D01*
X148946806Y-108099755D01*
X148987730Y-107947028D01*
X148987730Y-107788913D01*
X148987730Y-107781318D01*
X148987729Y-107781300D01*
X148987729Y-101686816D01*
X149007414Y-101619777D01*
X149060218Y-101574022D01*
X149111729Y-101562816D01*
X154436014Y-101562816D01*
X154436030Y-101562817D01*
X154443626Y-101562817D01*
X154601737Y-101562817D01*
X154601740Y-101562817D01*
X154754468Y-101521893D01*
X154804587Y-101492955D01*
X154891399Y-101442836D01*
X155003203Y-101331032D01*
X155003204Y-101331030D01*
X155287034Y-101047199D01*
X155312719Y-101027492D01*
X155317828Y-101024541D01*
X155317841Y-101024536D01*
X155364881Y-100988441D01*
X155430050Y-100963246D01*
X155440368Y-100962816D01*
X155904557Y-100962816D01*
X155971596Y-100982501D01*
X155973448Y-100983714D01*
X156105137Y-101071706D01*
X156105150Y-101071713D01*
X156239358Y-101127303D01*
X156250826Y-101132053D01*
X156405476Y-101162815D01*
X156405479Y-101162816D01*
X156405481Y-101162816D01*
X156563167Y-101162816D01*
X156563168Y-101162815D01*
X156717820Y-101132053D01*
X156835048Y-101083496D01*
X156863495Y-101071713D01*
X156863495Y-101071712D01*
X156863502Y-101071710D01*
X156994612Y-100984105D01*
X157106112Y-100872605D01*
X157193717Y-100741495D01*
X157254060Y-100595813D01*
X157284823Y-100441158D01*
X157284823Y-100283474D01*
X157284823Y-100283471D01*
X157284822Y-100283469D01*
X157256928Y-100143238D01*
X157254060Y-100128819D01*
X157254058Y-100128814D01*
X157193720Y-99983143D01*
X157193713Y-99983130D01*
X157106112Y-99852027D01*
X157106109Y-99852023D01*
X156994615Y-99740529D01*
X156994611Y-99740526D01*
X156863508Y-99652925D01*
X156863495Y-99652918D01*
X156717824Y-99592580D01*
X156717812Y-99592577D01*
X156563168Y-99561816D01*
X156563165Y-99561816D01*
X156405481Y-99561816D01*
X156405478Y-99561816D01*
X156250833Y-99592577D01*
X156250821Y-99592580D01*
X156105150Y-99652918D01*
X156105137Y-99652925D01*
X155973448Y-99740918D01*
X155906770Y-99761796D01*
X155904557Y-99761816D01*
X155309557Y-99761816D01*
X155262104Y-99752377D01*
X155258352Y-99750823D01*
X155171762Y-99714956D01*
X155171760Y-99714955D01*
X155054361Y-99699500D01*
X154715637Y-99699500D01*
X154598236Y-99714955D01*
X154596111Y-99715525D01*
X154593910Y-99715525D01*
X154590181Y-99716016D01*
X154590116Y-99715525D01*
X154539815Y-99715525D01*
X154539687Y-99716505D01*
X154532251Y-99715525D01*
X154531937Y-99715526D01*
X154531633Y-99715444D01*
X154445000Y-99704038D01*
X154445000Y-99719807D01*
X154425315Y-99786846D01*
X154396488Y-99818181D01*
X154326718Y-99871718D01*
X154267374Y-99949056D01*
X154210948Y-99990257D01*
X154141202Y-99994412D01*
X154080281Y-99960199D01*
X154047529Y-99898482D01*
X154045000Y-99873568D01*
X154045000Y-99704038D01*
X153958369Y-99715444D01*
X153958365Y-99715445D01*
X153812413Y-99775899D01*
X153687075Y-99872075D01*
X153590899Y-99997413D01*
X153530445Y-100143365D01*
X153530443Y-100143370D01*
X153515879Y-100254001D01*
X153487612Y-100317898D01*
X153429288Y-100356369D01*
X153392940Y-100361816D01*
X149302450Y-100361816D01*
X149235411Y-100342131D01*
X149189656Y-100289327D01*
X149180833Y-100262008D01*
X149156967Y-100142029D01*
X149156966Y-100142028D01*
X149156966Y-100142024D01*
X149097067Y-99997413D01*
X149096626Y-99996348D01*
X149096619Y-99996335D01*
X149009018Y-99865232D01*
X149009015Y-99865228D01*
X148897521Y-99753734D01*
X148897517Y-99753731D01*
X148766414Y-99666130D01*
X148766401Y-99666123D01*
X148620730Y-99605785D01*
X148620718Y-99605782D01*
X148466074Y-99575021D01*
X148466071Y-99575021D01*
X148308387Y-99575021D01*
X148308384Y-99575021D01*
X148153739Y-99605782D01*
X148153727Y-99605785D01*
X148008056Y-99666123D01*
X148008043Y-99666130D01*
X147876354Y-99754123D01*
X147809676Y-99775001D01*
X147807463Y-99775021D01*
X147219042Y-99775021D01*
X147152003Y-99755336D01*
X147131361Y-99738702D01*
X146806535Y-99413876D01*
X146806533Y-99413873D01*
X146687662Y-99295002D01*
X146687661Y-99295001D01*
X146600849Y-99244881D01*
X146600849Y-99244880D01*
X146600845Y-99244879D01*
X146550730Y-99215944D01*
X146398002Y-99175020D01*
X146239888Y-99175020D01*
X146232292Y-99175020D01*
X146232276Y-99175021D01*
X140566286Y-99175021D01*
X140408172Y-99175021D01*
X140255444Y-99215944D01*
X140255443Y-99215944D01*
X140255441Y-99215945D01*
X140255438Y-99215946D01*
X140205325Y-99244880D01*
X140205324Y-99244881D01*
X140161918Y-99269941D01*
X140118514Y-99295000D01*
X140118511Y-99295002D01*
X140006709Y-99406805D01*
X140006707Y-99406807D01*
X139932078Y-99481436D01*
X139872566Y-99540948D01*
X139811243Y-99574432D01*
X139809077Y-99574883D01*
X139653737Y-99605782D01*
X139653727Y-99605785D01*
X139508056Y-99666123D01*
X139508043Y-99666130D01*
X139376354Y-99754123D01*
X139309676Y-99775001D01*
X139307463Y-99775021D01*
X139036634Y-99775021D01*
X138969595Y-99755336D01*
X138923840Y-99702532D01*
X138912634Y-99651021D01*
X138912634Y-96046194D01*
X138912635Y-96046181D01*
X138912635Y-95878078D01*
X138871710Y-95725348D01*
X138871707Y-95725343D01*
X138792658Y-95588424D01*
X138792652Y-95588416D01*
X136991819Y-93787583D01*
X136958334Y-93726260D01*
X136955500Y-93699902D01*
X136955500Y-93550097D01*
X136975185Y-93483058D01*
X136991819Y-93462416D01*
X138152039Y-92302196D01*
X139388287Y-91065949D01*
X139467344Y-90929018D01*
X139508268Y-90776290D01*
X139508268Y-90618175D01*
X139508268Y-90610580D01*
X139508267Y-90610562D01*
X139508267Y-90607417D01*
X139527952Y-90540378D01*
X139580756Y-90494623D01*
X139649914Y-90484679D01*
X139656419Y-90485792D01*
X139764945Y-90507379D01*
X139826853Y-90539762D01*
X139828426Y-90541308D01*
X140085849Y-90798732D01*
X140085850Y-90798733D01*
X140172975Y-90885858D01*
X140253046Y-90939360D01*
X140275422Y-90954311D01*
X140389256Y-91001463D01*
X140510096Y-91025499D01*
X140510100Y-91025500D01*
X140510101Y-91025500D01*
X147764357Y-91025500D01*
X147824779Y-91013481D01*
X147885202Y-91001463D01*
X147885205Y-91001461D01*
X147885208Y-91001461D01*
X147918537Y-90987654D01*
X147918536Y-90987654D01*
X147918542Y-90987652D01*
X147999036Y-90954312D01*
X148050259Y-90920084D01*
X148057918Y-90914967D01*
X148066475Y-90909249D01*
X148101483Y-90885858D01*
X148188608Y-90798733D01*
X148188608Y-90798731D01*
X148198816Y-90788524D01*
X148198818Y-90788521D01*
X148446026Y-90541312D01*
X148507347Y-90507829D01*
X148509357Y-90507410D01*
X148620726Y-90485258D01*
X148766408Y-90424915D01*
X148897518Y-90337310D01*
X149009018Y-90225810D01*
X149096623Y-90094700D01*
X149156966Y-89949018D01*
X149186086Y-89802625D01*
X149218471Y-89740714D01*
X149279186Y-89706140D01*
X149307703Y-89702816D01*
X153026475Y-89702816D01*
X153093514Y-89722501D01*
X153139269Y-89775305D01*
X153148092Y-89802624D01*
X153174584Y-89935807D01*
X153174587Y-89935817D01*
X153234925Y-90081488D01*
X153234932Y-90081501D01*
X153322533Y-90212604D01*
X153322536Y-90212608D01*
X153434030Y-90324102D01*
X153434034Y-90324105D01*
X153565137Y-90411706D01*
X153565150Y-90411713D01*
X153651438Y-90447454D01*
X153710826Y-90472053D01*
X153828209Y-90495402D01*
X153865476Y-90502815D01*
X153865479Y-90502816D01*
X153865481Y-90502816D01*
X154023167Y-90502816D01*
X154023168Y-90502815D01*
X154177820Y-90472053D01*
X154323502Y-90411710D01*
X154347022Y-90395993D01*
X154413696Y-90375116D01*
X154481077Y-90393599D01*
X154503593Y-90411415D01*
X154905348Y-90813171D01*
X154905352Y-90813174D01*
X155007795Y-90881625D01*
X155007796Y-90881625D01*
X155007800Y-90881628D01*
X155074481Y-90909247D01*
X155074483Y-90909249D01*
X155100642Y-90920084D01*
X155121633Y-90928779D01*
X155242479Y-90952816D01*
X155242481Y-90952816D01*
X156804815Y-90952816D01*
X156804815Y-90952815D01*
X156872463Y-90939360D01*
X156872464Y-90939360D01*
X156890522Y-90935767D01*
X156925659Y-90928779D01*
X156958999Y-90914968D01*
X157039493Y-90881628D01*
X157090716Y-90847400D01*
X157141940Y-90813174D01*
X157229065Y-90726049D01*
X157229065Y-90726047D01*
X157239273Y-90715840D01*
X157239274Y-90715837D01*
X158685857Y-89269257D01*
X158712313Y-89229664D01*
X158712314Y-89229663D01*
X158754310Y-89166811D01*
X158754310Y-89166810D01*
X158754311Y-89166809D01*
X158801463Y-89052975D01*
X158810646Y-89006808D01*
X158813542Y-88992251D01*
X158813542Y-88992246D01*
X158825500Y-88932130D01*
X158825500Y-88808917D01*
X158825500Y-61474499D01*
X158845185Y-61407460D01*
X158897989Y-61361705D01*
X158949500Y-61350499D01*
X159097871Y-61350499D01*
X159097872Y-61350499D01*
X159157483Y-61344091D01*
X159292331Y-61293796D01*
X159407546Y-61207546D01*
X159493796Y-61092331D01*
X159544091Y-60957483D01*
X159550500Y-60897873D01*
X159550499Y-59102128D01*
X159544091Y-59042517D01*
X159493796Y-58907669D01*
X159493795Y-58907668D01*
X159493793Y-58907664D01*
X159407547Y-58792455D01*
X159407544Y-58792452D01*
X159292335Y-58706206D01*
X159292328Y-58706202D01*
X159157482Y-58655908D01*
X159157483Y-58655908D01*
X159097883Y-58649501D01*
X159097881Y-58649500D01*
X159097873Y-58649500D01*
X159097864Y-58649500D01*
X157302129Y-58649500D01*
X157302123Y-58649501D01*
X157242516Y-58655908D01*
X157107671Y-58706202D01*
X157107664Y-58706206D01*
X156992455Y-58792452D01*
X156992452Y-58792455D01*
X156906206Y-58907664D01*
X156906202Y-58907671D01*
X156855908Y-59042517D01*
X156849501Y-59102116D01*
X156849501Y-59102123D01*
X156849500Y-59102135D01*
X156849500Y-60897870D01*
X156849501Y-60897876D01*
X156855908Y-60957483D01*
X156906202Y-61092328D01*
X156906206Y-61092335D01*
X156992452Y-61207544D01*
X156992455Y-61207547D01*
X157107664Y-61293793D01*
X157107671Y-61293797D01*
X157152618Y-61310561D01*
X157242517Y-61344091D01*
X157302127Y-61350500D01*
X157450500Y-61350499D01*
X157517539Y-61370183D01*
X157563294Y-61422987D01*
X157574500Y-61474499D01*
X157574500Y-88560069D01*
X157554815Y-88627108D01*
X157538181Y-88647750D01*
X157132985Y-89052945D01*
X157071662Y-89086430D01*
X157001970Y-89081446D01*
X156976413Y-89068366D01*
X156863508Y-88992925D01*
X156863495Y-88992918D01*
X156717824Y-88932580D01*
X156717812Y-88932577D01*
X156563168Y-88901816D01*
X156563165Y-88901816D01*
X156405481Y-88901816D01*
X156405478Y-88901816D01*
X156250833Y-88932577D01*
X156250821Y-88932580D01*
X156137152Y-88979663D01*
X156067682Y-88987132D01*
X156005203Y-88955856D01*
X156002019Y-88952783D01*
X155800277Y-88751042D01*
X155800275Y-88751039D01*
X155671033Y-88621797D01*
X155671028Y-88621793D01*
X155563265Y-88559577D01*
X155563263Y-88559576D01*
X155534103Y-88542740D01*
X155534102Y-88542739D01*
X155534101Y-88542739D01*
X155381373Y-88501815D01*
X155223259Y-88501815D01*
X155215663Y-88501815D01*
X155215647Y-88501816D01*
X149087103Y-88501816D01*
X149087087Y-88501815D01*
X149079491Y-88501815D01*
X148921377Y-88501815D01*
X148768649Y-88542739D01*
X148768648Y-88542739D01*
X148768646Y-88542740D01*
X148739487Y-88559576D01*
X148739485Y-88559577D01*
X148631721Y-88621793D01*
X148631716Y-88621797D01*
X148519914Y-88733600D01*
X148519912Y-88733602D01*
X148444597Y-88808917D01*
X148372567Y-88880947D01*
X148311244Y-88914431D01*
X148309078Y-88914882D01*
X148153737Y-88945782D01*
X148153727Y-88945785D01*
X148008057Y-89006123D01*
X148008041Y-89006132D01*
X147953140Y-89042815D01*
X147886462Y-89063692D01*
X147836798Y-89054273D01*
X147739525Y-89013981D01*
X147724979Y-89006808D01*
X147669392Y-88974715D01*
X147669393Y-88974715D01*
X147599009Y-88955856D01*
X147516665Y-88933792D01*
X147516664Y-88933792D01*
X147515014Y-88933350D01*
X147455354Y-88896985D01*
X147424825Y-88834138D01*
X147423108Y-88813575D01*
X147423108Y-65936004D01*
X147423108Y-65936002D01*
X147399071Y-65815156D01*
X147385260Y-65781815D01*
X147351920Y-65701322D01*
X147317692Y-65650098D01*
X147283466Y-65598875D01*
X147283464Y-65598872D01*
X147193245Y-65508653D01*
X147193214Y-65508624D01*
X142413139Y-60728549D01*
X144809500Y-60728549D01*
X144809500Y-60951450D01*
X144809501Y-60951466D01*
X144838594Y-61172452D01*
X144838595Y-61172457D01*
X144838596Y-61172463D01*
X144896290Y-61387780D01*
X144896293Y-61387790D01*
X144979806Y-61589408D01*
X144981595Y-61593726D01*
X145093052Y-61786774D01*
X145093057Y-61786780D01*
X145093058Y-61786782D01*
X145228751Y-61963622D01*
X145228757Y-61963629D01*
X145386370Y-62121242D01*
X145386376Y-62121247D01*
X145563226Y-62256948D01*
X145756274Y-62368405D01*
X145886140Y-62422197D01*
X145951784Y-62449388D01*
X145962219Y-62453710D01*
X146177537Y-62511404D01*
X146398543Y-62540500D01*
X146398550Y-62540500D01*
X146621450Y-62540500D01*
X146621457Y-62540500D01*
X146842463Y-62511404D01*
X147057781Y-62453710D01*
X147263726Y-62368405D01*
X147456774Y-62256948D01*
X147633624Y-62121247D01*
X147791247Y-61963624D01*
X147926948Y-61786774D01*
X148038405Y-61593726D01*
X148123710Y-61387781D01*
X148181404Y-61172463D01*
X148210500Y-60951457D01*
X148210500Y-60728543D01*
X148181404Y-60507537D01*
X148123710Y-60292219D01*
X148121921Y-60287901D01*
X148038406Y-60086277D01*
X148038405Y-60086274D01*
X147926948Y-59893226D01*
X147791247Y-59716376D01*
X147791242Y-59716370D01*
X147633629Y-59558757D01*
X147633622Y-59558751D01*
X147456782Y-59423058D01*
X147456780Y-59423057D01*
X147456774Y-59423052D01*
X147263726Y-59311595D01*
X147263722Y-59311593D01*
X147057790Y-59226293D01*
X147057783Y-59226291D01*
X147057781Y-59226290D01*
X146842463Y-59168596D01*
X146842457Y-59168595D01*
X146842452Y-59168594D01*
X146621466Y-59139501D01*
X146621463Y-59139500D01*
X146621457Y-59139500D01*
X146398543Y-59139500D01*
X146398537Y-59139500D01*
X146398533Y-59139501D01*
X146177547Y-59168594D01*
X146177540Y-59168595D01*
X146177537Y-59168596D01*
X145990990Y-59218581D01*
X145962219Y-59226290D01*
X145962209Y-59226293D01*
X145756277Y-59311593D01*
X145756273Y-59311595D01*
X145563226Y-59423052D01*
X145563217Y-59423058D01*
X145386377Y-59558751D01*
X145386370Y-59558757D01*
X145228757Y-59716370D01*
X145228751Y-59716377D01*
X145093058Y-59893217D01*
X145093052Y-59893226D01*
X144981595Y-60086273D01*
X144981593Y-60086277D01*
X144896293Y-60292209D01*
X144896290Y-60292219D01*
X144839751Y-60503229D01*
X144838597Y-60507534D01*
X144838594Y-60507547D01*
X144809501Y-60728533D01*
X144809500Y-60728549D01*
X142413139Y-60728549D01*
X140786725Y-59102135D01*
X153249500Y-59102135D01*
X153249500Y-60897870D01*
X153249501Y-60897876D01*
X153255908Y-60957483D01*
X153306202Y-61092328D01*
X153306206Y-61092335D01*
X153392452Y-61207544D01*
X153392455Y-61207547D01*
X153507664Y-61293793D01*
X153507671Y-61293797D01*
X153642517Y-61344091D01*
X153642516Y-61344091D01*
X153649444Y-61344835D01*
X153702127Y-61350500D01*
X155497872Y-61350499D01*
X155557483Y-61344091D01*
X155692331Y-61293796D01*
X155807546Y-61207546D01*
X155893796Y-61092331D01*
X155944091Y-60957483D01*
X155950500Y-60897873D01*
X155950499Y-59102128D01*
X155944091Y-59042517D01*
X155893796Y-58907669D01*
X155893795Y-58907668D01*
X155893793Y-58907664D01*
X155807547Y-58792455D01*
X155807544Y-58792452D01*
X155692335Y-58706206D01*
X155692328Y-58706202D01*
X155557482Y-58655908D01*
X155557483Y-58655908D01*
X155497883Y-58649501D01*
X155497881Y-58649500D01*
X155497873Y-58649500D01*
X155497864Y-58649500D01*
X153702129Y-58649500D01*
X153702123Y-58649501D01*
X153642516Y-58655908D01*
X153507671Y-58706202D01*
X153507664Y-58706206D01*
X153392455Y-58792452D01*
X153392452Y-58792455D01*
X153306206Y-58907664D01*
X153306202Y-58907671D01*
X153255908Y-59042517D01*
X153249501Y-59102116D01*
X153249501Y-59102123D01*
X153249500Y-59102135D01*
X140786725Y-59102135D01*
X138516446Y-56831856D01*
X138482961Y-56770533D01*
X138480127Y-56744175D01*
X138480127Y-47260053D01*
X138499812Y-47193014D01*
X138552616Y-47147259D01*
X138556652Y-47145501D01*
X138608353Y-47124087D01*
X138801401Y-47012630D01*
X138978251Y-46876929D01*
X139135874Y-46719306D01*
X139271575Y-46542456D01*
X139383032Y-46349408D01*
X139468337Y-46143463D01*
X139526031Y-45928145D01*
X139555127Y-45707139D01*
X139555127Y-45488549D01*
X144809500Y-45488549D01*
X144809500Y-45711450D01*
X144809501Y-45711466D01*
X144838594Y-45932452D01*
X144838595Y-45932457D01*
X144838596Y-45932463D01*
X144896290Y-46147780D01*
X144896293Y-46147790D01*
X144979806Y-46349408D01*
X144981595Y-46353726D01*
X145093052Y-46546774D01*
X145093057Y-46546780D01*
X145093058Y-46546782D01*
X145228751Y-46723622D01*
X145228757Y-46723629D01*
X145386370Y-46881242D01*
X145386376Y-46881247D01*
X145563226Y-47016948D01*
X145756274Y-47128405D01*
X145801792Y-47147259D01*
X145951784Y-47209388D01*
X145962219Y-47213710D01*
X146177537Y-47271404D01*
X146398543Y-47300500D01*
X146398550Y-47300500D01*
X146621450Y-47300500D01*
X146621457Y-47300500D01*
X146842463Y-47271404D01*
X147057781Y-47213710D01*
X147263726Y-47128405D01*
X147456774Y-47016948D01*
X147633624Y-46881247D01*
X147791247Y-46723624D01*
X147926948Y-46546774D01*
X148038405Y-46353726D01*
X148123710Y-46147781D01*
X148181404Y-45932463D01*
X148210500Y-45711457D01*
X148210500Y-45488543D01*
X148181404Y-45267537D01*
X148123710Y-45052219D01*
X148121921Y-45047901D01*
X148038406Y-44846277D01*
X148038405Y-44846274D01*
X147926948Y-44653226D01*
X147791247Y-44476376D01*
X147791242Y-44476370D01*
X147633629Y-44318757D01*
X147633622Y-44318751D01*
X147456782Y-44183058D01*
X147456780Y-44183057D01*
X147456774Y-44183052D01*
X147263726Y-44071595D01*
X147263722Y-44071593D01*
X147057790Y-43986293D01*
X147057783Y-43986291D01*
X147057781Y-43986290D01*
X146842463Y-43928596D01*
X146842457Y-43928595D01*
X146842452Y-43928594D01*
X146621466Y-43899501D01*
X146621463Y-43899500D01*
X146621457Y-43899500D01*
X146398543Y-43899500D01*
X146398537Y-43899500D01*
X146398533Y-43899501D01*
X146177547Y-43928594D01*
X146177540Y-43928595D01*
X146177537Y-43928596D01*
X145978334Y-43981972D01*
X145962219Y-43986290D01*
X145962209Y-43986293D01*
X145756277Y-44071593D01*
X145756273Y-44071595D01*
X145563226Y-44183052D01*
X145563217Y-44183058D01*
X145386377Y-44318751D01*
X145386370Y-44318757D01*
X145228757Y-44476370D01*
X145228751Y-44476377D01*
X145093058Y-44653217D01*
X145093052Y-44653226D01*
X144981595Y-44846273D01*
X144981593Y-44846277D01*
X144896293Y-45052209D01*
X144896290Y-45052219D01*
X144839751Y-45263229D01*
X144838597Y-45267534D01*
X144838594Y-45267547D01*
X144809501Y-45488533D01*
X144809500Y-45488549D01*
X139555127Y-45488549D01*
X139555127Y-45484225D01*
X139526031Y-45263219D01*
X139468337Y-45047901D01*
X139383032Y-44841956D01*
X139271575Y-44648908D01*
X139139188Y-44476377D01*
X139135875Y-44472059D01*
X139135869Y-44472052D01*
X138978256Y-44314439D01*
X138978249Y-44314433D01*
X138801409Y-44178740D01*
X138801407Y-44178739D01*
X138801401Y-44178734D01*
X138608353Y-44067277D01*
X138608349Y-44067275D01*
X138402417Y-43981975D01*
X138402410Y-43981973D01*
X138402408Y-43981972D01*
X138187090Y-43924278D01*
X138187084Y-43924277D01*
X138187079Y-43924276D01*
X137966093Y-43895183D01*
X137966090Y-43895182D01*
X137966084Y-43895182D01*
X137743170Y-43895182D01*
X137743164Y-43895182D01*
X137743160Y-43895183D01*
X137522174Y-43924276D01*
X137522167Y-43924277D01*
X137522164Y-43924278D01*
X137306846Y-43981972D01*
X137306836Y-43981975D01*
X137100904Y-44067275D01*
X137100900Y-44067277D01*
X136907853Y-44178734D01*
X136907844Y-44178740D01*
X136731004Y-44314433D01*
X136730997Y-44314439D01*
X136573384Y-44472052D01*
X136573378Y-44472059D01*
X136437685Y-44648899D01*
X136437679Y-44648908D01*
X136326222Y-44841955D01*
X136326220Y-44841959D01*
X136240920Y-45047891D01*
X136240917Y-45047901D01*
X136183224Y-45263216D01*
X136183221Y-45263229D01*
X136154128Y-45484215D01*
X136154127Y-45484231D01*
X136154127Y-45707132D01*
X136154128Y-45707148D01*
X136183221Y-45928134D01*
X136183222Y-45928139D01*
X136183223Y-45928145D01*
X136184380Y-45932463D01*
X136240917Y-46143462D01*
X136240920Y-46143472D01*
X136242709Y-46147790D01*
X136326222Y-46349408D01*
X136437679Y-46542456D01*
X136437684Y-46542462D01*
X136437685Y-46542464D01*
X136573378Y-46719304D01*
X136573384Y-46719311D01*
X136730997Y-46876924D01*
X136731004Y-46876930D01*
X136856921Y-46973549D01*
X136907853Y-47012630D01*
X137100901Y-47124087D01*
X137152578Y-47145492D01*
X137206982Y-47189331D01*
X137229048Y-47255624D01*
X137229127Y-47260053D01*
X137229127Y-57116238D01*
X137253162Y-57237071D01*
X137253167Y-57237088D01*
X137300312Y-57350907D01*
X137300317Y-57350916D01*
X137334541Y-57402134D01*
X137334542Y-57402136D01*
X137368768Y-57453360D01*
X137460213Y-57544805D01*
X137460235Y-57544825D01*
X146135789Y-66220379D01*
X146169274Y-66281702D01*
X146172108Y-66308060D01*
X146172108Y-88812866D01*
X146152423Y-88879905D01*
X146099619Y-88925660D01*
X146030461Y-88935604D01*
X146023917Y-88934483D01*
X145926075Y-88915021D01*
X145926071Y-88915021D01*
X145768387Y-88915021D01*
X145768384Y-88915021D01*
X145613739Y-88945782D01*
X145613727Y-88945785D01*
X145468056Y-89006123D01*
X145468043Y-89006130D01*
X145336940Y-89093731D01*
X145336936Y-89093734D01*
X145225442Y-89205228D01*
X145225439Y-89205232D01*
X145137838Y-89336335D01*
X145137831Y-89336348D01*
X145077493Y-89482019D01*
X145077490Y-89482031D01*
X145046729Y-89636674D01*
X145046729Y-89650500D01*
X145027044Y-89717539D01*
X144974240Y-89763294D01*
X144922729Y-89774500D01*
X140882162Y-89774500D01*
X140815123Y-89754815D01*
X140794481Y-89738182D01*
X140713022Y-89656724D01*
X140679537Y-89595401D01*
X140679112Y-89593364D01*
X140656966Y-89482024D01*
X140612828Y-89375464D01*
X140596626Y-89336348D01*
X140596619Y-89336335D01*
X140509018Y-89205232D01*
X140509015Y-89205228D01*
X140397521Y-89093734D01*
X140397517Y-89093731D01*
X140266414Y-89006130D01*
X140266401Y-89006123D01*
X140120730Y-88945785D01*
X140120720Y-88945782D01*
X140020308Y-88925809D01*
X139958397Y-88893424D01*
X139923823Y-88832708D01*
X139920500Y-88804192D01*
X139920500Y-86905393D01*
X139920500Y-86905391D01*
X139879577Y-86752664D01*
X139838314Y-86681193D01*
X139800524Y-86615738D01*
X139800521Y-86615734D01*
X139800520Y-86615732D01*
X139688716Y-86503928D01*
X139688715Y-86503927D01*
X139684385Y-86499597D01*
X139684374Y-86499587D01*
X138086819Y-84902032D01*
X138053334Y-84840709D01*
X138050500Y-84814351D01*
X138050500Y-84540906D01*
X138070185Y-84473867D01*
X138122989Y-84428112D01*
X138192147Y-84418168D01*
X138237617Y-84434172D01*
X138309602Y-84476744D01*
X138351224Y-84488836D01*
X138467426Y-84522597D01*
X138467429Y-84522597D01*
X138467431Y-84522598D01*
X138504306Y-84525500D01*
X138504314Y-84525500D01*
X138935686Y-84525500D01*
X138935694Y-84525500D01*
X138972569Y-84522598D01*
X138972571Y-84522597D01*
X138972573Y-84522597D01*
X139072321Y-84493617D01*
X139130398Y-84476744D01*
X139271865Y-84393081D01*
X139388081Y-84276865D01*
X139471744Y-84135398D01*
X139517598Y-83977569D01*
X139520500Y-83940694D01*
X139520500Y-82159306D01*
X139517598Y-82122431D01*
X139471744Y-81964602D01*
X139388081Y-81823135D01*
X139388079Y-81823133D01*
X139388076Y-81823129D01*
X139271870Y-81706923D01*
X139271862Y-81706917D01*
X139184646Y-81655338D01*
X139130398Y-81623256D01*
X139130397Y-81623255D01*
X139130396Y-81623255D01*
X139130393Y-81623254D01*
X138972573Y-81577402D01*
X138972567Y-81577401D01*
X138935701Y-81574500D01*
X138935694Y-81574500D01*
X138504306Y-81574500D01*
X138504298Y-81574500D01*
X138467432Y-81577401D01*
X138467426Y-81577402D01*
X138309606Y-81623254D01*
X138309603Y-81623255D01*
X138168137Y-81706917D01*
X138161969Y-81711702D01*
X138160072Y-81709256D01*
X138111358Y-81735857D01*
X138041666Y-81730873D01*
X138009296Y-81710069D01*
X138008031Y-81711702D01*
X138001862Y-81706917D01*
X137914646Y-81655338D01*
X137860398Y-81623256D01*
X137860397Y-81623255D01*
X137860396Y-81623255D01*
X137860393Y-81623254D01*
X137702573Y-81577402D01*
X137702567Y-81577401D01*
X137665701Y-81574500D01*
X137665694Y-81574500D01*
X137234306Y-81574500D01*
X137234298Y-81574500D01*
X137197432Y-81577401D01*
X137197426Y-81577402D01*
X137039606Y-81623254D01*
X137039599Y-81623257D01*
X136967620Y-81665825D01*
X136899896Y-81683008D01*
X136833634Y-81660848D01*
X136789871Y-81606381D01*
X136780500Y-81559093D01*
X136780500Y-81495663D01*
X136780501Y-81495650D01*
X136780501Y-81327547D01*
X136739576Y-81174817D01*
X136739573Y-81174812D01*
X136660524Y-81037893D01*
X136660518Y-81037885D01*
X136659293Y-81036660D01*
X136658589Y-81035371D01*
X136655574Y-81031442D01*
X136656186Y-81030971D01*
X136625808Y-80975337D01*
X136630792Y-80905645D01*
X136672664Y-80849712D01*
X136738128Y-80825295D01*
X136746974Y-80824979D01*
X143094827Y-80824979D01*
X143142279Y-80834418D01*
X143179203Y-80849712D01*
X143179850Y-80849980D01*
X143179854Y-80849980D01*
X143179855Y-80849981D01*
X143305522Y-80874979D01*
X143305525Y-80874979D01*
X143433665Y-80874979D01*
X143518209Y-80858161D01*
X143559338Y-80849980D01*
X143677721Y-80800944D01*
X143784263Y-80729755D01*
X143874870Y-80639148D01*
X143946059Y-80532606D01*
X143995095Y-80414223D01*
X144020094Y-80288548D01*
X144020094Y-80160410D01*
X144020094Y-80160407D01*
X143995096Y-80034740D01*
X143995095Y-80034739D01*
X143995095Y-80034735D01*
X143946059Y-79916352D01*
X143946058Y-79916351D01*
X143946055Y-79916345D01*
X143874870Y-79809810D01*
X143874867Y-79809806D01*
X143784266Y-79719205D01*
X143784262Y-79719202D01*
X143677727Y-79648017D01*
X143677718Y-79648012D01*
X143559338Y-79598978D01*
X143559332Y-79598976D01*
X143433665Y-79573979D01*
X143433663Y-79573979D01*
X143305525Y-79573979D01*
X143305523Y-79573979D01*
X143179855Y-79598976D01*
X143179845Y-79598979D01*
X143142279Y-79614540D01*
X143094827Y-79623979D01*
X135340387Y-79623979D01*
X135278386Y-79607365D01*
X135269800Y-79602408D01*
X135269799Y-79602407D01*
X135265842Y-79600123D01*
X135258954Y-79595840D01*
X135243509Y-79585520D01*
X135236696Y-79582698D01*
X135125126Y-79536484D01*
X135125120Y-79536482D01*
X135082904Y-79528085D01*
X135070933Y-79522591D01*
X135061276Y-79521692D01*
X135043533Y-79510017D01*
X135030670Y-79504115D01*
X135024738Y-79499472D01*
X134935578Y-79410312D01*
X134848766Y-79360192D01*
X134798647Y-79331255D01*
X134645919Y-79290331D01*
X134487805Y-79290331D01*
X134480209Y-79290331D01*
X134480193Y-79290332D01*
X126402061Y-79290332D01*
X126354609Y-79280893D01*
X126317042Y-79265332D01*
X126317032Y-79265329D01*
X126191365Y-79240332D01*
X126191363Y-79240332D01*
X126063225Y-79240332D01*
X126063223Y-79240332D01*
X125937555Y-79265329D01*
X125937549Y-79265331D01*
X125819169Y-79314365D01*
X125819160Y-79314370D01*
X125712625Y-79385555D01*
X125712621Y-79385558D01*
X125622020Y-79476159D01*
X125622017Y-79476163D01*
X125550832Y-79582698D01*
X125550827Y-79582707D01*
X125501793Y-79701087D01*
X125501791Y-79701093D01*
X125476794Y-79826760D01*
X125476794Y-79826763D01*
X125476794Y-79954901D01*
X125476794Y-79954903D01*
X125476793Y-79954903D01*
X122300500Y-79954903D01*
X122300500Y-60724231D01*
X127401619Y-60724231D01*
X127401619Y-60947132D01*
X127401620Y-60947148D01*
X127430713Y-61168134D01*
X127430714Y-61168139D01*
X127430715Y-61168145D01*
X127479577Y-61350500D01*
X127488409Y-61383462D01*
X127488412Y-61383472D01*
X127504780Y-61422987D01*
X127573714Y-61589408D01*
X127685171Y-61782456D01*
X127685176Y-61782462D01*
X127685177Y-61782464D01*
X127820870Y-61959304D01*
X127820876Y-61959311D01*
X127978489Y-62116924D01*
X127978496Y-62116930D01*
X128104413Y-62213549D01*
X128155345Y-62252630D01*
X128348393Y-62364087D01*
X128554338Y-62449392D01*
X128769656Y-62507086D01*
X128990662Y-62536182D01*
X128990669Y-62536182D01*
X129213569Y-62536182D01*
X129213576Y-62536182D01*
X129434582Y-62507086D01*
X129649900Y-62449392D01*
X129855845Y-62364087D01*
X130048893Y-62252630D01*
X130225743Y-62116929D01*
X130383366Y-61959306D01*
X130519067Y-61782456D01*
X130630524Y-61589408D01*
X130715829Y-61383463D01*
X130773523Y-61168145D01*
X130802619Y-60947139D01*
X130802619Y-60724231D01*
X136154127Y-60724231D01*
X136154127Y-60947132D01*
X136154128Y-60947148D01*
X136183221Y-61168134D01*
X136183222Y-61168139D01*
X136183223Y-61168145D01*
X136232085Y-61350500D01*
X136240917Y-61383462D01*
X136240920Y-61383472D01*
X136257288Y-61422987D01*
X136326222Y-61589408D01*
X136437679Y-61782456D01*
X136437684Y-61782462D01*
X136437685Y-61782464D01*
X136573378Y-61959304D01*
X136573384Y-61959311D01*
X136730997Y-62116924D01*
X136731004Y-62116930D01*
X136856921Y-62213549D01*
X136907853Y-62252630D01*
X137100901Y-62364087D01*
X137306846Y-62449392D01*
X137522164Y-62507086D01*
X137743170Y-62536182D01*
X137743177Y-62536182D01*
X137966077Y-62536182D01*
X137966084Y-62536182D01*
X138187090Y-62507086D01*
X138402408Y-62449392D01*
X138608353Y-62364087D01*
X138801401Y-62252630D01*
X138978251Y-62116929D01*
X139135874Y-61959306D01*
X139271575Y-61782456D01*
X139383032Y-61589408D01*
X139468337Y-61383463D01*
X139526031Y-61168145D01*
X139555127Y-60947139D01*
X139555127Y-60724225D01*
X139526031Y-60503219D01*
X139468337Y-60287901D01*
X139383032Y-60081956D01*
X139271575Y-59888908D01*
X139139188Y-59716377D01*
X139135875Y-59712059D01*
X139135869Y-59712052D01*
X138978256Y-59554439D01*
X138978249Y-59554433D01*
X138801409Y-59418740D01*
X138801407Y-59418739D01*
X138801401Y-59418734D01*
X138608353Y-59307277D01*
X138608349Y-59307275D01*
X138402417Y-59221975D01*
X138402410Y-59221973D01*
X138402408Y-59221972D01*
X138187090Y-59164278D01*
X138187084Y-59164277D01*
X138187079Y-59164276D01*
X137966093Y-59135183D01*
X137966090Y-59135182D01*
X137966084Y-59135182D01*
X137743170Y-59135182D01*
X137743164Y-59135182D01*
X137743160Y-59135183D01*
X137522174Y-59164276D01*
X137522167Y-59164277D01*
X137522164Y-59164278D01*
X137319501Y-59218581D01*
X137306846Y-59221972D01*
X137306836Y-59221975D01*
X137100904Y-59307275D01*
X137100900Y-59307277D01*
X136907853Y-59418734D01*
X136907844Y-59418740D01*
X136731004Y-59554433D01*
X136730997Y-59554439D01*
X136573384Y-59712052D01*
X136573378Y-59712059D01*
X136437685Y-59888899D01*
X136437679Y-59888908D01*
X136326222Y-60081955D01*
X136326220Y-60081959D01*
X136240920Y-60287891D01*
X136240917Y-60287901D01*
X136183224Y-60503216D01*
X136183221Y-60503229D01*
X136154128Y-60724215D01*
X136154127Y-60724231D01*
X130802619Y-60724231D01*
X130802619Y-60724225D01*
X130773523Y-60503219D01*
X130715829Y-60287901D01*
X130630524Y-60081956D01*
X130519067Y-59888908D01*
X130386680Y-59716377D01*
X130383367Y-59712059D01*
X130383361Y-59712052D01*
X130225748Y-59554439D01*
X130225741Y-59554433D01*
X130048901Y-59418740D01*
X130048899Y-59418739D01*
X130048893Y-59418734D01*
X129855845Y-59307277D01*
X129855841Y-59307275D01*
X129649909Y-59221975D01*
X129649902Y-59221973D01*
X129649900Y-59221972D01*
X129434582Y-59164278D01*
X129434576Y-59164277D01*
X129434571Y-59164276D01*
X129213585Y-59135183D01*
X129213582Y-59135182D01*
X129213576Y-59135182D01*
X128990662Y-59135182D01*
X128990656Y-59135182D01*
X128990652Y-59135183D01*
X128769666Y-59164276D01*
X128769659Y-59164277D01*
X128769656Y-59164278D01*
X128566993Y-59218581D01*
X128554338Y-59221972D01*
X128554328Y-59221975D01*
X128348396Y-59307275D01*
X128348392Y-59307277D01*
X128155345Y-59418734D01*
X128155336Y-59418740D01*
X127978496Y-59554433D01*
X127978489Y-59554439D01*
X127820876Y-59712052D01*
X127820870Y-59712059D01*
X127685177Y-59888899D01*
X127685171Y-59888908D01*
X127573714Y-60081955D01*
X127573712Y-60081959D01*
X127488412Y-60287891D01*
X127488409Y-60287901D01*
X127430716Y-60503216D01*
X127430713Y-60503229D01*
X127401620Y-60724215D01*
X127401619Y-60724231D01*
X122300500Y-60724231D01*
X122300500Y-45484231D01*
X127401619Y-45484231D01*
X127401619Y-45707132D01*
X127401620Y-45707148D01*
X127430713Y-45928134D01*
X127430714Y-45928139D01*
X127430715Y-45928145D01*
X127431872Y-45932463D01*
X127488409Y-46143462D01*
X127488412Y-46143472D01*
X127490201Y-46147790D01*
X127573714Y-46349408D01*
X127685171Y-46542456D01*
X127685176Y-46542462D01*
X127685177Y-46542464D01*
X127820870Y-46719304D01*
X127820876Y-46719311D01*
X127978489Y-46876924D01*
X127978496Y-46876930D01*
X128104413Y-46973549D01*
X128155345Y-47012630D01*
X128348393Y-47124087D01*
X128554338Y-47209392D01*
X128769656Y-47267086D01*
X128990662Y-47296182D01*
X128990669Y-47296182D01*
X129213569Y-47296182D01*
X129213576Y-47296182D01*
X129434582Y-47267086D01*
X129649900Y-47209392D01*
X129855845Y-47124087D01*
X130048893Y-47012630D01*
X130225743Y-46876929D01*
X130383366Y-46719306D01*
X130519067Y-46542456D01*
X130630524Y-46349408D01*
X130715829Y-46143463D01*
X130773523Y-45928145D01*
X130802619Y-45707139D01*
X130802619Y-45484225D01*
X130773523Y-45263219D01*
X130715829Y-45047901D01*
X130630524Y-44841956D01*
X130519067Y-44648908D01*
X130386680Y-44476377D01*
X130383367Y-44472059D01*
X130383361Y-44472052D01*
X130225748Y-44314439D01*
X130225741Y-44314433D01*
X130048901Y-44178740D01*
X130048899Y-44178739D01*
X130048893Y-44178734D01*
X129855845Y-44067277D01*
X129855841Y-44067275D01*
X129649909Y-43981975D01*
X129649902Y-43981973D01*
X129649900Y-43981972D01*
X129434582Y-43924278D01*
X129434576Y-43924277D01*
X129434571Y-43924276D01*
X129213585Y-43895183D01*
X129213582Y-43895182D01*
X129213576Y-43895182D01*
X128990662Y-43895182D01*
X128990656Y-43895182D01*
X128990652Y-43895183D01*
X128769666Y-43924276D01*
X128769659Y-43924277D01*
X128769656Y-43924278D01*
X128554338Y-43981972D01*
X128554328Y-43981975D01*
X128348396Y-44067275D01*
X128348392Y-44067277D01*
X128155345Y-44178734D01*
X128155336Y-44178740D01*
X127978496Y-44314433D01*
X127978489Y-44314439D01*
X127820876Y-44472052D01*
X127820870Y-44472059D01*
X127685177Y-44648899D01*
X127685171Y-44648908D01*
X127573714Y-44841955D01*
X127573712Y-44841959D01*
X127488412Y-45047891D01*
X127488409Y-45047901D01*
X127430716Y-45263216D01*
X127430713Y-45263229D01*
X127401620Y-45484215D01*
X127401619Y-45484231D01*
X122300500Y-45484231D01*
X122300500Y-41824500D01*
X122320185Y-41757461D01*
X122372989Y-41711706D01*
X122424500Y-41700500D01*
X161175500Y-41700500D01*
X161242539Y-41720185D01*
G37*
%TD.AperFunction*%
%TD*%
M02*
