%TF.GenerationSoftware,KiCad,Pcbnew,10.0.5*%
%TF.CreationDate,2026-09-24T23:41:05-05:00*%
%TF.ProjectId,master_sense_buses,6d617374-6572-45f7-9365-6e73655f6275,rev?*%
%TF.SameCoordinates,Original*%
%TF.FileFunction,Soldermask,Top*%
%TF.FilePolarity,Negative*%
%FSLAX46Y46*%
G04 Gerber Fmt 4.6, Leading zero omitted, Abs format (unit mm)*
G04 Created by KiCad (PCBNEW 10.0.5) date 2026-09-24 23:41:05*
%MOMM*%
%LPD*%
G01*
G04 APERTURE LIST*
G04 Aperture macros list*
%AMRoundRect*
0 Rectangle with rounded corners*
0 $1 Rounding radius*
0 $2 $3 $4 $5 $6 $7 $8 $9 X,Y pos of 4 corners*
0 Add a 4 corners polygon primitive as box body*
4,1,4,$2,$3,$4,$5,$6,$7,$8,$9,$2,$3,0*
0 Add four circle primitives for the rounded corners*
1,1,$1+$1,$2,$3*
1,1,$1+$1,$4,$5*
1,1,$1+$1,$6,$7*
1,1,$1+$1,$8,$9*
0 Add four rect primitives between the rounded corners*
20,1,$1+$1,$2,$3,$4,$5,0*
20,1,$1+$1,$4,$5,$6,$7,0*
20,1,$1+$1,$6,$7,$8,$9,0*
20,1,$1+$1,$8,$9,$2,$3,0*%
G04 Aperture macros list end*
%ADD10C,0.010000*%
%ADD11R,1.700000X1.700000*%
%ADD12RoundRect,0.250000X0.625000X-0.312500X0.625000X0.312500X-0.625000X0.312500X-0.625000X-0.312500X0*%
%ADD13RoundRect,0.250000X-0.450000X0.262500X-0.450000X-0.262500X0.450000X-0.262500X0.450000X0.262500X0*%
%ADD14RoundRect,0.177000X-0.225000X0.825000X-0.225000X-0.825000X0.225000X-0.825000X0.225000X0.825000X0*%
%ADD15RoundRect,0.102000X0.750000X0.750000X-0.750000X0.750000X-0.750000X-0.750000X0.750000X-0.750000X0*%
%ADD16C,1.704000*%
%ADD17C,1.004000*%
%ADD18RoundRect,0.100000X-0.130000X-0.100000X0.130000X-0.100000X0.130000X0.100000X-0.130000X0.100000X0*%
%ADD19RoundRect,0.200000X-0.200000X-0.275000X0.200000X-0.275000X0.200000X0.275000X-0.200000X0.275000X0*%
%ADD20RoundRect,0.225000X0.225000X0.250000X-0.225000X0.250000X-0.225000X-0.250000X0.225000X-0.250000X0*%
%ADD21R,1.800000X1.100000*%
%ADD22RoundRect,0.200000X0.275000X-0.200000X0.275000X0.200000X-0.275000X0.200000X-0.275000X-0.200000X0*%
%ADD23R,0.508000X1.397000*%
%ADD24RoundRect,0.250000X0.312500X0.625000X-0.312500X0.625000X-0.312500X-0.625000X0.312500X-0.625000X0*%
%ADD25RoundRect,0.225000X-0.225000X-0.250000X0.225000X-0.250000X0.225000X0.250000X-0.225000X0.250000X0*%
%ADD26RoundRect,0.200000X-0.275000X0.200000X-0.275000X-0.200000X0.275000X-0.200000X0.275000X0.200000X0*%
%ADD27C,2.400000*%
%ADD28R,0.304800X1.168400*%
%ADD29RoundRect,0.250000X-0.312500X-0.625000X0.312500X-0.625000X0.312500X0.625000X-0.312500X0.625000X0*%
%ADD30RoundRect,0.250000X-0.625000X0.312500X-0.625000X-0.312500X0.625000X-0.312500X0.625000X0.312500X0*%
%ADD31C,1.700000*%
G04 APERTURE END LIST*
D10*
%TO.C,U3*%
X148105100Y-150641600D02*
X152105100Y-150641600D01*
X152267100Y-150645600D01*
X152429100Y-150658600D01*
X152590100Y-150679600D01*
X152750100Y-150709600D01*
X152907100Y-150747600D01*
X153063100Y-150793600D01*
X153216100Y-150847600D01*
X153366100Y-150909600D01*
X153512100Y-150979600D01*
X153655100Y-151056600D01*
X153793100Y-151141600D01*
X153927100Y-151233600D01*
X154056100Y-151332600D01*
X154179100Y-151437600D01*
X154297100Y-151549600D01*
X154409100Y-151667600D01*
X154514100Y-151790600D01*
X154613100Y-151919600D01*
X154705100Y-152053600D01*
X154790100Y-152191600D01*
X154867100Y-152334600D01*
X154937100Y-152480600D01*
X154999100Y-152630600D01*
X155053100Y-152783600D01*
X155099100Y-152939600D01*
X155137100Y-153096600D01*
X155167100Y-153256600D01*
X155188100Y-153417600D01*
X155201100Y-153579600D01*
X155205100Y-153741600D01*
X155201100Y-153903600D01*
X155188100Y-154065600D01*
X155167100Y-154226600D01*
X155137100Y-154386600D01*
X155099100Y-154543600D01*
X155053100Y-154699600D01*
X154999100Y-154852600D01*
X154937100Y-155002600D01*
X154867100Y-155148600D01*
X154790100Y-155291600D01*
X154705100Y-155429600D01*
X154613100Y-155563600D01*
X154514100Y-155692600D01*
X154409100Y-155815600D01*
X154297100Y-155933600D01*
X154179100Y-156045600D01*
X154056100Y-156150600D01*
X153927100Y-156249600D01*
X153793100Y-156341600D01*
X153655100Y-156426600D01*
X153512100Y-156503600D01*
X153366100Y-156573600D01*
X153216100Y-156635600D01*
X153063100Y-156689600D01*
X152907100Y-156735600D01*
X152750100Y-156773600D01*
X152590100Y-156803600D01*
X152429100Y-156824600D01*
X152267100Y-156837600D01*
X152105100Y-156841600D01*
X148105100Y-156841600D01*
X148003100Y-156839600D01*
X147901100Y-156834600D01*
X147798100Y-156826600D01*
X147696100Y-156814600D01*
X147594100Y-156798600D01*
X147493100Y-156780600D01*
X147393100Y-156758600D01*
X147293100Y-156733600D01*
X147194100Y-156704600D01*
X147097100Y-156672600D01*
X147000100Y-156637600D01*
X146905100Y-156599600D01*
X146810100Y-156557600D01*
X146718100Y-156513600D01*
X146627100Y-156465600D01*
X146537100Y-156415600D01*
X146449100Y-156361600D01*
X146363100Y-156305600D01*
X146279100Y-156246600D01*
X146197100Y-156184600D01*
X146117100Y-156119600D01*
X146039100Y-156052600D01*
X145964100Y-155982600D01*
X145891100Y-155910600D01*
X145820100Y-155835600D01*
X145752100Y-155758600D01*
X145686100Y-155679600D01*
X145623100Y-155598600D01*
X145563100Y-155514600D01*
X145505100Y-155428600D01*
X145505100Y-152054600D01*
X145563100Y-151968600D01*
X145623100Y-151884600D01*
X145686100Y-151803600D01*
X145752100Y-151724600D01*
X145820100Y-151647600D01*
X145891100Y-151572600D01*
X145964100Y-151500600D01*
X146039100Y-151430600D01*
X146117100Y-151363600D01*
X146197100Y-151298600D01*
X146279100Y-151236600D01*
X146363100Y-151177600D01*
X146449100Y-151121600D01*
X146537100Y-151067600D01*
X146627100Y-151017600D01*
X146718100Y-150969600D01*
X146810100Y-150925600D01*
X146905100Y-150883600D01*
X147000100Y-150845600D01*
X147097100Y-150810600D01*
X147194100Y-150778600D01*
X147293100Y-150749600D01*
X147393100Y-150724600D01*
X147493100Y-150702600D01*
X147594100Y-150684600D01*
X147696100Y-150668600D01*
X147798100Y-150656600D01*
X147901100Y-150648600D01*
X148003100Y-150643600D01*
X148105100Y-150641600D01*
G36*
X152267100Y-150645600D02*
G01*
X152429100Y-150658600D01*
X152590100Y-150679600D01*
X152750100Y-150709600D01*
X152907100Y-150747600D01*
X153063100Y-150793600D01*
X153216100Y-150847600D01*
X153366100Y-150909600D01*
X153512100Y-150979600D01*
X153655100Y-151056600D01*
X153793100Y-151141600D01*
X153927100Y-151233600D01*
X154056100Y-151332600D01*
X154179100Y-151437600D01*
X154297100Y-151549600D01*
X154409100Y-151667600D01*
X154514100Y-151790600D01*
X154613100Y-151919600D01*
X154705100Y-152053600D01*
X154790100Y-152191600D01*
X154867100Y-152334600D01*
X154937100Y-152480600D01*
X154999100Y-152630600D01*
X155053100Y-152783600D01*
X155099100Y-152939600D01*
X155137100Y-153096600D01*
X155167100Y-153256600D01*
X155188100Y-153417600D01*
X155201100Y-153579600D01*
X155205100Y-153741600D01*
X155201100Y-153903600D01*
X155188100Y-154065600D01*
X155167100Y-154226600D01*
X155137100Y-154386600D01*
X155099100Y-154543600D01*
X155053100Y-154699600D01*
X154999100Y-154852600D01*
X154937100Y-155002600D01*
X154867100Y-155148600D01*
X154790100Y-155291600D01*
X154705100Y-155429600D01*
X154613100Y-155563600D01*
X154514100Y-155692600D01*
X154409100Y-155815600D01*
X154297100Y-155933600D01*
X154179100Y-156045600D01*
X154056100Y-156150600D01*
X153927100Y-156249600D01*
X153793100Y-156341600D01*
X153655100Y-156426600D01*
X153512100Y-156503600D01*
X153366100Y-156573600D01*
X153216100Y-156635600D01*
X153063100Y-156689600D01*
X152907100Y-156735600D01*
X152750100Y-156773600D01*
X152590100Y-156803600D01*
X152429100Y-156824600D01*
X152267100Y-156837600D01*
X152105100Y-156841600D01*
X148105100Y-156841600D01*
X148003100Y-156839600D01*
X147901100Y-156834600D01*
X147798100Y-156826600D01*
X147696100Y-156814600D01*
X147594100Y-156798600D01*
X147493100Y-156780600D01*
X147393100Y-156758600D01*
X147293100Y-156733600D01*
X147194100Y-156704600D01*
X147097100Y-156672600D01*
X147000100Y-156637600D01*
X146905100Y-156599600D01*
X146810100Y-156557600D01*
X146718100Y-156513600D01*
X146627100Y-156465600D01*
X146537100Y-156415600D01*
X146449100Y-156361600D01*
X146363100Y-156305600D01*
X146279100Y-156246600D01*
X146197100Y-156184600D01*
X146117100Y-156119600D01*
X146039100Y-156052600D01*
X145964100Y-155982600D01*
X145891100Y-155910600D01*
X145820100Y-155835600D01*
X145752100Y-155758600D01*
X145686100Y-155679600D01*
X145623100Y-155598600D01*
X145563100Y-155514600D01*
X145505100Y-155428600D01*
X145505100Y-152054600D01*
X145563100Y-151968600D01*
X145623100Y-151884600D01*
X145686100Y-151803600D01*
X145752100Y-151724600D01*
X145820100Y-151647600D01*
X145891100Y-151572600D01*
X145964100Y-151500600D01*
X146039100Y-151430600D01*
X146117100Y-151363600D01*
X146197100Y-151298600D01*
X146279100Y-151236600D01*
X146363100Y-151177600D01*
X146449100Y-151121600D01*
X146537100Y-151067600D01*
X146627100Y-151017600D01*
X146718100Y-150969600D01*
X146810100Y-150925600D01*
X146905100Y-150883600D01*
X147000100Y-150845600D01*
X147097100Y-150810600D01*
X147194100Y-150778600D01*
X147293100Y-150749600D01*
X147393100Y-150724600D01*
X147493100Y-150702600D01*
X147594100Y-150684600D01*
X147696100Y-150668600D01*
X147798100Y-150656600D01*
X147901100Y-150648600D01*
X148003100Y-150643600D01*
X148105100Y-150641600D01*
X152105100Y-150641600D01*
X152267100Y-150645600D01*
G37*
X142105100Y-156841600D02*
X138105100Y-156841600D01*
X137943100Y-156837600D01*
X137781100Y-156824600D01*
X137620100Y-156803600D01*
X137460100Y-156773600D01*
X137303100Y-156735600D01*
X137147100Y-156689600D01*
X136994100Y-156635600D01*
X136844100Y-156573600D01*
X136698100Y-156503600D01*
X136555100Y-156426600D01*
X136417100Y-156341600D01*
X136283100Y-156249600D01*
X136154100Y-156150600D01*
X136031100Y-156045600D01*
X135913100Y-155933600D01*
X135801100Y-155815600D01*
X135696100Y-155692600D01*
X135597100Y-155563600D01*
X135505100Y-155429600D01*
X135420100Y-155291600D01*
X135343100Y-155148600D01*
X135273100Y-155002600D01*
X135211100Y-154852600D01*
X135157100Y-154699600D01*
X135111100Y-154543600D01*
X135073100Y-154386600D01*
X135043100Y-154226600D01*
X135022100Y-154065600D01*
X135009100Y-153903600D01*
X135005100Y-153741600D01*
X135009100Y-153579600D01*
X135022100Y-153417600D01*
X135043100Y-153256600D01*
X135073100Y-153096600D01*
X135111100Y-152939600D01*
X135157100Y-152783600D01*
X135211100Y-152630600D01*
X135273100Y-152480600D01*
X135343100Y-152334600D01*
X135420100Y-152191600D01*
X135505100Y-152053600D01*
X135597100Y-151919600D01*
X135696100Y-151790600D01*
X135801100Y-151667600D01*
X135913100Y-151549600D01*
X136031100Y-151437600D01*
X136154100Y-151332600D01*
X136283100Y-151233600D01*
X136417100Y-151141600D01*
X136555100Y-151056600D01*
X136698100Y-150979600D01*
X136844100Y-150909600D01*
X136994100Y-150847600D01*
X137147100Y-150793600D01*
X137303100Y-150747600D01*
X137460100Y-150709600D01*
X137620100Y-150679600D01*
X137781100Y-150658600D01*
X137943100Y-150645600D01*
X138105100Y-150641600D01*
X142105100Y-150641600D01*
X142207100Y-150643600D01*
X142309100Y-150648600D01*
X142412100Y-150656600D01*
X142514100Y-150668600D01*
X142616100Y-150684600D01*
X142717100Y-150702600D01*
X142817100Y-150724600D01*
X142917100Y-150749600D01*
X143016100Y-150778600D01*
X143113100Y-150810600D01*
X143210100Y-150845600D01*
X143305100Y-150883600D01*
X143400100Y-150925600D01*
X143492100Y-150969600D01*
X143583100Y-151017600D01*
X143673100Y-151067600D01*
X143761100Y-151121600D01*
X143847100Y-151177600D01*
X143931100Y-151236600D01*
X144013100Y-151298600D01*
X144093100Y-151363600D01*
X144171100Y-151430600D01*
X144246100Y-151500600D01*
X144319100Y-151572600D01*
X144390100Y-151647600D01*
X144458100Y-151724600D01*
X144524100Y-151803600D01*
X144587100Y-151884600D01*
X144647100Y-151968600D01*
X144705100Y-152054600D01*
X144705100Y-155428600D01*
X144647100Y-155514600D01*
X144587100Y-155598600D01*
X144524100Y-155679600D01*
X144458100Y-155758600D01*
X144390100Y-155835600D01*
X144319100Y-155910600D01*
X144246100Y-155982600D01*
X144171100Y-156052600D01*
X144093100Y-156119600D01*
X144013100Y-156184600D01*
X143931100Y-156246600D01*
X143847100Y-156305600D01*
X143761100Y-156361600D01*
X143673100Y-156415600D01*
X143583100Y-156465600D01*
X143492100Y-156513600D01*
X143400100Y-156557600D01*
X143305100Y-156599600D01*
X143210100Y-156637600D01*
X143113100Y-156672600D01*
X143016100Y-156704600D01*
X142917100Y-156733600D01*
X142817100Y-156758600D01*
X142717100Y-156780600D01*
X142616100Y-156798600D01*
X142514100Y-156814600D01*
X142412100Y-156826600D01*
X142309100Y-156834600D01*
X142207100Y-156839600D01*
X142105100Y-156841600D01*
G36*
X142207100Y-150643600D02*
G01*
X142309100Y-150648600D01*
X142412100Y-150656600D01*
X142514100Y-150668600D01*
X142616100Y-150684600D01*
X142717100Y-150702600D01*
X142817100Y-150724600D01*
X142917100Y-150749600D01*
X143016100Y-150778600D01*
X143113100Y-150810600D01*
X143210100Y-150845600D01*
X143305100Y-150883600D01*
X143400100Y-150925600D01*
X143492100Y-150969600D01*
X143583100Y-151017600D01*
X143673100Y-151067600D01*
X143761100Y-151121600D01*
X143847100Y-151177600D01*
X143931100Y-151236600D01*
X144013100Y-151298600D01*
X144093100Y-151363600D01*
X144171100Y-151430600D01*
X144246100Y-151500600D01*
X144319100Y-151572600D01*
X144390100Y-151647600D01*
X144458100Y-151724600D01*
X144524100Y-151803600D01*
X144587100Y-151884600D01*
X144647100Y-151968600D01*
X144705100Y-152054600D01*
X144705100Y-155428600D01*
X144647100Y-155514600D01*
X144587100Y-155598600D01*
X144524100Y-155679600D01*
X144458100Y-155758600D01*
X144390100Y-155835600D01*
X144319100Y-155910600D01*
X144246100Y-155982600D01*
X144171100Y-156052600D01*
X144093100Y-156119600D01*
X144013100Y-156184600D01*
X143931100Y-156246600D01*
X143847100Y-156305600D01*
X143761100Y-156361600D01*
X143673100Y-156415600D01*
X143583100Y-156465600D01*
X143492100Y-156513600D01*
X143400100Y-156557600D01*
X143305100Y-156599600D01*
X143210100Y-156637600D01*
X143113100Y-156672600D01*
X143016100Y-156704600D01*
X142917100Y-156733600D01*
X142817100Y-156758600D01*
X142717100Y-156780600D01*
X142616100Y-156798600D01*
X142514100Y-156814600D01*
X142412100Y-156826600D01*
X142309100Y-156834600D01*
X142207100Y-156839600D01*
X142105100Y-156841600D01*
X138105100Y-156841600D01*
X137943100Y-156837600D01*
X137781100Y-156824600D01*
X137620100Y-156803600D01*
X137460100Y-156773600D01*
X137303100Y-156735600D01*
X137147100Y-156689600D01*
X136994100Y-156635600D01*
X136844100Y-156573600D01*
X136698100Y-156503600D01*
X136555100Y-156426600D01*
X136417100Y-156341600D01*
X136283100Y-156249600D01*
X136154100Y-156150600D01*
X136031100Y-156045600D01*
X135913100Y-155933600D01*
X135801100Y-155815600D01*
X135696100Y-155692600D01*
X135597100Y-155563600D01*
X135505100Y-155429600D01*
X135420100Y-155291600D01*
X135343100Y-155148600D01*
X135273100Y-155002600D01*
X135211100Y-154852600D01*
X135157100Y-154699600D01*
X135111100Y-154543600D01*
X135073100Y-154386600D01*
X135043100Y-154226600D01*
X135022100Y-154065600D01*
X135009100Y-153903600D01*
X135005100Y-153741600D01*
X135009100Y-153579600D01*
X135022100Y-153417600D01*
X135043100Y-153256600D01*
X135073100Y-153096600D01*
X135111100Y-152939600D01*
X135157100Y-152783600D01*
X135211100Y-152630600D01*
X135273100Y-152480600D01*
X135343100Y-152334600D01*
X135420100Y-152191600D01*
X135505100Y-152053600D01*
X135597100Y-151919600D01*
X135696100Y-151790600D01*
X135801100Y-151667600D01*
X135913100Y-151549600D01*
X136031100Y-151437600D01*
X136154100Y-151332600D01*
X136283100Y-151233600D01*
X136417100Y-151141600D01*
X136555100Y-151056600D01*
X136698100Y-150979600D01*
X136844100Y-150909600D01*
X136994100Y-150847600D01*
X137147100Y-150793600D01*
X137303100Y-150747600D01*
X137460100Y-150709600D01*
X137620100Y-150679600D01*
X137781100Y-150658600D01*
X137943100Y-150645600D01*
X138105100Y-150641600D01*
X142105100Y-150641600D01*
X142207100Y-150643600D01*
G37*
%TD*%
D11*
%TO.C,REF\u002A\u002A*%
X158200000Y-60000000D03*
%TD*%
%TO.C,REF Phase*%
X154600000Y-60000000D03*
%TD*%
D12*
%TO.C,R20*%
X146510000Y-77706985D03*
X146510000Y-74781985D03*
%TD*%
%TO.C,R19*%
X146510000Y-72800000D03*
X146510000Y-69875000D03*
%TD*%
D13*
%TO.C,R33*%
X155310000Y-84975000D03*
X155310000Y-86800000D03*
%TD*%
D11*
%TO.C,REF\u002A\u002A*%
X130400000Y-157600000D03*
%TD*%
%TO.C,REF\u002A\u002A*%
X126800000Y-157600000D03*
%TD*%
D14*
%TO.C,U5*%
X139887229Y-89715521D03*
X138617229Y-89715521D03*
X137347229Y-89715521D03*
X136077229Y-89715521D03*
X136077229Y-100375521D03*
X137347229Y-100375521D03*
X138617229Y-100375521D03*
X139887229Y-100375521D03*
%TD*%
D15*
%TO.C,U3*%
X147015100Y-132341600D03*
D16*
X145105100Y-132341600D03*
X143195100Y-132341600D03*
D17*
X142105100Y-151691600D03*
X140775100Y-151691600D03*
X139445100Y-151691600D03*
X138115100Y-151691600D03*
X136900200Y-152083100D03*
X136155500Y-153108100D03*
X136155500Y-154375000D03*
X136900200Y-155400000D03*
X138115100Y-155791600D03*
X139445100Y-155791600D03*
X140775100Y-155791600D03*
X142105100Y-155791600D03*
X143310000Y-155400000D03*
X144054700Y-154375000D03*
X144054700Y-153108100D03*
X143310000Y-152083100D03*
X152105100Y-151691600D03*
X150775100Y-151691600D03*
X149445100Y-151691600D03*
X148115100Y-151691600D03*
X146900200Y-152083100D03*
X146155500Y-153108100D03*
X146155500Y-154375000D03*
X146900200Y-155400000D03*
X148115100Y-155791600D03*
X149445100Y-155791600D03*
X150775100Y-155791600D03*
X152105100Y-155791600D03*
X153310000Y-155400000D03*
X154054700Y-154375000D03*
X154054700Y-153108100D03*
X153310000Y-152083100D03*
%TD*%
D18*
%TO.C,C11*%
X146520000Y-131000000D03*
X145880000Y-131000000D03*
%TD*%
D19*
%TO.C,R14*%
X141725100Y-128891600D03*
X143375100Y-128891600D03*
%TD*%
D20*
%TO.C,C14*%
X140150100Y-128891600D03*
X138600100Y-128891600D03*
%TD*%
D21*
%TO.C,R40*%
X127110000Y-155000000D03*
X130110000Y-155000000D03*
X130110000Y-153600000D03*
X127110000Y-153600000D03*
%TD*%
D22*
%TO.C,R4*%
X128010000Y-135475000D03*
X128010000Y-137125000D03*
%TD*%
%TO.C,R5*%
X129610000Y-135475000D03*
X129610000Y-137125000D03*
%TD*%
D23*
%TO.C,U8*%
X126800000Y-138932000D03*
X128070000Y-138932000D03*
X129340000Y-138932000D03*
X130610000Y-138932000D03*
X130610000Y-149600000D03*
X129340000Y-149600000D03*
X128070000Y-149600000D03*
X126800000Y-149600000D03*
%TD*%
D20*
%TO.C,C10*%
X128060000Y-133900000D03*
X129610000Y-133900000D03*
%TD*%
D24*
%TO.C,R39*%
X146294594Y-80224479D03*
X143369594Y-80224479D03*
%TD*%
%TO.C,R37*%
X134935382Y-80161985D03*
X137860382Y-80161985D03*
%TD*%
D25*
%TO.C,C6*%
X130285000Y-105600000D03*
X128735000Y-105600000D03*
%TD*%
%TO.C,C7*%
X138910000Y-105600000D03*
X137360000Y-105600000D03*
%TD*%
%TO.C,C9*%
X155310000Y-105600000D03*
X153760000Y-105600000D03*
%TD*%
%TO.C,C8*%
X147310000Y-105600000D03*
X145760000Y-105600000D03*
%TD*%
D26*
%TO.C,R6*%
X153710000Y-104000000D03*
X153710000Y-102350000D03*
%TD*%
%TO.C,R7*%
X155310000Y-104000000D03*
X155310000Y-102350000D03*
%TD*%
%TO.C,R8*%
X145710000Y-104025000D03*
X145710000Y-102375000D03*
%TD*%
%TO.C,R9*%
X147310000Y-104000000D03*
X147310000Y-102350000D03*
%TD*%
%TO.C,R10*%
X137335000Y-102375000D03*
X137335000Y-104025000D03*
%TD*%
D27*
%TO.C,R15*%
X129102119Y-45595682D03*
X129102119Y-60835682D03*
%TD*%
%TO.C,R17*%
X137854627Y-60835682D03*
X137854627Y-45595682D03*
%TD*%
D13*
%TO.C,R28*%
X138648410Y-86784649D03*
X138648410Y-84959649D03*
%TD*%
%TO.C,R27*%
X146910000Y-86825000D03*
X146910000Y-85000000D03*
%TD*%
D14*
%TO.C,U4*%
X131387229Y-100375521D03*
X130117229Y-100375521D03*
X128847229Y-100375521D03*
X127577229Y-100375521D03*
X127577229Y-89715521D03*
X128847229Y-89715521D03*
X130117229Y-89715521D03*
X131387229Y-89715521D03*
%TD*%
D13*
%TO.C,R29*%
X130110000Y-86712500D03*
X130110000Y-84887500D03*
%TD*%
D14*
%TO.C,U7*%
X156484323Y-100362316D03*
X155214323Y-100362316D03*
X153944323Y-100362316D03*
X152674323Y-100362316D03*
X152674323Y-89702316D03*
X153944323Y-89702316D03*
X155214323Y-89702316D03*
X156484323Y-89702316D03*
%TD*%
%TO.C,U6*%
X148387229Y-100375521D03*
X147117229Y-100375521D03*
X145847229Y-100375521D03*
X144577229Y-100375521D03*
X144577229Y-89715521D03*
X145847229Y-89715521D03*
X147117229Y-89715521D03*
X148387229Y-89715521D03*
%TD*%
D28*
%TO.C,U2*%
X139460000Y-125340400D03*
X140110001Y-125340400D03*
X140759999Y-125340400D03*
X141410001Y-125340400D03*
X142059999Y-125340400D03*
X142709998Y-125340400D03*
X143359999Y-125340400D03*
X144009998Y-125340400D03*
X144659999Y-125340400D03*
X145309998Y-125340400D03*
X145310000Y-119600000D03*
X144660002Y-119600000D03*
X144010001Y-119600000D03*
X143360002Y-119600000D03*
X142710001Y-119600000D03*
X142060002Y-119600000D03*
X141410001Y-119600000D03*
X140760002Y-119600000D03*
X140110001Y-119600000D03*
X139460002Y-119600000D03*
%TD*%
%TO.C,U1*%
X145184998Y-116810600D03*
X144534999Y-116810600D03*
X143884998Y-116810600D03*
X143234999Y-116810600D03*
X142584998Y-116810600D03*
X141934999Y-116810600D03*
X141284998Y-116810600D03*
X140634999Y-116810600D03*
X139984998Y-116810600D03*
X139335000Y-116810600D03*
X139335002Y-111070200D03*
X139985001Y-111070200D03*
X140635002Y-111070200D03*
X141285001Y-111070200D03*
X141935002Y-111070200D03*
X142585001Y-111070200D03*
X143234999Y-111070200D03*
X143885001Y-111070200D03*
X144534999Y-111070200D03*
X145185000Y-111070200D03*
%TD*%
D29*
%TO.C,R41*%
X154785000Y-79961985D03*
X157710000Y-79961985D03*
%TD*%
%TO.C,R38*%
X154785000Y-76961985D03*
X157710000Y-76961985D03*
%TD*%
D24*
%TO.C,R36*%
X129052294Y-79890832D03*
X126127294Y-79890832D03*
%TD*%
D30*
%TO.C,R32*%
X154647500Y-62000000D03*
X154647500Y-64925000D03*
%TD*%
%TO.C,R31*%
X154647500Y-66937500D03*
X154647500Y-69862500D03*
%TD*%
%TO.C,R30*%
X154647500Y-71836985D03*
X154647500Y-74761985D03*
%TD*%
D12*
%TO.C,R26*%
X137871867Y-75036990D03*
X137871867Y-77961990D03*
%TD*%
%TO.C,R25*%
X137871867Y-69937500D03*
X137871867Y-72862500D03*
%TD*%
%TO.C,R24*%
X137871867Y-67925000D03*
X137871867Y-65000000D03*
%TD*%
%TO.C,R23*%
X129089794Y-77753332D03*
X129089794Y-74828332D03*
%TD*%
%TO.C,R22*%
X129089794Y-72862500D03*
X129089794Y-69937500D03*
%TD*%
%TO.C,R21*%
X129089794Y-68003848D03*
X129089794Y-65078848D03*
%TD*%
%TO.C,R18*%
X146510000Y-65032501D03*
X146510000Y-67957501D03*
%TD*%
D27*
%TO.C,R16*%
X146510000Y-45600000D03*
X146510000Y-60840000D03*
%TD*%
D22*
%TO.C,R13*%
X130310000Y-102375000D03*
X130310000Y-104025000D03*
%TD*%
%TO.C,R12*%
X128710000Y-102375000D03*
X128710000Y-104025000D03*
%TD*%
%TO.C,R11*%
X138935000Y-102375000D03*
X138935000Y-104025000D03*
%TD*%
D11*
%TO.C,REF\u002A\u002A*%
X156400000Y-112800000D03*
D31*
X156400000Y-115340000D03*
X156400000Y-117880000D03*
X156400000Y-120420000D03*
X156400000Y-122960000D03*
X156400000Y-125500000D03*
X156400000Y-128040000D03*
X156400000Y-130580000D03*
%TD*%
M02*
