%TF.GenerationSoftware,KiCad,Pcbnew,10.0.5*%
%TF.CreationDate,2026-08-30T22:08:12-05:00*%
%TF.ProjectId,breakout,62726561-6b6f-4757-942e-6b696361645f,rev?*%
%TF.SameCoordinates,Original*%
%TF.FileFunction,Copper,L1,Top*%
%TF.FilePolarity,Positive*%
%FSLAX46Y46*%
G04 Gerber Fmt 4.6, Leading zero omitted, Abs format (unit mm)*
G04 Created by KiCad (PCBNEW 10.0.5) date 2026-08-30 22:08:12*
%MOMM*%
%LPD*%
G01*
G04 APERTURE LIST*
G04 Aperture macros list*
%AMRoundRect*
0 Rectangle with rounded corners*
0 $1 Rounding radius*
0 $2 $3 $4 $5 $6 $7 $8 $9 X,Y pos of 4 corners*
0 Add a 4 corners polygon primitive as box body*
4,1,4,$2,$3,$4,$5,$6,$7,$8,$9,$2,$3,0*
0 Add four circle primitives for the rounded corners*
1,1,$1+$1,$2,$3*
1,1,$1+$1,$4,$5*
1,1,$1+$1,$6,$7*
1,1,$1+$1,$8,$9*
0 Add four rect primitives between the rounded corners*
20,1,$1+$1,$2,$3,$4,$5,0*
20,1,$1+$1,$4,$5,$6,$7,0*
20,1,$1+$1,$6,$7,$8,$9,0*
20,1,$1+$1,$8,$9,$2,$3,0*%
G04 Aperture macros list end*
%TA.AperFunction,SMDPad,CuDef*%
%ADD10RoundRect,0.100000X-0.130000X-0.100000X0.130000X-0.100000X0.130000X0.100000X-0.130000X0.100000X0*%
%TD*%
%TA.AperFunction,SMDPad,CuDef*%
%ADD11RoundRect,0.100000X-0.100000X0.130000X-0.100000X-0.130000X0.100000X-0.130000X0.100000X0.130000X0*%
%TD*%
%TA.AperFunction,SMDPad,CuDef*%
%ADD12RoundRect,0.140000X0.170000X-0.140000X0.170000X0.140000X-0.170000X0.140000X-0.170000X-0.140000X0*%
%TD*%
%TA.AperFunction,SMDPad,CuDef*%
%ADD13R,1.168400X0.304800*%
%TD*%
%TA.AperFunction,ComponentPad*%
%ADD14C,1.700000*%
%TD*%
%TA.AperFunction,ComponentPad*%
%ADD15R,1.700000X1.700000*%
%TD*%
%TA.AperFunction,SMDPad,CuDef*%
%ADD16RoundRect,0.140000X-0.170000X0.140000X-0.170000X-0.140000X0.170000X-0.140000X0.170000X0.140000X0*%
%TD*%
%TA.AperFunction,SMDPad,CuDef*%
%ADD17R,2.000000X1.800000*%
%TD*%
%TA.AperFunction,SMDPad,CuDef*%
%ADD18RoundRect,0.100000X0.100000X-0.130000X0.100000X0.130000X-0.100000X0.130000X-0.100000X-0.130000X0*%
%TD*%
%TA.AperFunction,Conductor*%
%ADD19C,0.200000*%
%TD*%
G04 APERTURE END LIST*
D10*
%TO.P,C3,1*%
%TO.N,Net-(J2-Pin_8)*%
X109180000Y-72000000D03*
%TO.P,C3,2*%
%TO.N,Net-(J2-Pin_7)*%
X109820000Y-72000000D03*
%TD*%
D11*
%TO.P,C2,1*%
%TO.N,Net-(J1-Pin_1)*%
X101000000Y-69405000D03*
%TO.P,C2,2*%
%TO.N,Net-(J1-Pin_2)*%
X101000000Y-70045000D03*
%TD*%
D12*
%TO.P,C4,2*%
%TO.N,Net-(J2-Pin_7)*%
X110000000Y-73520000D03*
%TO.P,C4,1*%
%TO.N,Net-(U1-CAP)*%
X110000000Y-74480000D03*
%TD*%
D13*
%TO.P,U1,20,DVDD_20*%
%TO.N,Net-(J2-Pin_8)*%
X108370200Y-73075002D03*
%TO.P,U1,19,DGND_19*%
%TO.N,Net-(J2-Pin_7)*%
X108370200Y-73725001D03*
%TO.P,U1,18,CAP_18*%
%TO.N,Net-(U1-CAP)*%
X108370200Y-74375002D03*
%TO.P,U1,17,CLKIN_17*%
%TO.N,Net-(U1-CLKIN)*%
X108370200Y-75025001D03*
%TO.P,U1,16,DIN_16*%
%TO.N,Net-(J2-Pin_6)*%
X108370200Y-75675002D03*
%TO.P,U1,15,DOUT_15*%
%TO.N,Net-(J2-Pin_5)*%
X108370200Y-76325001D03*
%TO.P,U1,14,SCLK_14*%
%TO.N,Net-(J2-Pin_4)*%
X108370200Y-76975002D03*
%TO.P,U1,13,\u002ADRDY_13*%
%TO.N,Net-(J2-Pin_3)*%
X108370200Y-77625001D03*
%TO.P,U1,12,\u002ACS_12*%
%TO.N,Net-(J2-Pin_2)*%
X108370200Y-78275002D03*
%TO.P,U1,11,\u002ASYNC/\u002ARESET_11*%
%TO.N,Net-(J2-Pin_1)*%
X108370200Y-78925000D03*
%TO.P,U1,10,AIN3P_10*%
%TO.N,Net-(J1-Pin_10)*%
X102629800Y-78924998D03*
%TO.P,U1,9,AIN3N_9*%
%TO.N,Net-(J1-Pin_9)*%
X102629800Y-78274999D03*
%TO.P,U1,8,AIN2N_8*%
%TO.N,Net-(J1-Pin_8)*%
X102629800Y-77624998D03*
%TO.P,U1,7,AIN2P_7*%
%TO.N,Net-(J1-Pin_7)*%
X102629800Y-76974999D03*
%TO.P,U1,6,AIN1P_6*%
%TO.N,Net-(J1-Pin_6)*%
X102629800Y-76324998D03*
%TO.P,U1,5,AIN1N_5*%
%TO.N,Net-(J1-Pin_5)*%
X102629800Y-75674999D03*
%TO.P,U1,4,AIN0N_4*%
%TO.N,Net-(J1-Pin_4)*%
X102629800Y-75025001D03*
%TO.P,U1,3,AIN0P_3*%
%TO.N,Net-(J1-Pin_3)*%
X102629800Y-74374999D03*
%TO.P,U1,2,AGND_2*%
%TO.N,Net-(J1-Pin_2)*%
X102629800Y-73725001D03*
%TO.P,U1,1,AVDD_1*%
%TO.N,Net-(J1-Pin_1)*%
X102629800Y-73075000D03*
%TD*%
D14*
%TO.P,J1,10,Pin_10_10*%
%TO.N,Net-(J1-Pin_10)*%
X96500000Y-86620000D03*
%TO.P,J1,9,Pin_9_9*%
%TO.N,Net-(J1-Pin_9)*%
X96500000Y-84080000D03*
%TO.P,J1,8,Pin_8_8*%
%TO.N,Net-(J1-Pin_8)*%
X96500000Y-81540000D03*
%TO.P,J1,7,Pin_7_7*%
%TO.N,Net-(J1-Pin_7)*%
X96500000Y-79000000D03*
%TO.P,J1,6,Pin_6_6*%
%TO.N,Net-(J1-Pin_6)*%
X96500000Y-76460000D03*
%TO.P,J1,5,Pin_5_5*%
%TO.N,Net-(J1-Pin_5)*%
X96500000Y-73920000D03*
%TO.P,J1,4,Pin_4_4*%
%TO.N,Net-(J1-Pin_4)*%
X96500000Y-71380000D03*
%TO.P,J1,3,Pin_3_3*%
%TO.N,Net-(J1-Pin_3)*%
X96500000Y-68840000D03*
%TO.P,J1,2,Pin_2_2*%
%TO.N,Net-(J1-Pin_2)*%
X96500000Y-66300000D03*
D15*
%TO.P,J1,1,Pin_1_1*%
%TO.N,Net-(J1-Pin_1)*%
X96500000Y-63760000D03*
%TD*%
D16*
%TO.P,C1,1*%
%TO.N,Net-(J1-Pin_1)*%
X101000000Y-73000000D03*
%TO.P,C1,2*%
%TO.N,Net-(J1-Pin_2)*%
X101000000Y-73960000D03*
%TD*%
D17*
%TO.P,Y1,1,EOH_1*%
%TO.N,Net-(J2-Pin_9)*%
X103400000Y-64960000D03*
%TO.P,Y1,2,GND_2*%
%TO.N,Net-(J1-Pin_2)*%
X103400000Y-70040000D03*
%TO.P,Y1,3,OUTPUT_3*%
%TO.N,Net-(U1-CLKIN)*%
X107600000Y-70040000D03*
%TO.P,Y1,4,VCC_4*%
%TO.N,Net-(J1-Pin_1)*%
X107600000Y-64960000D03*
%TD*%
D18*
%TO.P,R1,1*%
%TO.N,Net-(J1-Pin_1)*%
X101500000Y-65975000D03*
%TO.P,R1,2*%
%TO.N,Net-(J2-Pin_9)*%
X101500000Y-65335000D03*
%TD*%
D15*
%TO.P,J2,1,Pin_1_1*%
%TO.N,Net-(J2-Pin_1)*%
X114000000Y-85660000D03*
D14*
%TO.P,J2,2,Pin_2_2*%
%TO.N,Net-(J2-Pin_2)*%
X114000000Y-83120000D03*
%TO.P,J2,3,Pin_3_3*%
%TO.N,Net-(J2-Pin_3)*%
X114000000Y-80580000D03*
%TO.P,J2,4,Pin_4_4*%
%TO.N,Net-(J2-Pin_4)*%
X114000000Y-78040000D03*
%TO.P,J2,5,Pin_5_5*%
%TO.N,Net-(J2-Pin_5)*%
X114000000Y-75500000D03*
%TO.P,J2,6,Pin_6_6*%
%TO.N,Net-(J2-Pin_6)*%
X114000000Y-72960000D03*
%TO.P,J2,7,Pin_7_7*%
%TO.N,Net-(J2-Pin_7)*%
X114000000Y-70420000D03*
%TO.P,J2,8,Pin_8_8*%
%TO.N,Net-(J2-Pin_8)*%
X114000000Y-67880000D03*
%TO.P,J2,9,Pin_9_9*%
%TO.N,Net-(J2-Pin_9)*%
X114000000Y-65340000D03*
%TD*%
%TO.N,Net-(U1-CAP)*%
D19*
X110000000Y-74480000D02*
X108475198Y-74480000D01*
X108475198Y-74480000D02*
X108370200Y-74375002D01*
%TO.N,Net-(J2-Pin_7)*%
X110000000Y-73520000D02*
X110900000Y-73520000D01*
X110900000Y-73520000D02*
X114000000Y-70420000D01*
X110000000Y-73520000D02*
X110000000Y-72180000D01*
X110000000Y-72180000D02*
X109820000Y-72000000D01*
X108370200Y-73725001D02*
X109794999Y-73725001D01*
X109794999Y-73725001D02*
X110000000Y-73520000D01*
%TO.N,Net-(J2-Pin_8)*%
X108370200Y-73075002D02*
X108370200Y-72809800D01*
X108370200Y-72809800D02*
X109180000Y-72000000D01*
%TO.N,Net-(J2-Pin_9)*%
X103400000Y-64960000D02*
X104600000Y-63760000D01*
X104600000Y-63760000D02*
X112420000Y-63760000D01*
X112420000Y-63760000D02*
X114000000Y-65340000D01*
%TO.N,Net-(J2-Pin_6)*%
X114000000Y-72960000D02*
X111284998Y-75675002D01*
X111284998Y-75675002D02*
X108370200Y-75675002D01*
%TO.N,Net-(J2-Pin_5)*%
X114000000Y-75500000D02*
X113174999Y-76325001D01*
X113174999Y-76325001D02*
X108370200Y-76325001D01*
%TO.N,Net-(J2-Pin_4)*%
X114000000Y-78040000D02*
X112935002Y-76975002D01*
X112935002Y-76975002D02*
X108370200Y-76975002D01*
%TO.N,Net-(J2-Pin_3)*%
X114000000Y-80580000D02*
X111045001Y-77625001D01*
X111045001Y-77625001D02*
X108370200Y-77625001D01*
%TO.N,Net-(J2-Pin_2)*%
X114000000Y-83120000D02*
X109155002Y-78275002D01*
X109155002Y-78275002D02*
X108370200Y-78275002D01*
%TO.N,Net-(J2-Pin_1)*%
X108370200Y-78925000D02*
X108370200Y-80030200D01*
X108370200Y-80030200D02*
X114000000Y-85660000D01*
%TO.N,Net-(J1-Pin_1)*%
X101500000Y-65975000D02*
X102025000Y-66500000D01*
X102025000Y-66500000D02*
X106060000Y-66500000D01*
X106060000Y-66500000D02*
X107600000Y-64960000D01*
X101500000Y-65975000D02*
X101500000Y-66500000D01*
X101500000Y-66500000D02*
X101000000Y-67000000D01*
X101000000Y-67000000D02*
X101000000Y-69475000D01*
%TO.N,Net-(J2-Pin_9)*%
X101500000Y-65335000D02*
X103025000Y-65335000D01*
X103025000Y-65335000D02*
X103400000Y-64960000D01*
%TO.N,Net-(J1-Pin_1)*%
X96500000Y-63760000D02*
X98715000Y-65975000D01*
X98715000Y-65975000D02*
X101500000Y-65975000D01*
%TO.N,Net-(J1-Pin_10)*%
X102629800Y-78924998D02*
X102629800Y-80490200D01*
X102629800Y-80490200D02*
X96500000Y-86620000D01*
%TO.N,Net-(J1-Pin_9)*%
X102629800Y-78274999D02*
X101845600Y-78274999D01*
X101845600Y-78274999D02*
X96500000Y-83620599D01*
X96500000Y-83620599D02*
X96500000Y-84080000D01*
%TO.N,Net-(J1-Pin_8)*%
X102629800Y-77624998D02*
X100415002Y-77624998D01*
X100415002Y-77624998D02*
X96500000Y-81540000D01*
%TO.N,Net-(J1-Pin_7)*%
X102629800Y-76974999D02*
X98525001Y-76974999D01*
X98525001Y-76974999D02*
X96500000Y-79000000D01*
%TO.N,Net-(J1-Pin_6)*%
X102629800Y-76324998D02*
X96635002Y-76324998D01*
X96635002Y-76324998D02*
X96500000Y-76460000D01*
%TO.N,Net-(J1-Pin_5)*%
X102629800Y-75674999D02*
X98254999Y-75674999D01*
X98254999Y-75674999D02*
X96500000Y-73920000D01*
%TO.N,Net-(J1-Pin_4)*%
X102629800Y-75025001D02*
X99893631Y-75025001D01*
X99893631Y-75025001D02*
X96500000Y-71631370D01*
X96500000Y-71631370D02*
X96500000Y-71380000D01*
%TO.N,Net-(J1-Pin_3)*%
X102629800Y-74374999D02*
X102464799Y-74540000D01*
X102464799Y-74540000D02*
X99974315Y-74540000D01*
X98000000Y-72565685D02*
X98000000Y-70340000D01*
X99974315Y-74540000D02*
X98000000Y-72565685D01*
X98000000Y-70340000D02*
X96500000Y-68840000D01*
%TO.N,Net-(U1-CLKIN)*%
X107600000Y-70040000D02*
X107486000Y-70154000D01*
X107486000Y-70154000D02*
X107486000Y-74925001D01*
X107486000Y-74925001D02*
X107586000Y-75025001D01*
X107586000Y-75025001D02*
X108370200Y-75025001D01*
%TO.N,Net-(J1-Pin_2)*%
X101000000Y-69975000D02*
X103514000Y-72489000D01*
X103514000Y-73625001D02*
X103414000Y-73725001D01*
X103514000Y-72489000D02*
X103514000Y-73625001D01*
X103414000Y-73725001D02*
X102629800Y-73725001D01*
X101000000Y-69975000D02*
X103335000Y-69975000D01*
X103335000Y-69975000D02*
X103400000Y-70040000D01*
%TO.N,Net-(J1-Pin_1)*%
X101000000Y-73000000D02*
X100550000Y-72550000D01*
X100550000Y-72550000D02*
X100550000Y-69692590D01*
X100550000Y-69692590D02*
X100767590Y-69475000D01*
X100767590Y-69475000D02*
X101000000Y-69475000D01*
X101000000Y-73000000D02*
X102554800Y-73000000D01*
X102554800Y-73000000D02*
X102629800Y-73075000D01*
%TO.N,Net-(J1-Pin_2)*%
X101000000Y-73960000D02*
X101234999Y-73725001D01*
X101234999Y-73725001D02*
X102629800Y-73725001D01*
X100000000Y-69800000D02*
X100000000Y-74000000D01*
X96500000Y-66300000D02*
X100000000Y-69800000D01*
X100000000Y-74000000D02*
X100040000Y-73960000D01*
X100040000Y-73960000D02*
X101000000Y-73960000D01*
%TD*%
M02*
