%TF.GenerationSoftware,KiCad,Pcbnew,10.0.5*%
%TF.CreationDate,2026-08-30T22:08:12-05:00*%
%TF.ProjectId,breakout,62726561-6b6f-4757-942e-6b696361645f,rev?*%
%TF.SameCoordinates,Original*%
%TF.FileFunction,Soldermask,Top*%
%TF.FilePolarity,Negative*%
%FSLAX46Y46*%
G04 Gerber Fmt 4.6, Leading zero omitted, Abs format (unit mm)*
G04 Created by KiCad (PCBNEW 10.0.5) date 2026-08-30 22:08:12*
%MOMM*%
%LPD*%
G01*
G04 APERTURE LIST*
G04 Aperture macros list*
%AMRoundRect*
0 Rectangle with rounded corners*
0 $1 Rounding radius*
0 $2 $3 $4 $5 $6 $7 $8 $9 X,Y pos of 4 corners*
0 Add a 4 corners polygon primitive as box body*
4,1,4,$2,$3,$4,$5,$6,$7,$8,$9,$2,$3,0*
0 Add four circle primitives for the rounded corners*
1,1,$1+$1,$2,$3*
1,1,$1+$1,$4,$5*
1,1,$1+$1,$6,$7*
1,1,$1+$1,$8,$9*
0 Add four rect primitives between the rounded corners*
20,1,$1+$1,$2,$3,$4,$5,0*
20,1,$1+$1,$4,$5,$6,$7,0*
20,1,$1+$1,$6,$7,$8,$9,0*
20,1,$1+$1,$8,$9,$2,$3,0*%
G04 Aperture macros list end*
%ADD10RoundRect,0.100000X-0.130000X-0.100000X0.130000X-0.100000X0.130000X0.100000X-0.130000X0.100000X0*%
%ADD11RoundRect,0.100000X-0.100000X0.130000X-0.100000X-0.130000X0.100000X-0.130000X0.100000X0.130000X0*%
%ADD12RoundRect,0.140000X0.170000X-0.140000X0.170000X0.140000X-0.170000X0.140000X-0.170000X-0.140000X0*%
%ADD13R,1.168400X0.304800*%
%ADD14C,1.700000*%
%ADD15R,1.700000X1.700000*%
%ADD16RoundRect,0.140000X-0.170000X0.140000X-0.170000X-0.140000X0.170000X-0.140000X0.170000X0.140000X0*%
%ADD17RoundRect,0.102000X-1.000000X-0.900000X1.000000X-0.900000X1.000000X0.900000X-1.000000X0.900000X0*%
%ADD18RoundRect,0.100000X0.100000X-0.130000X0.100000X0.130000X-0.100000X0.130000X-0.100000X-0.130000X0*%
G04 APERTURE END LIST*
D10*
%TO.C,C3*%
X109180000Y-72000000D03*
X109820000Y-72000000D03*
%TD*%
D11*
%TO.C,C2*%
X101000000Y-69405000D03*
X101000000Y-70045000D03*
%TD*%
D12*
%TO.C,C4*%
X110000000Y-73520000D03*
X110000000Y-74480000D03*
%TD*%
D13*
%TO.C,U1*%
X108370200Y-73075002D03*
X108370200Y-73725001D03*
X108370200Y-74375002D03*
X108370200Y-75025001D03*
X108370200Y-75675002D03*
X108370200Y-76325001D03*
X108370200Y-76975002D03*
X108370200Y-77625001D03*
X108370200Y-78275002D03*
X108370200Y-78925000D03*
X102629800Y-78924998D03*
X102629800Y-78274999D03*
X102629800Y-77624998D03*
X102629800Y-76974999D03*
X102629800Y-76324998D03*
X102629800Y-75674999D03*
X102629800Y-75025001D03*
X102629800Y-74374999D03*
X102629800Y-73725001D03*
X102629800Y-73075000D03*
%TD*%
D14*
%TO.C,J1*%
X96500000Y-86620000D03*
X96500000Y-84080000D03*
X96500000Y-81540000D03*
X96500000Y-79000000D03*
X96500000Y-76460000D03*
X96500000Y-73920000D03*
X96500000Y-71380000D03*
X96500000Y-68840000D03*
X96500000Y-66300000D03*
D15*
X96500000Y-63760000D03*
%TD*%
D16*
%TO.C,C1*%
X101000000Y-73000000D03*
X101000000Y-73960000D03*
%TD*%
D17*
%TO.C,Y1*%
X103400000Y-64960000D03*
X103400000Y-70040000D03*
X107600000Y-70040000D03*
X107600000Y-64960000D03*
%TD*%
D18*
%TO.C,R1*%
X101500000Y-65975000D03*
X101500000Y-65335000D03*
%TD*%
D15*
%TO.C,J2*%
X114000000Y-85660000D03*
D14*
X114000000Y-83120000D03*
X114000000Y-80580000D03*
X114000000Y-78040000D03*
X114000000Y-75500000D03*
X114000000Y-72960000D03*
X114000000Y-70420000D03*
X114000000Y-67880000D03*
X114000000Y-65340000D03*
%TD*%
M02*
