%TF.GenerationSoftware,KiCad,Pcbnew,9.0.5*%
%TF.CreationDate,2025-11-07T15:18:30-06:00*%
%TF.ProjectId,rs485_interface_board_RevA,72733438-355f-4696-9e74-657266616365,rev?*%
%TF.SameCoordinates,Original*%
%TF.FileFunction,Copper,L1,Top*%
%TF.FilePolarity,Positive*%
%FSLAX46Y46*%
G04 Gerber Fmt 4.6, Leading zero omitted, Abs format (unit mm)*
G04 Created by KiCad (PCBNEW 9.0.5) date 2025-11-07 15:18:30*
%MOMM*%
%LPD*%
G01*
G04 APERTURE LIST*
G04 Aperture macros list*
%AMRoundRect*
0 Rectangle with rounded corners*
0 $1 Rounding radius*
0 $2 $3 $4 $5 $6 $7 $8 $9 X,Y pos of 4 corners*
0 Add a 4 corners polygon primitive as box body*
4,1,4,$2,$3,$4,$5,$6,$7,$8,$9,$2,$3,0*
0 Add four circle primitives for the rounded corners*
1,1,$1+$1,$2,$3*
1,1,$1+$1,$4,$5*
1,1,$1+$1,$6,$7*
1,1,$1+$1,$8,$9*
0 Add four rect primitives between the rounded corners*
20,1,$1+$1,$2,$3,$4,$5,0*
20,1,$1+$1,$4,$5,$6,$7,0*
20,1,$1+$1,$6,$7,$8,$9,0*
20,1,$1+$1,$8,$9,$2,$3,0*%
G04 Aperture macros list end*
%TA.AperFunction,SMDPad,CuDef*%
%ADD10R,0.558800X1.320800*%
%TD*%
%TA.AperFunction,SMDPad,CuDef*%
%ADD11RoundRect,0.200000X0.275000X-0.200000X0.275000X0.200000X-0.275000X0.200000X-0.275000X-0.200000X0*%
%TD*%
%TA.AperFunction,ComponentPad*%
%ADD12C,1.600000*%
%TD*%
%TA.AperFunction,SMDPad,CuDef*%
%ADD13RoundRect,0.250000X-0.250000X-0.475000X0.250000X-0.475000X0.250000X0.475000X-0.250000X0.475000X0*%
%TD*%
%TA.AperFunction,SMDPad,CuDef*%
%ADD14RoundRect,0.250000X0.475000X-0.250000X0.475000X0.250000X-0.475000X0.250000X-0.475000X-0.250000X0*%
%TD*%
%TA.AperFunction,ComponentPad*%
%ADD15R,1.700000X1.700000*%
%TD*%
%TA.AperFunction,ComponentPad*%
%ADD16C,1.408000*%
%TD*%
%TA.AperFunction,ComponentPad*%
%ADD17C,1.700000*%
%TD*%
%TA.AperFunction,ComponentPad*%
%ADD18R,1.371600X1.371600*%
%TD*%
%TA.AperFunction,ComponentPad*%
%ADD19C,1.371600*%
%TD*%
%TA.AperFunction,ViaPad*%
%ADD20C,0.600000*%
%TD*%
%TA.AperFunction,Conductor*%
%ADD21C,0.200000*%
%TD*%
G04 APERTURE END LIST*
D10*
%TO.P,U2,1,1*%
%TO.N,Net-(J2-Pad2)*%
X127950001Y-95968000D03*
%TO.P,U2,2,2*%
%TO.N,Net-(J2-Pad1)*%
X126049999Y-95968000D03*
%TO.P,U2,3,3*%
%TO.N,GND*%
X127000000Y-98000000D03*
%TD*%
D11*
%TO.P,R4,2*%
%TO.N,Net-(J2-Pad2)*%
X133000000Y-95675000D03*
%TO.P,R4,1*%
%TO.N,Net-(U1-B)*%
X133000000Y-97325000D03*
%TD*%
%TO.P,R3,1*%
%TO.N,Net-(U1-A)*%
X121500000Y-97325000D03*
%TO.P,R3,2*%
%TO.N,Net-(J2-Pad1)*%
X121500000Y-95675000D03*
%TD*%
D12*
%TO.P,R2,1*%
%TO.N,Net-(J1-Pin_2)*%
X132500000Y-114690000D03*
%TO.P,R2,2*%
%TO.N,GND*%
X132500000Y-122310000D03*
%TD*%
%TO.P,R1,1*%
%TO.N,+5V*%
X114880000Y-119500000D03*
%TO.P,R1,2*%
%TO.N,Net-(J1-Pin_3)*%
X122500000Y-119500000D03*
%TD*%
D13*
%TO.P,C1,1*%
%TO.N,GND*%
X115600000Y-114000000D03*
%TO.P,C1,2*%
%TO.N,+5V*%
X117500000Y-114000000D03*
%TD*%
D14*
%TO.P,C2,1*%
%TO.N,+5V*%
X118000000Y-103450000D03*
%TO.P,C2,2*%
%TO.N,GND*%
X118000000Y-101550000D03*
%TD*%
D15*
%TO.P,GND1,1,Pin_1*%
%TO.N,GND*%
X135000000Y-108000000D03*
%TD*%
%TO.P,5V1,1,Pin_1*%
%TO.N,+5V*%
X117500000Y-108000000D03*
%TD*%
D16*
%TO.P,J2,1*%
%TO.N,Net-(J2-Pad1)*%
X129478779Y-88999511D03*
%TO.P,J2,2*%
%TO.N,Net-(J2-Pad2)*%
X128208779Y-86459511D03*
%TO.P,J2,3*%
%TO.N,GND*%
X126938779Y-88999511D03*
%TO.P,J2,4*%
%TO.N,unconnected-(J2-Pad4)*%
X125668779Y-86459511D03*
%TO.P,J2,5*%
X124398779Y-88999511D03*
%TO.P,J2,6*%
X123128779Y-86459511D03*
%TD*%
D15*
%TO.P,J1,1,Pin_1*%
%TO.N,Net-(J1-Pin_1)*%
X129000000Y-126000000D03*
D17*
%TO.P,J1,2,Pin_2*%
%TO.N,Net-(J1-Pin_2)*%
X126460000Y-126000000D03*
%TO.P,J1,3,Pin_3*%
%TO.N,Net-(J1-Pin_3)*%
X123920000Y-126000000D03*
%TD*%
D18*
%TO.P,U1,1,R*%
%TO.N,Net-(J1-Pin_3)*%
X122880000Y-112120000D03*
D19*
%TO.P,U1,2,\u002ARE*%
%TO.N,Net-(J1-Pin_2)*%
X125420000Y-112120000D03*
%TO.P,U1,3,DE*%
X127960000Y-112120000D03*
%TO.P,U1,4,D*%
%TO.N,Net-(J1-Pin_1)*%
X130500000Y-112120000D03*
%TO.P,U1,5,GND*%
%TO.N,GND*%
X130500000Y-104500000D03*
%TO.P,U1,6,A*%
%TO.N,Net-(U1-A)*%
X127960000Y-104500000D03*
%TO.P,U1,7,B*%
%TO.N,Net-(U1-B)*%
X125420000Y-104500000D03*
%TO.P,U1,8,VCC*%
%TO.N,+5V*%
X122880000Y-104500000D03*
%TD*%
D20*
%TO.N,GND*%
X115500000Y-114000000D03*
%TO.N,Net-(U1-A)*%
X121500000Y-97500000D03*
%TO.N,GND*%
X127000000Y-98500000D03*
X118000000Y-101450000D03*
%TD*%
D21*
%TO.N,Net-(J1-Pin_2)*%
X127800000Y-114500000D02*
X127800000Y-124660000D01*
X127800000Y-124660000D02*
X126460000Y-126000000D01*
%TO.N,+5V*%
X117500000Y-108000000D02*
X117500000Y-103950000D01*
X117500000Y-103950000D02*
X118000000Y-103450000D01*
X114880000Y-119500000D02*
X114880000Y-116620000D01*
X114880000Y-116620000D02*
X117500000Y-114000000D01*
X117500000Y-108000000D02*
X117500000Y-114000000D01*
X117500000Y-108000000D02*
X119380000Y-108000000D01*
X119380000Y-108000000D02*
X122880000Y-104500000D01*
%TO.N,Net-(J1-Pin_2)*%
X128000000Y-114500000D02*
X128500000Y-114500000D01*
X128500000Y-114500000D02*
X128690000Y-114690000D01*
X128690000Y-114690000D02*
X132500000Y-114690000D01*
%TO.N,Net-(J2-Pad2)*%
X133000000Y-95675000D02*
X133000000Y-93500000D01*
X127950001Y-95968000D02*
X130532000Y-95968000D01*
X130532000Y-95968000D02*
X133000000Y-93500000D01*
%TO.N,Net-(J2-Pad1)*%
X122803290Y-95675000D02*
X125489145Y-92989145D01*
X126049999Y-95968000D02*
X126049999Y-93549999D01*
X126049999Y-93549999D02*
X125489145Y-92989145D01*
%TO.N,Net-(J1-Pin_3)*%
X122500000Y-119500000D02*
X122500000Y-124580000D01*
X122500000Y-124580000D02*
X123920000Y-126000000D01*
X122880000Y-112120000D02*
X122880000Y-119120000D01*
X122880000Y-119120000D02*
X122500000Y-119500000D01*
%TO.N,Net-(J2-Pad2)*%
X133000000Y-93500000D02*
X133000000Y-90255126D01*
X133000000Y-90255126D02*
X129204385Y-86459511D01*
X129204385Y-86459511D02*
X128208779Y-86459511D01*
%TO.N,Net-(J2-Pad1)*%
X121500000Y-95675000D02*
X122803290Y-95675000D01*
X125489145Y-92989145D02*
X129478779Y-88999511D01*
%TO.N,Net-(U1-B)*%
X125420000Y-104500000D02*
X125420000Y-102580000D01*
X125420000Y-102580000D02*
X130675000Y-97325000D01*
X130675000Y-97325000D02*
X133000000Y-97325000D01*
%TO.N,Net-(J1-Pin_2)*%
X127800000Y-114500000D02*
X128000000Y-114500000D01*
X127960000Y-112120000D02*
X127960000Y-114460000D01*
X127960000Y-114460000D02*
X128000000Y-114500000D01*
X125420000Y-112120000D02*
X127800000Y-114500000D01*
%TO.N,Net-(J1-Pin_3)*%
X122880000Y-119260000D02*
X123120000Y-119500000D01*
%TD*%
M02*
