%TF.GenerationSoftware,KiCad,Pcbnew,9.0.5*%
%TF.CreationDate,2025-11-07T15:18:30-06:00*%
%TF.ProjectId,rs485_interface_board_RevA,72733438-355f-4696-9e74-657266616365,rev?*%
%TF.SameCoordinates,Original*%
%TF.FileFunction,Legend,Top*%
%TF.FilePolarity,Positive*%
%FSLAX46Y46*%
G04 Gerber Fmt 4.6, Leading zero omitted, Abs format (unit mm)*
G04 Created by KiCad (PCBNEW 9.0.5) date 2025-11-07 15:18:30*
%MOMM*%
%LPD*%
G01*
G04 APERTURE LIST*
%ADD10C,0.300000*%
%ADD11C,0.150000*%
%ADD12C,0.152400*%
%ADD13C,0.120000*%
%ADD14C,0.200000*%
G04 APERTURE END LIST*
D10*
X138800828Y-101088346D02*
X138086542Y-101588346D01*
X138800828Y-101945489D02*
X137300828Y-101945489D01*
X137300828Y-101945489D02*
X137300828Y-101374060D01*
X137300828Y-101374060D02*
X137372257Y-101231203D01*
X137372257Y-101231203D02*
X137443685Y-101159774D01*
X137443685Y-101159774D02*
X137586542Y-101088346D01*
X137586542Y-101088346D02*
X137800828Y-101088346D01*
X137800828Y-101088346D02*
X137943685Y-101159774D01*
X137943685Y-101159774D02*
X138015114Y-101231203D01*
X138015114Y-101231203D02*
X138086542Y-101374060D01*
X138086542Y-101374060D02*
X138086542Y-101945489D01*
X138729400Y-100516917D02*
X138800828Y-100302632D01*
X138800828Y-100302632D02*
X138800828Y-99945489D01*
X138800828Y-99945489D02*
X138729400Y-99802632D01*
X138729400Y-99802632D02*
X138657971Y-99731203D01*
X138657971Y-99731203D02*
X138515114Y-99659774D01*
X138515114Y-99659774D02*
X138372257Y-99659774D01*
X138372257Y-99659774D02*
X138229400Y-99731203D01*
X138229400Y-99731203D02*
X138157971Y-99802632D01*
X138157971Y-99802632D02*
X138086542Y-99945489D01*
X138086542Y-99945489D02*
X138015114Y-100231203D01*
X138015114Y-100231203D02*
X137943685Y-100374060D01*
X137943685Y-100374060D02*
X137872257Y-100445489D01*
X137872257Y-100445489D02*
X137729400Y-100516917D01*
X137729400Y-100516917D02*
X137586542Y-100516917D01*
X137586542Y-100516917D02*
X137443685Y-100445489D01*
X137443685Y-100445489D02*
X137372257Y-100374060D01*
X137372257Y-100374060D02*
X137300828Y-100231203D01*
X137300828Y-100231203D02*
X137300828Y-99874060D01*
X137300828Y-99874060D02*
X137372257Y-99659774D01*
X138229400Y-99016918D02*
X138229400Y-97874061D01*
X137800828Y-96516918D02*
X138800828Y-96516918D01*
X137229400Y-96874060D02*
X138300828Y-97231203D01*
X138300828Y-97231203D02*
X138300828Y-96302632D01*
X137943685Y-95516918D02*
X137872257Y-95659775D01*
X137872257Y-95659775D02*
X137800828Y-95731204D01*
X137800828Y-95731204D02*
X137657971Y-95802632D01*
X137657971Y-95802632D02*
X137586542Y-95802632D01*
X137586542Y-95802632D02*
X137443685Y-95731204D01*
X137443685Y-95731204D02*
X137372257Y-95659775D01*
X137372257Y-95659775D02*
X137300828Y-95516918D01*
X137300828Y-95516918D02*
X137300828Y-95231204D01*
X137300828Y-95231204D02*
X137372257Y-95088347D01*
X137372257Y-95088347D02*
X137443685Y-95016918D01*
X137443685Y-95016918D02*
X137586542Y-94945489D01*
X137586542Y-94945489D02*
X137657971Y-94945489D01*
X137657971Y-94945489D02*
X137800828Y-95016918D01*
X137800828Y-95016918D02*
X137872257Y-95088347D01*
X137872257Y-95088347D02*
X137943685Y-95231204D01*
X137943685Y-95231204D02*
X137943685Y-95516918D01*
X137943685Y-95516918D02*
X138015114Y-95659775D01*
X138015114Y-95659775D02*
X138086542Y-95731204D01*
X138086542Y-95731204D02*
X138229400Y-95802632D01*
X138229400Y-95802632D02*
X138515114Y-95802632D01*
X138515114Y-95802632D02*
X138657971Y-95731204D01*
X138657971Y-95731204D02*
X138729400Y-95659775D01*
X138729400Y-95659775D02*
X138800828Y-95516918D01*
X138800828Y-95516918D02*
X138800828Y-95231204D01*
X138800828Y-95231204D02*
X138729400Y-95088347D01*
X138729400Y-95088347D02*
X138657971Y-95016918D01*
X138657971Y-95016918D02*
X138515114Y-94945489D01*
X138515114Y-94945489D02*
X138229400Y-94945489D01*
X138229400Y-94945489D02*
X138086542Y-95016918D01*
X138086542Y-95016918D02*
X138015114Y-95088347D01*
X138015114Y-95088347D02*
X137943685Y-95231204D01*
X137300828Y-93588347D02*
X137300828Y-94302633D01*
X137300828Y-94302633D02*
X138015114Y-94374061D01*
X138015114Y-94374061D02*
X137943685Y-94302633D01*
X137943685Y-94302633D02*
X137872257Y-94159776D01*
X137872257Y-94159776D02*
X137872257Y-93802633D01*
X137872257Y-93802633D02*
X137943685Y-93659776D01*
X137943685Y-93659776D02*
X138015114Y-93588347D01*
X138015114Y-93588347D02*
X138157971Y-93516918D01*
X138157971Y-93516918D02*
X138515114Y-93516918D01*
X138515114Y-93516918D02*
X138657971Y-93588347D01*
X138657971Y-93588347D02*
X138729400Y-93659776D01*
X138729400Y-93659776D02*
X138800828Y-93802633D01*
X138800828Y-93802633D02*
X138800828Y-94159776D01*
X138800828Y-94159776D02*
X138729400Y-94302633D01*
X138729400Y-94302633D02*
X138657971Y-94374061D01*
X138015114Y-91731205D02*
X138015114Y-91231205D01*
X138800828Y-91016919D02*
X138800828Y-91731205D01*
X138800828Y-91731205D02*
X137300828Y-91731205D01*
X137300828Y-91731205D02*
X137300828Y-91016919D01*
X137300828Y-90588347D02*
X137300828Y-89731205D01*
X138800828Y-90159776D02*
X137300828Y-90159776D01*
X138800828Y-89231205D02*
X137300828Y-89231205D01*
X138015114Y-89231205D02*
X138015114Y-88374062D01*
X138800828Y-88374062D02*
X137300828Y-88374062D01*
X138800828Y-86516919D02*
X137300828Y-86516919D01*
X137800828Y-85802633D02*
X138800828Y-85802633D01*
X137943685Y-85802633D02*
X137872257Y-85731204D01*
X137872257Y-85731204D02*
X137800828Y-85588347D01*
X137800828Y-85588347D02*
X137800828Y-85374061D01*
X137800828Y-85374061D02*
X137872257Y-85231204D01*
X137872257Y-85231204D02*
X138015114Y-85159776D01*
X138015114Y-85159776D02*
X138800828Y-85159776D01*
X137800828Y-84659775D02*
X137800828Y-84088347D01*
X137300828Y-84445490D02*
X138586542Y-84445490D01*
X138586542Y-84445490D02*
X138729400Y-84374061D01*
X138729400Y-84374061D02*
X138800828Y-84231204D01*
X138800828Y-84231204D02*
X138800828Y-84088347D01*
X138729400Y-83016918D02*
X138800828Y-83159775D01*
X138800828Y-83159775D02*
X138800828Y-83445490D01*
X138800828Y-83445490D02*
X138729400Y-83588347D01*
X138729400Y-83588347D02*
X138586542Y-83659775D01*
X138586542Y-83659775D02*
X138015114Y-83659775D01*
X138015114Y-83659775D02*
X137872257Y-83588347D01*
X137872257Y-83588347D02*
X137800828Y-83445490D01*
X137800828Y-83445490D02*
X137800828Y-83159775D01*
X137800828Y-83159775D02*
X137872257Y-83016918D01*
X137872257Y-83016918D02*
X138015114Y-82945490D01*
X138015114Y-82945490D02*
X138157971Y-82945490D01*
X138157971Y-82945490D02*
X138300828Y-83659775D01*
X138800828Y-82302633D02*
X137800828Y-82302633D01*
X138086542Y-82302633D02*
X137943685Y-82231204D01*
X137943685Y-82231204D02*
X137872257Y-82159776D01*
X137872257Y-82159776D02*
X137800828Y-82016918D01*
X137800828Y-82016918D02*
X137800828Y-81874061D01*
X137800828Y-81588347D02*
X137800828Y-81016919D01*
X138800828Y-81374062D02*
X137515114Y-81374062D01*
X137515114Y-81374062D02*
X137372257Y-81302633D01*
X137372257Y-81302633D02*
X137300828Y-81159776D01*
X137300828Y-81159776D02*
X137300828Y-81016919D01*
X138800828Y-79874062D02*
X138015114Y-79874062D01*
X138015114Y-79874062D02*
X137872257Y-79945490D01*
X137872257Y-79945490D02*
X137800828Y-80088347D01*
X137800828Y-80088347D02*
X137800828Y-80374062D01*
X137800828Y-80374062D02*
X137872257Y-80516919D01*
X138729400Y-79874062D02*
X138800828Y-80016919D01*
X138800828Y-80016919D02*
X138800828Y-80374062D01*
X138800828Y-80374062D02*
X138729400Y-80516919D01*
X138729400Y-80516919D02*
X138586542Y-80588347D01*
X138586542Y-80588347D02*
X138443685Y-80588347D01*
X138443685Y-80588347D02*
X138300828Y-80516919D01*
X138300828Y-80516919D02*
X138229400Y-80374062D01*
X138229400Y-80374062D02*
X138229400Y-80016919D01*
X138229400Y-80016919D02*
X138157971Y-79874062D01*
X138729400Y-78516919D02*
X138800828Y-78659776D01*
X138800828Y-78659776D02*
X138800828Y-78945490D01*
X138800828Y-78945490D02*
X138729400Y-79088347D01*
X138729400Y-79088347D02*
X138657971Y-79159776D01*
X138657971Y-79159776D02*
X138515114Y-79231204D01*
X138515114Y-79231204D02*
X138086542Y-79231204D01*
X138086542Y-79231204D02*
X137943685Y-79159776D01*
X137943685Y-79159776D02*
X137872257Y-79088347D01*
X137872257Y-79088347D02*
X137800828Y-78945490D01*
X137800828Y-78945490D02*
X137800828Y-78659776D01*
X137800828Y-78659776D02*
X137872257Y-78516919D01*
X138729400Y-77302633D02*
X138800828Y-77445490D01*
X138800828Y-77445490D02*
X138800828Y-77731205D01*
X138800828Y-77731205D02*
X138729400Y-77874062D01*
X138729400Y-77874062D02*
X138586542Y-77945490D01*
X138586542Y-77945490D02*
X138015114Y-77945490D01*
X138015114Y-77945490D02*
X137872257Y-77874062D01*
X137872257Y-77874062D02*
X137800828Y-77731205D01*
X137800828Y-77731205D02*
X137800828Y-77445490D01*
X137800828Y-77445490D02*
X137872257Y-77302633D01*
X137872257Y-77302633D02*
X138015114Y-77231205D01*
X138015114Y-77231205D02*
X138157971Y-77231205D01*
X138157971Y-77231205D02*
X138300828Y-77945490D01*
X138800828Y-74588348D02*
X138086542Y-75088348D01*
X138800828Y-75445491D02*
X137300828Y-75445491D01*
X137300828Y-75445491D02*
X137300828Y-74874062D01*
X137300828Y-74874062D02*
X137372257Y-74731205D01*
X137372257Y-74731205D02*
X137443685Y-74659776D01*
X137443685Y-74659776D02*
X137586542Y-74588348D01*
X137586542Y-74588348D02*
X137800828Y-74588348D01*
X137800828Y-74588348D02*
X137943685Y-74659776D01*
X137943685Y-74659776D02*
X138015114Y-74731205D01*
X138015114Y-74731205D02*
X138086542Y-74874062D01*
X138086542Y-74874062D02*
X138086542Y-75445491D01*
X138729400Y-73374062D02*
X138800828Y-73516919D01*
X138800828Y-73516919D02*
X138800828Y-73802634D01*
X138800828Y-73802634D02*
X138729400Y-73945491D01*
X138729400Y-73945491D02*
X138586542Y-74016919D01*
X138586542Y-74016919D02*
X138015114Y-74016919D01*
X138015114Y-74016919D02*
X137872257Y-73945491D01*
X137872257Y-73945491D02*
X137800828Y-73802634D01*
X137800828Y-73802634D02*
X137800828Y-73516919D01*
X137800828Y-73516919D02*
X137872257Y-73374062D01*
X137872257Y-73374062D02*
X138015114Y-73302634D01*
X138015114Y-73302634D02*
X138157971Y-73302634D01*
X138157971Y-73302634D02*
X138300828Y-74016919D01*
X137800828Y-72802634D02*
X138800828Y-72445491D01*
X138800828Y-72445491D02*
X137800828Y-72088348D01*
X138372257Y-71588348D02*
X138372257Y-70874063D01*
X138800828Y-71731205D02*
X137300828Y-71231205D01*
X137300828Y-71231205D02*
X138800828Y-70731205D01*
D11*
X127761904Y-97529180D02*
X127761904Y-96719657D01*
X127761904Y-96719657D02*
X127714285Y-96624419D01*
X127714285Y-96624419D02*
X127666666Y-96576800D01*
X127666666Y-96576800D02*
X127571428Y-96529180D01*
X127571428Y-96529180D02*
X127380952Y-96529180D01*
X127380952Y-96529180D02*
X127285714Y-96576800D01*
X127285714Y-96576800D02*
X127238095Y-96624419D01*
X127238095Y-96624419D02*
X127190476Y-96719657D01*
X127190476Y-96719657D02*
X127190476Y-97529180D01*
X126761904Y-97433942D02*
X126714285Y-97481561D01*
X126714285Y-97481561D02*
X126619047Y-97529180D01*
X126619047Y-97529180D02*
X126380952Y-97529180D01*
X126380952Y-97529180D02*
X126285714Y-97481561D01*
X126285714Y-97481561D02*
X126238095Y-97433942D01*
X126238095Y-97433942D02*
X126190476Y-97338704D01*
X126190476Y-97338704D02*
X126190476Y-97243466D01*
X126190476Y-97243466D02*
X126238095Y-97100609D01*
X126238095Y-97100609D02*
X126809523Y-96529180D01*
X126809523Y-96529180D02*
X126190476Y-96529180D01*
X132024819Y-96666666D02*
X131548628Y-96999999D01*
X132024819Y-97238094D02*
X131024819Y-97238094D01*
X131024819Y-97238094D02*
X131024819Y-96857142D01*
X131024819Y-96857142D02*
X131072438Y-96761904D01*
X131072438Y-96761904D02*
X131120057Y-96714285D01*
X131120057Y-96714285D02*
X131215295Y-96666666D01*
X131215295Y-96666666D02*
X131358152Y-96666666D01*
X131358152Y-96666666D02*
X131453390Y-96714285D01*
X131453390Y-96714285D02*
X131501009Y-96761904D01*
X131501009Y-96761904D02*
X131548628Y-96857142D01*
X131548628Y-96857142D02*
X131548628Y-97238094D01*
X131358152Y-95809523D02*
X132024819Y-95809523D01*
X130977200Y-96047618D02*
X131691485Y-96285713D01*
X131691485Y-96285713D02*
X131691485Y-95666666D01*
X120524819Y-96666666D02*
X120048628Y-96999999D01*
X120524819Y-97238094D02*
X119524819Y-97238094D01*
X119524819Y-97238094D02*
X119524819Y-96857142D01*
X119524819Y-96857142D02*
X119572438Y-96761904D01*
X119572438Y-96761904D02*
X119620057Y-96714285D01*
X119620057Y-96714285D02*
X119715295Y-96666666D01*
X119715295Y-96666666D02*
X119858152Y-96666666D01*
X119858152Y-96666666D02*
X119953390Y-96714285D01*
X119953390Y-96714285D02*
X120001009Y-96761904D01*
X120001009Y-96761904D02*
X120048628Y-96857142D01*
X120048628Y-96857142D02*
X120048628Y-97238094D01*
X119524819Y-96333332D02*
X119524819Y-95714285D01*
X119524819Y-95714285D02*
X119905771Y-96047618D01*
X119905771Y-96047618D02*
X119905771Y-95904761D01*
X119905771Y-95904761D02*
X119953390Y-95809523D01*
X119953390Y-95809523D02*
X120001009Y-95761904D01*
X120001009Y-95761904D02*
X120096247Y-95714285D01*
X120096247Y-95714285D02*
X120334342Y-95714285D01*
X120334342Y-95714285D02*
X120429580Y-95761904D01*
X120429580Y-95761904D02*
X120477200Y-95809523D01*
X120477200Y-95809523D02*
X120524819Y-95904761D01*
X120524819Y-95904761D02*
X120524819Y-96190475D01*
X120524819Y-96190475D02*
X120477200Y-96285713D01*
X120477200Y-96285713D02*
X120429580Y-96333332D01*
X135324819Y-118666666D02*
X134848628Y-118999999D01*
X135324819Y-119238094D02*
X134324819Y-119238094D01*
X134324819Y-119238094D02*
X134324819Y-118857142D01*
X134324819Y-118857142D02*
X134372438Y-118761904D01*
X134372438Y-118761904D02*
X134420057Y-118714285D01*
X134420057Y-118714285D02*
X134515295Y-118666666D01*
X134515295Y-118666666D02*
X134658152Y-118666666D01*
X134658152Y-118666666D02*
X134753390Y-118714285D01*
X134753390Y-118714285D02*
X134801009Y-118761904D01*
X134801009Y-118761904D02*
X134848628Y-118857142D01*
X134848628Y-118857142D02*
X134848628Y-119238094D01*
X134420057Y-118285713D02*
X134372438Y-118238094D01*
X134372438Y-118238094D02*
X134324819Y-118142856D01*
X134324819Y-118142856D02*
X134324819Y-117904761D01*
X134324819Y-117904761D02*
X134372438Y-117809523D01*
X134372438Y-117809523D02*
X134420057Y-117761904D01*
X134420057Y-117761904D02*
X134515295Y-117714285D01*
X134515295Y-117714285D02*
X134610533Y-117714285D01*
X134610533Y-117714285D02*
X134753390Y-117761904D01*
X134753390Y-117761904D02*
X135324819Y-118333332D01*
X135324819Y-118333332D02*
X135324819Y-117714285D01*
X118523333Y-117584819D02*
X118190000Y-117108628D01*
X117951905Y-117584819D02*
X117951905Y-116584819D01*
X117951905Y-116584819D02*
X118332857Y-116584819D01*
X118332857Y-116584819D02*
X118428095Y-116632438D01*
X118428095Y-116632438D02*
X118475714Y-116680057D01*
X118475714Y-116680057D02*
X118523333Y-116775295D01*
X118523333Y-116775295D02*
X118523333Y-116918152D01*
X118523333Y-116918152D02*
X118475714Y-117013390D01*
X118475714Y-117013390D02*
X118428095Y-117061009D01*
X118428095Y-117061009D02*
X118332857Y-117108628D01*
X118332857Y-117108628D02*
X117951905Y-117108628D01*
X119475714Y-117584819D02*
X118904286Y-117584819D01*
X119190000Y-117584819D02*
X119190000Y-116584819D01*
X119190000Y-116584819D02*
X119094762Y-116727676D01*
X119094762Y-116727676D02*
X118999524Y-116822914D01*
X118999524Y-116822914D02*
X118904286Y-116870533D01*
X116383333Y-112679580D02*
X116335714Y-112727200D01*
X116335714Y-112727200D02*
X116192857Y-112774819D01*
X116192857Y-112774819D02*
X116097619Y-112774819D01*
X116097619Y-112774819D02*
X115954762Y-112727200D01*
X115954762Y-112727200D02*
X115859524Y-112631961D01*
X115859524Y-112631961D02*
X115811905Y-112536723D01*
X115811905Y-112536723D02*
X115764286Y-112346247D01*
X115764286Y-112346247D02*
X115764286Y-112203390D01*
X115764286Y-112203390D02*
X115811905Y-112012914D01*
X115811905Y-112012914D02*
X115859524Y-111917676D01*
X115859524Y-111917676D02*
X115954762Y-111822438D01*
X115954762Y-111822438D02*
X116097619Y-111774819D01*
X116097619Y-111774819D02*
X116192857Y-111774819D01*
X116192857Y-111774819D02*
X116335714Y-111822438D01*
X116335714Y-111822438D02*
X116383333Y-111870057D01*
X117335714Y-112774819D02*
X116764286Y-112774819D01*
X117050000Y-112774819D02*
X117050000Y-111774819D01*
X117050000Y-111774819D02*
X116954762Y-111917676D01*
X116954762Y-111917676D02*
X116859524Y-112012914D01*
X116859524Y-112012914D02*
X116764286Y-112060533D01*
X116679580Y-102666666D02*
X116727200Y-102714285D01*
X116727200Y-102714285D02*
X116774819Y-102857142D01*
X116774819Y-102857142D02*
X116774819Y-102952380D01*
X116774819Y-102952380D02*
X116727200Y-103095237D01*
X116727200Y-103095237D02*
X116631961Y-103190475D01*
X116631961Y-103190475D02*
X116536723Y-103238094D01*
X116536723Y-103238094D02*
X116346247Y-103285713D01*
X116346247Y-103285713D02*
X116203390Y-103285713D01*
X116203390Y-103285713D02*
X116012914Y-103238094D01*
X116012914Y-103238094D02*
X115917676Y-103190475D01*
X115917676Y-103190475D02*
X115822438Y-103095237D01*
X115822438Y-103095237D02*
X115774819Y-102952380D01*
X115774819Y-102952380D02*
X115774819Y-102857142D01*
X115774819Y-102857142D02*
X115822438Y-102714285D01*
X115822438Y-102714285D02*
X115870057Y-102666666D01*
X115870057Y-102285713D02*
X115822438Y-102238094D01*
X115822438Y-102238094D02*
X115774819Y-102142856D01*
X115774819Y-102142856D02*
X115774819Y-101904761D01*
X115774819Y-101904761D02*
X115822438Y-101809523D01*
X115822438Y-101809523D02*
X115870057Y-101761904D01*
X115870057Y-101761904D02*
X115965295Y-101714285D01*
X115965295Y-101714285D02*
X116060533Y-101714285D01*
X116060533Y-101714285D02*
X116203390Y-101761904D01*
X116203390Y-101761904D02*
X116774819Y-102333332D01*
X116774819Y-102333332D02*
X116774819Y-101714285D01*
X133761904Y-105122438D02*
X133666666Y-105074819D01*
X133666666Y-105074819D02*
X133523809Y-105074819D01*
X133523809Y-105074819D02*
X133380952Y-105122438D01*
X133380952Y-105122438D02*
X133285714Y-105217676D01*
X133285714Y-105217676D02*
X133238095Y-105312914D01*
X133238095Y-105312914D02*
X133190476Y-105503390D01*
X133190476Y-105503390D02*
X133190476Y-105646247D01*
X133190476Y-105646247D02*
X133238095Y-105836723D01*
X133238095Y-105836723D02*
X133285714Y-105931961D01*
X133285714Y-105931961D02*
X133380952Y-106027200D01*
X133380952Y-106027200D02*
X133523809Y-106074819D01*
X133523809Y-106074819D02*
X133619047Y-106074819D01*
X133619047Y-106074819D02*
X133761904Y-106027200D01*
X133761904Y-106027200D02*
X133809523Y-105979580D01*
X133809523Y-105979580D02*
X133809523Y-105646247D01*
X133809523Y-105646247D02*
X133619047Y-105646247D01*
X134238095Y-106074819D02*
X134238095Y-105074819D01*
X134238095Y-105074819D02*
X134809523Y-106074819D01*
X134809523Y-106074819D02*
X134809523Y-105074819D01*
X135285714Y-106074819D02*
X135285714Y-105074819D01*
X135285714Y-105074819D02*
X135523809Y-105074819D01*
X135523809Y-105074819D02*
X135666666Y-105122438D01*
X135666666Y-105122438D02*
X135761904Y-105217676D01*
X135761904Y-105217676D02*
X135809523Y-105312914D01*
X135809523Y-105312914D02*
X135857142Y-105503390D01*
X135857142Y-105503390D02*
X135857142Y-105646247D01*
X135857142Y-105646247D02*
X135809523Y-105836723D01*
X135809523Y-105836723D02*
X135761904Y-105931961D01*
X135761904Y-105931961D02*
X135666666Y-106027200D01*
X135666666Y-106027200D02*
X135523809Y-106074819D01*
X135523809Y-106074819D02*
X135285714Y-106074819D01*
X136809523Y-106074819D02*
X136238095Y-106074819D01*
X136523809Y-106074819D02*
X136523809Y-105074819D01*
X136523809Y-105074819D02*
X136428571Y-105217676D01*
X136428571Y-105217676D02*
X136333333Y-105312914D01*
X136333333Y-105312914D02*
X136238095Y-105360533D01*
X116833333Y-105074819D02*
X116357143Y-105074819D01*
X116357143Y-105074819D02*
X116309524Y-105551009D01*
X116309524Y-105551009D02*
X116357143Y-105503390D01*
X116357143Y-105503390D02*
X116452381Y-105455771D01*
X116452381Y-105455771D02*
X116690476Y-105455771D01*
X116690476Y-105455771D02*
X116785714Y-105503390D01*
X116785714Y-105503390D02*
X116833333Y-105551009D01*
X116833333Y-105551009D02*
X116880952Y-105646247D01*
X116880952Y-105646247D02*
X116880952Y-105884342D01*
X116880952Y-105884342D02*
X116833333Y-105979580D01*
X116833333Y-105979580D02*
X116785714Y-106027200D01*
X116785714Y-106027200D02*
X116690476Y-106074819D01*
X116690476Y-106074819D02*
X116452381Y-106074819D01*
X116452381Y-106074819D02*
X116357143Y-106027200D01*
X116357143Y-106027200D02*
X116309524Y-105979580D01*
X117166667Y-105074819D02*
X117500000Y-106074819D01*
X117500000Y-106074819D02*
X117833333Y-105074819D01*
X118690476Y-106074819D02*
X118119048Y-106074819D01*
X118404762Y-106074819D02*
X118404762Y-105074819D01*
X118404762Y-105074819D02*
X118309524Y-105217676D01*
X118309524Y-105217676D02*
X118214286Y-105312914D01*
X118214286Y-105312914D02*
X118119048Y-105360533D01*
X126457112Y-81171806D02*
X126457112Y-81743234D01*
X126457112Y-81743234D02*
X126419017Y-81857520D01*
X126419017Y-81857520D02*
X126342826Y-81933711D01*
X126342826Y-81933711D02*
X126228541Y-81971806D01*
X126228541Y-81971806D02*
X126152350Y-81971806D01*
X126799969Y-81247996D02*
X126838065Y-81209901D01*
X126838065Y-81209901D02*
X126914255Y-81171806D01*
X126914255Y-81171806D02*
X127104731Y-81171806D01*
X127104731Y-81171806D02*
X127180922Y-81209901D01*
X127180922Y-81209901D02*
X127219017Y-81247996D01*
X127219017Y-81247996D02*
X127257112Y-81324187D01*
X127257112Y-81324187D02*
X127257112Y-81400377D01*
X127257112Y-81400377D02*
X127219017Y-81514663D01*
X127219017Y-81514663D02*
X126761874Y-81971806D01*
X126761874Y-81971806D02*
X127257112Y-81971806D01*
X130834819Y-126333333D02*
X131549104Y-126333333D01*
X131549104Y-126333333D02*
X131691961Y-126380952D01*
X131691961Y-126380952D02*
X131787200Y-126476190D01*
X131787200Y-126476190D02*
X131834819Y-126619047D01*
X131834819Y-126619047D02*
X131834819Y-126714285D01*
X131834819Y-125333333D02*
X131834819Y-125904761D01*
X131834819Y-125619047D02*
X130834819Y-125619047D01*
X130834819Y-125619047D02*
X130977676Y-125714285D01*
X130977676Y-125714285D02*
X131072914Y-125809523D01*
X131072914Y-125809523D02*
X131120533Y-125904761D01*
X126144819Y-109071904D02*
X126954342Y-109071904D01*
X126954342Y-109071904D02*
X127049580Y-109024285D01*
X127049580Y-109024285D02*
X127097200Y-108976666D01*
X127097200Y-108976666D02*
X127144819Y-108881428D01*
X127144819Y-108881428D02*
X127144819Y-108690952D01*
X127144819Y-108690952D02*
X127097200Y-108595714D01*
X127097200Y-108595714D02*
X127049580Y-108548095D01*
X127049580Y-108548095D02*
X126954342Y-108500476D01*
X126954342Y-108500476D02*
X126144819Y-108500476D01*
X127144819Y-107500476D02*
X127144819Y-108071904D01*
X127144819Y-107786190D02*
X126144819Y-107786190D01*
X126144819Y-107786190D02*
X126287676Y-107881428D01*
X126287676Y-107881428D02*
X126382914Y-107976666D01*
X126382914Y-107976666D02*
X126430533Y-108071904D01*
X120887019Y-112119999D02*
X121125114Y-112119999D01*
X121029876Y-112358094D02*
X121125114Y-112119999D01*
X121125114Y-112119999D02*
X121029876Y-111881904D01*
X121315590Y-112262856D02*
X121125114Y-112119999D01*
X121125114Y-112119999D02*
X121315590Y-111977142D01*
X120887019Y-112119999D02*
X121125114Y-112119999D01*
X121029876Y-112358094D02*
X121125114Y-112119999D01*
X121125114Y-112119999D02*
X121029876Y-111881904D01*
X121315590Y-112262856D02*
X121125114Y-112119999D01*
X121125114Y-112119999D02*
X121315590Y-111977142D01*
D12*
%TO.C,U2*%
X128026200Y-94545600D02*
G75*
G02*
X127873800Y-94545600I-76200J0D01*
G01*
X127873800Y-94545600D02*
G75*
G02*
X128026200Y-94545600I76200J0D01*
G01*
X127337861Y-96158500D02*
X126662139Y-96158500D01*
X125349000Y-96158500D02*
X125349000Y-97809500D01*
X125349000Y-97809500D02*
X126387860Y-97809500D01*
X128651000Y-97809500D02*
X128651000Y-96158500D01*
X127612140Y-97809500D02*
X128651000Y-97809500D01*
D13*
%TO.C,R4*%
X133522500Y-96737258D02*
X133522500Y-96262742D01*
X132477500Y-96737258D02*
X132477500Y-96262742D01*
%TO.C,R3*%
X120977500Y-96737258D02*
X120977500Y-96262742D01*
X122022500Y-96737258D02*
X122022500Y-96262742D01*
%TO.C,R2*%
X133870000Y-115230000D02*
X133870000Y-121770000D01*
X133540000Y-115230000D02*
X133870000Y-115230000D01*
X131460000Y-115230000D02*
X131130000Y-115230000D01*
X131130000Y-115230000D02*
X131130000Y-121770000D01*
X133870000Y-121770000D02*
X133540000Y-121770000D01*
X131130000Y-121770000D02*
X131460000Y-121770000D01*
%TO.C,R1*%
X115420000Y-118130000D02*
X121960000Y-118130000D01*
X115420000Y-118460000D02*
X115420000Y-118130000D01*
X115420000Y-120540000D02*
X115420000Y-120870000D01*
X115420000Y-120870000D02*
X121960000Y-120870000D01*
X121960000Y-118130000D02*
X121960000Y-118460000D01*
X121960000Y-120870000D02*
X121960000Y-120540000D01*
%TO.C,C1*%
X116288748Y-113265000D02*
X116811252Y-113265000D01*
X116288748Y-114735000D02*
X116811252Y-114735000D01*
%TO.C,C2*%
X117265000Y-102761252D02*
X117265000Y-102238748D01*
X118735000Y-102761252D02*
X118735000Y-102238748D01*
%TO.C,GND1*%
X133620000Y-106620000D02*
X135000000Y-106620000D01*
X133620000Y-108000000D02*
X133620000Y-106620000D01*
X133620000Y-109270000D02*
X133620000Y-109380000D01*
X133620000Y-109270000D02*
X136380000Y-109270000D01*
X133620000Y-109380000D02*
X136380000Y-109380000D01*
X136380000Y-109270000D02*
X136380000Y-109380000D01*
%TO.C,5V1*%
X116120000Y-106620000D02*
X117500000Y-106620000D01*
X116120000Y-108000000D02*
X116120000Y-106620000D01*
X116120000Y-109270000D02*
X116120000Y-109380000D01*
X116120000Y-109270000D02*
X118880000Y-109270000D01*
X116120000Y-109380000D02*
X118880000Y-109380000D01*
X118880000Y-109270000D02*
X118880000Y-109380000D01*
D14*
%TO.C,J2*%
X133003779Y-90329511D02*
X119603779Y-90329511D01*
X133003779Y-72129511D02*
X133003779Y-90329511D01*
X119603779Y-90329511D02*
X119603779Y-72129511D01*
X119603779Y-72129511D02*
X133003779Y-72129511D01*
X130903779Y-88909511D02*
G75*
G02*
X130703779Y-88909511I-100000J0D01*
G01*
X130703779Y-88909511D02*
G75*
G02*
X130903779Y-88909511I100000J0D01*
G01*
D13*
%TO.C,J1*%
X130380000Y-124620000D02*
X130380000Y-126000000D01*
X129000000Y-124620000D02*
X130380000Y-124620000D01*
X127730000Y-124620000D02*
X122540000Y-124620000D01*
X127730000Y-124620000D02*
X127730000Y-127380000D01*
X122540000Y-124620000D02*
X122540000Y-127380000D01*
X127730000Y-127380000D02*
X122540000Y-127380000D01*
D12*
%TO.C,U1*%
X123898540Y-111612000D02*
X124537186Y-111612000D01*
X126302814Y-111612000D02*
X127077186Y-111612000D01*
X128842814Y-111612000D02*
X129617186Y-111612000D01*
X131382814Y-111612000D02*
X131770000Y-111612000D01*
X131770000Y-111612000D02*
X131770000Y-105008000D01*
X121610000Y-105008000D02*
X121610000Y-111612000D01*
X121997186Y-105008000D02*
X121610000Y-105008000D01*
X124537186Y-105008000D02*
X123762814Y-105008000D01*
X127077186Y-105008000D02*
X126302814Y-105008000D01*
X129617186Y-105008000D02*
X128842814Y-105008000D01*
X131770000Y-105008000D02*
X131382814Y-105008000D01*
X121610000Y-108005200D02*
G75*
G02*
X121610000Y-108614800I0J-304800D01*
G01*
%TD*%
M02*
